<svg width="13" height="26" viewBox="0 0 13 26" fill="none" xmlns="http://www.w3.org/2000/svg">
<path d="M3.29047 13.0193H0.93335V8.78298C1.57914 8.78298 2.22492 8.78298 2.87071 8.78298C3.17423 8.78298 3.24526 8.69257 3.24526 8.3955C3.24526 7.43328 3.24526 6.45815 3.28401 5.5153C3.29545 4.79185 3.47674 4.08122 3.81326 3.4407C4.14978 2.80019 4.63212 2.24772 5.22137 1.82786C6.13226 1.24312 7.2008 0.952311 8.2824 0.994794C9.42544 0.994794 10.562 0.994794 11.7051 0.994794C11.8471 0.994794 11.9828 0.994794 11.9828 1.19499C11.9828 2.48656 11.9828 3.77813 11.9828 5.10845H11.337C10.6137 5.10845 9.8904 5.10845 9.16712 5.10845C9.04919 5.10228 8.93125 5.12031 8.82054 5.16143C8.70984 5.20256 8.60873 5.2659 8.52343 5.34757C8.43813 5.42924 8.37045 5.52751 8.32456 5.63631C8.27866 5.74512 8.25552 5.86218 8.25657 5.98026C8.2049 6.8327 8.25657 7.69806 8.25657 8.56341C8.25657 8.62153 8.43739 8.73131 8.54071 8.73131C9.5998 8.73131 10.6653 8.73131 11.7309 8.73131H12.0538C11.9053 10.1391 11.7632 11.5276 11.6211 12.9483H8.26948V25.0051H3.29047V13.0193Z"/>
</svg>
