<svg width="40" height="40" viewBox="0 0 40 40" fill="none" xmlns="http://www.w3.org/2000/svg">
<path d="M16.7905 20.0193H14.4333V15.783C15.0791 15.783 15.7249 15.783 16.3707 15.783C16.6742 15.783 16.7453 15.6926 16.7453 15.3955C16.7453 14.4333 16.7453 13.4581 16.784 12.5153C16.7954 11.7919 16.9767 11.0812 17.3133 10.4407C17.6498 9.80019 18.1321 9.24772 18.7214 8.82786C19.6323 8.24312 20.7008 7.95231 21.7824 7.99479C22.9254 7.99479 24.062 7.99479 25.2051 7.99479C25.3471 7.99479 25.4828 7.99479 25.4828 8.19499C25.4828 9.48656 25.4828 10.7781 25.4828 12.1085H24.837C24.1137 12.1085 23.3904 12.1085 22.6671 12.1085C22.5492 12.1023 22.4312 12.1203 22.3205 12.1614C22.2098 12.2026 22.1087 12.2659 22.0234 12.3476C21.9381 12.4292 21.8705 12.5275 21.8246 12.6363C21.7787 12.7451 21.7555 12.8622 21.7566 12.9803C21.7049 13.8327 21.7566 14.6981 21.7566 15.5634C21.7566 15.6215 21.9374 15.7313 22.0407 15.7313C23.0998 15.7313 24.1653 15.7313 25.2309 15.7313H25.5538C25.4053 17.1391 25.2632 18.5276 25.1211 19.9483H21.7695V32.0051H16.7905V20.0193Z" fill="#010101"/>
<rect x="0.5" y="0.5" width="39" height="39" rx="3.5" stroke="black"/>
</svg>
