<svg width="40" height="40" viewBox="0 0 40 40" fill="none" xmlns="http://www.w3.org/2000/svg">
<rect x="0.5" y="0.5" width="39" height="39" rx="3.5" stroke="black"/>
<path d="M25.25 8.625H14.75C13.1261 8.62674 11.5692 9.27261 10.4209 10.4209C9.27261 11.5692 8.62674 13.1261 8.625 14.75V25.25C8.62674 26.8739 9.27261 28.4308 10.4209 29.5791C11.5692 30.7274 13.1261 31.3733 14.75 31.375H25.25C26.8739 31.3733 28.4308 30.7274 29.5791 29.5791C30.7274 28.4308 31.3733 26.8739 31.375 25.25V14.75C31.3733 13.1261 30.7274 11.5692 29.5791 10.4209C28.4308 9.27261 26.8739 8.62674 25.25 8.625ZM20 25.25C18.9616 25.25 17.9466 24.9421 17.0833 24.3652C16.2199 23.7883 15.547 22.9684 15.1496 22.0091C14.7523 21.0498 14.6483 19.9942 14.8509 18.9758C15.0535 17.9574 15.5535 17.0219 16.2877 16.2877C17.0219 15.5535 17.9574 15.0535 18.9758 14.8509C19.9942 14.6483 21.0498 14.7523 22.0091 15.1496C22.9684 15.547 23.7883 16.2199 24.3652 17.0833C24.9421 17.9466 25.25 18.9616 25.25 20C25.2486 21.3919 24.695 22.7265 23.7107 23.7107C22.7265 24.695 21.3919 25.2486 20 25.25ZM26.5625 14.75C26.3029 14.75 26.0492 14.673 25.8333 14.5288C25.6175 14.3846 25.4492 14.1796 25.3499 13.9398C25.2506 13.6999 25.2246 13.436 25.2752 13.1814C25.3259 12.9268 25.4509 12.693 25.6344 12.5094C25.818 12.3259 26.0518 12.2009 26.3064 12.1502C26.561 12.0996 26.8249 12.1256 27.0648 12.2249C27.3046 12.3242 27.5096 12.4925 27.6538 12.7083C27.798 12.9242 27.875 13.1779 27.875 13.4375C27.875 13.7856 27.7367 14.1194 27.4906 14.3656C27.2444 14.6117 26.9106 14.75 26.5625 14.75ZM23.5 20C23.5 20.6922 23.2947 21.3689 22.9101 21.9445C22.5256 22.5201 21.9789 22.9687 21.3394 23.2336C20.6999 23.4985 19.9961 23.5678 19.3172 23.4327C18.6383 23.2977 18.0146 22.9644 17.5251 22.4749C17.0356 21.9854 16.7023 21.3617 16.5673 20.6828C16.4322 20.0039 16.5015 19.3001 16.7664 18.6606C17.0313 18.0211 17.4799 17.4744 18.0555 17.0899C18.6311 16.7053 19.3078 16.5 20 16.5C20.9283 16.5 21.8185 16.8687 22.4749 17.5251C23.1313 18.1815 23.5 19.0717 23.5 20Z" fill="#010101"/>
</svg>
