<svg width="23" height="24" viewBox="0 0 23 24" fill="none" xmlns="http://www.w3.org/2000/svg">
<path d="M16.75 0.625H6.25C4.62608 0.626737 3.06917 1.27261 1.92089 2.42089C0.772606 3.56917 0.126737 5.12608 0.125 6.75V17.25C0.126737 18.8739 0.772606 20.4308 1.92089 21.5791C3.06917 22.7274 4.62608 23.3733 6.25 23.375H16.75C18.3739 23.3733 19.9308 22.7274 21.0791 21.5791C22.2274 20.4308 22.8733 18.8739 22.875 17.25V6.75C22.8733 5.12608 22.2274 3.56917 21.0791 2.42089C19.9308 1.27261 18.3739 0.626737 16.75 0.625ZM11.5 17.25C10.4616 17.25 9.44661 16.9421 8.58326 16.3652C7.7199 15.7883 7.04699 14.9684 6.64963 14.0091C6.25227 13.0498 6.14831 11.9942 6.35088 10.9758C6.55345 9.95738 7.05346 9.02192 7.78769 8.28769C8.52192 7.55346 9.45738 7.05345 10.4758 6.85088C11.4942 6.64831 12.5498 6.75227 13.5091 7.14963C14.4684 7.54699 15.2883 8.2199 15.8652 9.08326C16.4421 9.94661 16.75 10.9616 16.75 12C16.7486 13.3919 16.195 14.7265 15.2107 15.7107C14.2265 16.695 12.8919 17.2486 11.5 17.25ZM18.0625 6.75C17.8029 6.75 17.5492 6.67302 17.3333 6.5288C17.1175 6.38458 16.9492 6.1796 16.8499 5.93977C16.7506 5.69994 16.7246 5.43604 16.7752 5.18144C16.8259 4.92684 16.9509 4.69298 17.1344 4.50942C17.318 4.32587 17.5518 4.20086 17.8064 4.15022C18.061 4.09958 18.3249 4.12557 18.5648 4.22491C18.8046 4.32425 19.0096 4.49247 19.1538 4.70831C19.298 4.92415 19.375 5.17791 19.375 5.4375C19.375 5.7856 19.2367 6.11944 18.9906 6.36558C18.7444 6.61172 18.4106 6.75 18.0625 6.75ZM15 12C15 12.6922 14.7947 13.3689 14.4101 13.9445C14.0256 14.5201 13.4789 14.9687 12.8394 15.2336C12.1999 15.4985 11.4961 15.5678 10.8172 15.4327C10.1383 15.2977 9.51461 14.9644 9.02513 14.4749C8.53564 13.9854 8.2023 13.3617 8.06725 12.6828C7.9322 12.0039 8.00151 11.3001 8.26642 10.6606C8.53133 10.0211 8.97993 9.47444 9.5555 9.08986C10.1311 8.70527 10.8078 8.5 11.5 8.5C12.4283 8.5 13.3185 8.86875 13.9749 9.52513C14.6313 10.1815 15 11.0717 15 12Z"/>
</svg>
