<svg viewBox="0 0 248 180" fill="none" xmlns="http://www.w3.org/2000/svg">
<g opacity="0.8">
<path d="M97.5507 79.154C100.049 79.7059 102.462 80.2081 104.86 80.7742C109.333 81.83 113.822 82.8336 118.257 84.0349C120.584 84.6652 122.807 85.6729 125.08 86.4995C126.722 87.0958 128.353 87.7309 130.02 88.2489C133.981 89.4797 137.941 90.7164 141.938 91.8253C145.262 92.7482 148.619 93.5745 151.992 94.3C159.433 95.9006 166.735 98.0033 174.017 100.19C180.76 102.216 187.491 104.281 194.227 106.329C197.592 107.351 200.923 108.508 204.33 109.359C208.349 110.363 212.417 111.191 216.494 111.93C220.904 112.73 225.349 113.341 229.78 114.03C230.924 114.208 231.258 114.69 231.012 115.858C230.137 120.005 229.299 124.16 228.373 128.294C227.609 131.703 226.678 135.077 225.934 138.49C225.281 141.488 224.824 144.526 224.212 147.533C223.612 150.474 222.962 153.404 222.267 156.323C221.367 160.095 220.354 163.841 219.477 167.618C218.632 171.253 217.425 174.769 216.178 178.277C215.832 179.249 215.452 180.214 215.203 181.212C213.631 187.497 212.073 193.787 210.57 200.089C210.414 200.743 210.544 201.526 210.739 202.191C211.286 204.058 211.027 204.968 209.421 206.04C208.754 206.486 208.473 207.135 208.285 207.873C207.065 212.653 205.839 217.431 204.605 222.207C204.005 224.527 203.382 226.841 202.767 229.158C202.527 230.062 201.982 230.33 200.958 230.129C199.332 229.81 197.706 229.486 196.069 229.234C194.145 228.937 192.212 228.7 190.28 228.464C189.057 228.313 187.83 228.194 186.603 228.09C185.635 228.007 184.876 228.415 184.238 229.132C183.72 229.714 183.156 230.256 182.598 230.801C180.644 232.713 178.591 234.534 176.742 236.541C171.094 242.672 164.997 248.32 158.562 253.605C155.583 256.051 152.496 258.366 149.487 260.775C144.585 264.697 139.731 268.678 134.812 272.577C131.068 275.544 127.322 278.504 123.932 281.883C123.027 282.785 122.149 283.713 121.252 284.623C120.458 285.427 119.961 285.486 119.093 284.807C115.901 282.307 112.747 279.758 109.531 277.29C99.9218 269.915 91.4098 261.332 82.6686 252.997C78.9871 249.487 75.067 246.221 71.4631 242.635C63.2182 234.428 55.0522 226.14 46.9493 217.792C41.307 211.979 35.3479 206.513 29.327 201.104C26.545 198.604 23.9132 195.936 21.2022 193.356C20.0015 192.214 18.8124 191.055 17.5527 189.98C13.5623 186.577 9.49077 183.267 5.55775 179.8C4.14468 178.554 2.60003 178.264 0.867566 178.24C0.197879 178.231 -0.477616 178.178 -1.13875 178.072C-2.03416 177.929 -2.5375 177.309 -2.32126 176.444C-1.03269 171.285 -1.24497 165.98 -0.753327 160.745C0.683583 145.461 2.03672 130.168 3.45939 114.881C3.95976 109.503 4.74987 104.147 5.07843 98.7615C5.46675 92.3902 5.48204 85.9964 5.69271 79.6131C5.84099 75.1111 6.07213 70.6112 6.19615 66.1087C6.21746 65.3381 6.03505 64.4841 5.69526 63.7923C2.49978 57.2937 -0.777054 50.8359 -3.97357 44.3379C-5.61487 41.0013 -7.16576 37.6194 -8.70621 34.2341C-9.20699 33.134 -8.81547 32.7599 -7.59023 32.6361C-6.28989 32.5046 -4.95583 32.3317 -3.7292 31.9074C1.97407 29.9335 7.45113 27.4051 12.9658 24.9668C14.8693 24.1258 16.8754 23.5182 18.8039 22.73C21.2694 21.7221 23.7196 20.6711 26.1498 19.5808C30.8121 17.4906 35.4487 15.3439 40.1147 13.2598C40.8832 12.9163 41.7331 12.7397 42.56 12.5448C43.6629 12.2839 44.2048 12.549 44.6286 13.5989C45.1318 14.8457 45.5852 16.1131 46.0283 17.3829C49.268 26.6754 52.5018 35.9708 55.7319 45.2668C56.0259 46.1133 56.3215 46.9636 56.541 47.8319C56.7478 48.6498 57.2108 49.0085 58.0466 49.0821C64.2535 49.6287 70.4584 50.2018 76.6639 50.7698C83.8073 51.4231 90.955 52.0245 98.0894 52.7631C100.638 53.0268 100.578 53.2933 100.376 55.4371C100.101 58.3759 99.7705 61.3312 99.1508 64.2115C98.2778 68.2673 97.8035 72.3412 97.7394 76.4772C97.7237 77.3467 97.6181 78.2148 97.5507 79.154ZM85.9283 151.893C86.0018 151.917 86.0762 151.941 86.1495 151.966C86.3105 151.82 86.4992 151.693 86.6284 151.523C87.8568 149.904 89.0876 148.287 90.289 146.649C90.7504 146.02 91.1189 145.324 91.5775 144.693C91.6901 144.539 92.0101 144.431 92.1983 144.472C92.3249 144.499 92.4895 144.839 92.4618 145.01C92.3845 145.487 92.3032 145.998 92.0697 146.409C90.6268 148.951 88.4896 150.917 86.5234 153.027C86.1133 153.468 85.7723 154.01 85.537 154.564C85.3414 155.024 85.3305 155.568 85.2675 156.079C84.769 160.123 84.2723 164.166 83.7882 168.212C83.5685 170.051 83.3698 171.892 83.1752 173.734C82.9321 176.04 82.5333 178.346 82.5165 180.654C82.4986 183.05 82.0416 185.21 80.6303 187.164C80.0344 187.989 79.8542 188.113 78.8426 187.917C76.4213 187.445 74.0107 186.908 71.5771 186.518C68.4353 186.017 65.2753 185.628 62.1222 185.202C60.6581 185.003 59.1912 184.825 57.7237 184.649C57.1912 184.586 56.7991 184.777 56.484 185.255C56.0536 185.907 55.5724 186.535 55.049 187.115C51.857 190.659 48.6536 194.193 45.4359 197.713C44.8639 198.339 44.217 198.9 43.5769 199.459C43.2634 199.733 42.86 199.808 42.5633 199.435C42.2431 199.034 42.4281 198.684 42.7934 198.401C43.3253 197.99 43.9103 197.63 44.3739 197.153C45.6972 195.79 46.9911 194.398 48.2588 192.983C50.2758 190.732 52.2743 188.463 54.2528 186.177C54.6772 185.686 54.9844 185.095 55.4017 184.466C54.6618 184.268 54.114 184.047 53.5482 183.982C50.4974 183.63 47.4415 183.331 44.3909 182.978C43.9178 182.924 43.6637 183.057 43.3913 183.425C41.4832 186.006 39.3999 188.43 36.9015 190.469C36.6245 190.695 36.3232 191.131 35.9394 190.734C35.5745 190.356 35.9828 190.049 36.2055 189.757C36.2728 189.668 36.3538 189.589 36.4312 189.508C37.5072 188.371 38.6299 187.274 39.6465 186.086C40.4771 185.114 41.1802 184.035 42.0194 182.896C41.4407 182.816 41.0457 182.752 40.6494 182.71C38.2882 182.455 35.9281 182.187 33.5626 181.975C33.234 181.945 32.7969 182.113 32.552 182.342C31.8512 182.998 31.2492 183.758 30.5604 184.427C29.5199 185.439 28.4504 186.422 27.3655 187.385C27.0952 187.624 26.6954 187.896 26.3551 187.502C26.0144 187.105 26.3576 186.798 26.6239 186.528C27.1736 185.969 27.7594 185.445 28.288 184.867C29.1406 183.934 29.9591 182.969 30.7922 182.018C30.7593 181.917 30.7274 181.815 30.6944 181.714C22.7389 180.231 14.7207 179.286 6.60929 179.029C6.70179 179.258 6.81259 179.393 6.94377 179.504C9.97804 182.058 13.0302 184.592 16.0446 187.168C17.8661 188.726 19.6666 190.313 21.4116 191.955C24.1858 194.565 26.8905 197.25 29.6527 199.872C35.3748 205.303 41.1587 210.67 46.8327 216.151C50.1031 219.31 53.1987 222.651 56.393 225.89C57.7459 227.263 59.1671 228.569 60.5295 229.932C65.646 235.053 70.7219 240.216 75.8721 245.303C79.2016 248.592 82.7764 251.618 86.1362 254.885C92.0334 260.617 98.1704 266.103 104.237 271.66C105.24 272.578 106.385 273.342 107.478 274.159C108.572 274.977 109.698 275.754 110.782 276.584C113.681 278.801 116.566 281.036 119.456 283.267C119.928 283.631 120.345 283.587 120.761 283.157C122.008 281.868 123.246 280.571 124.528 279.317C125.519 278.347 126.538 277.399 127.604 276.511C128.826 275.493 130.124 274.567 131.369 273.576C137.858 268.408 144.31 263.193 150.833 258.069C158.226 252.262 165.589 246.407 172.047 239.558C177.42 233.86 183.227 228.619 188.771 223.106C194.047 217.859 199.561 212.852 204.572 207.338C205.446 206.377 206.308 205.407 207.483 204.778C207.829 204.593 208.113 204.276 208.398 203.993C209.697 202.7 209.706 202.571 208.481 201.212C206.166 198.641 203.667 196.265 200.944 194.128C197.12 191.123 193.324 188.082 189.457 185.134C185.966 182.472 182.331 179.994 178.88 177.283C176.087 175.089 173.464 172.679 170.781 170.347C164.794 165.143 158.792 159.965 152.56 155.042C142.219 146.874 132.097 138.43 121.844 130.15C113.476 123.393 104.874 116.924 96.749 109.865C95.727 108.977 94.5525 108.266 93.3496 107.401C93.2057 107.783 93.0726 108.036 93.0172 108.304C92.9134 108.808 92.8631 109.324 92.7766 109.832C91.7759 115.665 90.7661 121.497 89.7814 127.333C89.6816 127.922 89.7318 128.537 89.7121 129.139C90.0416 129.022 90.1951 128.894 90.3218 128.743C92.3172 126.358 94.3059 123.966 96.3056 121.585C96.7349 121.073 97.1875 120.578 97.6642 120.11C97.7692 120.007 98.0427 119.998 98.1986 120.056C98.2731 120.083 98.3259 120.399 98.2657 120.526C97.9836 121.128 97.7484 121.784 97.3346 122.287C94.793 125.37 92.2383 128.443 89.6106 131.451C89.0938 132.043 88.8523 132.63 88.7761 133.342C88.5949 135.034 88.5294 136.745 88.2441 138.42C87.5846 142.286 86.8144 146.133 86.11 149.992C85.9954 150.614 85.9862 151.258 85.9283 151.893ZM57.6946 50.6909C57.7917 51.1951 57.8069 51.5148 57.916 51.7987C59.5185 55.9839 61.0177 60.2145 62.7733 64.3346C65.0844 69.7564 67.6093 75.0877 70.0173 80.4694C70.2788 81.0542 70.4445 81.7011 70.5385 82.3366C70.6607 83.1657 70.2697 83.8851 69.4537 83.9873C69.127 84.0284 68.811 84.2828 68.5224 84.4872C63.5773 87.9892 58.5055 91.2895 53.1241 94.0904C49.8634 95.7876 46.5669 97.4179 43.3418 99.1803C40.7667 100.587 38.269 102.137 35.7505 103.644C33.9454 104.725 32.1883 105.886 30.3606 106.925C29.2498 107.556 28.4136 107.36 27.6753 106.306C26.5332 104.676 25.4305 103.012 24.4213 101.298C22.944 98.7864 21.5636 96.2187 20.143 93.6742C19.2919 92.149 18.3618 90.6617 17.6074 89.0903C14.3878 82.38 11.2219 75.6442 8.03414 68.919C7.91354 68.665 7.77196 68.421 7.64026 68.1727C7.58151 68.1779 7.52355 68.1832 7.46479 68.1883C7.37147 68.6858 7.2181 69.1803 7.19543 69.6802C7.04759 72.9704 6.81925 76.2626 6.82315 79.5543C6.83027 86.1663 6.81218 92.775 6.17614 99.3634C5.51255 106.233 4.80401 113.098 4.13106 119.967C3.49685 126.435 2.88134 132.905 2.26075 139.374C1.8738 143.41 1.45636 147.444 1.12313 151.484C0.881816 154.409 0.867687 157.356 0.554203 160.272C-0.00749053 165.493 -0.225133 170.727 -0.378512 175.969C-0.389632 176.364 -0.441613 176.681 0.140963 176.746C3.12504 177.077 6.10244 177.465 9.08484 177.812C15.8082 178.595 22.535 179.347 29.2556 180.15C32.5708 180.546 35.869 181.097 39.1883 181.452C41.9938 181.752 44.8435 181.702 47.6313 182.1C57.5683 183.519 67.5986 184.311 77.4278 186.46C78.4059 186.675 79.0933 186.319 79.6396 185.591C79.9177 185.222 80.184 184.799 80.2994 184.359C80.5484 183.41 80.8098 182.441 80.865 181.469C81.0993 177.38 81.4169 173.306 82.1176 169.261C82.8675 164.934 83.5123 160.588 84.165 156.244C85.1744 149.528 86.0962 142.798 87.1539 136.09C88.693 126.333 90.3253 116.591 91.9063 106.84C92.4645 103.397 93.0072 99.9509 93.523 96.5011C94.1883 92.0488 94.8144 87.5905 95.4663 83.1364C95.754 81.1669 96.115 79.2066 96.3455 77.2305C96.5318 75.6364 96.4711 74.01 96.6979 72.424C97.2528 68.5491 97.9476 64.6943 98.5092 60.8203C98.7386 59.2342 98.7766 57.6194 98.8869 56.0171C98.9363 55.2974 98.5316 54.796 97.9316 54.5301C97.2424 54.2237 96.5136 53.9163 95.776 53.8265C91.8603 53.3512 87.9423 52.8874 84.014 52.5305C81.0694 52.2632 78.1065 52.2101 75.1584 51.9784C70.3094 51.5982 65.4675 51.1399 60.6203 50.7401C59.6957 50.6637 58.7603 50.7052 57.6946 50.6909ZM173.06 115.5C173.8 115.812 173.861 116.333 173.783 116.792C173.486 118.531 173.172 120.271 172.769 121.988C172.472 123.25 171.998 124.469 171.653 125.721C170.736 129.05 169.835 132.383 168.952 135.72C168.567 137.17 168.197 138.629 167.894 140.097C167.287 143.037 166.808 146.004 166.135 148.928C165.189 153.035 164.003 157.078 162.384 160.981C162.214 161.39 162.28 161.649 162.635 161.955C164.875 163.888 167.057 165.889 169.32 167.794C171.592 169.706 173.936 171.533 176.25 173.395C176.372 173.493 176.496 173.59 176.626 173.677C177.418 174.202 177.592 174.092 177.756 173.145C178.041 171.491 178.295 169.824 178.715 168.201C179.977 163.32 181.522 158.522 182.711 153.612C184.815 144.917 187.853 136.493 190.658 128.003C191.247 126.219 191.665 124.378 192.199 122.574C192.464 121.676 192.79 120.793 193.142 119.926C193.214 119.747 193.523 119.664 193.723 119.537C193.785 119.764 193.949 120.019 193.895 120.213C193.56 121.419 193.165 122.606 192.811 123.807C192.287 125.591 191.809 127.389 191.257 129.164C190.692 130.98 190.161 132.816 189.437 134.57C188.076 137.866 186.878 141.211 185.988 144.661C185.346 147.154 184.838 149.682 184.2 152.176C183.622 154.434 182.958 156.669 182.314 158.909C181.893 160.372 181.407 161.816 181.014 163.286C180.609 164.799 180.255 166.328 179.929 167.861C179.515 169.808 179.107 171.758 178.786 173.722C178.627 174.697 178.654 175.703 179.615 176.379C180.806 177.218 182.003 178.046 183.171 178.915C186.424 181.333 189.662 183.769 193.008 186.274C193.159 185.866 193.297 185.456 193.463 185.057C193.64 184.632 193.733 184.074 194.055 183.825C195.19 182.949 195.959 181.814 196.621 180.587C198.208 177.65 199.86 174.739 200.649 171.45C201.141 169.402 201.527 167.323 202.129 165.309C202.859 162.867 202.926 160.409 202.621 157.924C202.445 156.481 202.231 154.974 201.285 153.827C200.468 152.836 200.397 151.782 200.448 150.633C200.464 150.275 200.481 149.917 200.518 149.561C200.718 147.676 201 145.796 201.109 143.906C201.251 141.463 201.055 139.036 200.34 136.671C200.281 136.477 200.4 136.23 200.436 136.008C200.65 136.087 200.939 136.105 201.064 136.257C201.416 136.687 201.684 137.185 202.016 137.632C202.279 137.985 202.589 138.302 202.964 138.733C203.053 138.4 203.096 138.276 203.119 138.147C203.231 137.485 203.306 136.814 203.465 136.162C203.518 135.942 203.746 135.685 203.954 135.61C204.076 135.566 204.385 135.811 204.488 135.994C204.761 136.479 205.071 136.979 205.185 137.513C205.871 140.686 206.716 143.837 206.696 147.123C206.694 147.338 206.731 147.554 206.751 147.785C207.128 147.778 207.44 147.77 207.752 147.767C208.839 147.755 209.322 148.005 209.626 149.029C209.878 149.874 210.105 150.794 210.037 151.656C209.762 155.139 209.505 158.634 208.986 162.086C208.155 167.617 206.644 172.992 204.84 178.287C203.698 181.635 202.04 184.725 200.252 187.753C199.597 188.862 199.055 189.023 197.834 188.724C197.584 188.662 197.282 188.814 197.004 188.868C197.103 189.136 197.128 189.488 197.317 189.656C198.137 190.386 199.011 191.054 199.853 191.757C202.811 194.229 205.846 196.615 208.409 199.523C208.638 199.782 208.944 199.973 209.305 200.27C209.412 199.869 209.499 199.578 209.568 199.284C209.942 197.69 210.279 196.088 210.688 194.505C211.857 189.99 213.044 185.48 214.252 180.976C214.53 179.939 214.911 178.93 215.263 177.914C215.769 176.455 216.338 175.017 216.798 173.544C217.339 171.811 217.831 170.061 218.276 168.3C219.681 162.736 221.075 157.168 222.427 151.591C222.827 149.938 223.136 148.258 223.381 146.574C223.872 143.198 224.396 139.835 225.449 136.575C225.842 135.361 226.261 134.143 226.513 132.896C227.565 127.666 228.562 122.425 229.57 117.186C229.74 116.306 229.561 115.853 228.704 115.56C227.224 115.053 225.725 114.552 224.194 114.261C221.447 113.741 218.64 113.515 215.912 112.922C209.998 111.638 204.077 110.351 198.235 108.782C192.999 107.375 187.877 105.552 182.685 103.981C177.728 102.48 172.753 101.039 167.771 99.6257C163.415 98.3909 159.051 97.1816 154.666 96.0537C150.477 94.9765 146.239 94.0871 142.057 92.984C139.437 92.2934 136.904 91.2783 134.292 90.555C130.315 89.4547 126.342 88.3903 122.544 86.7188C119.395 85.3327 116.028 84.6027 112.677 83.8466C108.28 82.8555 103.902 81.7851 99.5088 80.7827C98.9099 80.6458 98.2672 80.6918 97.6437 80.6725C97.2117 80.6594 97.0376 80.8936 96.9711 81.3235C96.3855 85.1085 95.7336 88.8844 95.1907 92.6756C94.6471 96.4692 94.225 100.28 93.7072 104.078C93.5562 105.183 93.9232 105.987 94.7655 106.66C95.8512 107.527 96.9124 108.425 97.9838 109.31C101.8 112.465 105.617 115.621 109.435 118.774C109.614 118.922 109.812 119.049 110.01 119.192C110.306 118.539 110.567 117.962 110.828 117.385C110.91 117.405 110.991 117.425 111.073 117.445C111.118 117.645 111.218 117.851 111.199 118.045C111.157 118.489 111.099 118.94 110.969 119.363C110.853 119.742 110.923 119.968 111.232 120.22C114.206 122.636 117.167 125.069 120.134 127.494C120.328 127.653 120.541 127.789 120.826 127.993C121.278 125.893 121.661 123.914 122.133 121.958C123.532 116.162 124.968 110.375 126.386 104.583C126.53 103.996 126.614 103.392 126.793 102.816C126.856 102.614 127.116 102.472 127.287 102.303C127.42 102.506 127.586 102.697 127.675 102.917C127.727 103.045 127.672 103.226 127.641 103.377C127.492 104.124 127.352 104.873 127.18 105.615C125.88 111.228 124.567 116.837 123.273 122.451C122.811 124.458 122.388 126.472 121.971 128.489C121.936 128.66 122.024 128.939 122.155 129.047C124.901 131.317 127.648 133.586 130.428 135.815C131.044 136.309 131.783 136.65 132.62 137.154C133.109 135.329 133.563 133.669 133.998 132.004C134.399 130.464 134.768 128.916 135.178 127.379C135.262 127.064 135.467 126.782 135.617 126.483C135.719 126.513 135.821 126.541 135.924 126.57C135.852 127.092 135.824 127.623 135.702 128.133C134.969 131.181 134.239 134.23 133.442 137.262C133.316 137.742 133.368 138.005 133.708 138.294C135.228 139.586 136.742 140.885 138.261 142.176C138.393 142.288 138.556 142.364 138.74 142.478C138.79 142.326 138.834 142.226 138.856 142.122C139.353 139.756 139.718 137.354 140.366 135.031C142.058 128.964 143.855 122.926 145.646 116.886C146.627 113.578 147.675 110.291 148.706 106.998C148.789 106.731 148.97 106.493 149.106 106.242C149.187 106.264 149.269 106.285 149.35 106.306C149.365 106.526 149.43 106.756 149.388 106.964C149.16 108.084 148.955 109.211 148.652 110.311C147.644 113.962 146.555 117.591 145.575 121.25C143.656 128.417 141.793 135.6 139.892 142.774C139.793 143.148 139.741 143.394 140.104 143.686C143.984 146.802 147.846 149.94 151.714 153.069C151.867 153.192 152.037 153.295 152.152 153.376C152.439 152.305 152.742 151.258 152.998 150.2C153.61 147.674 154.174 145.137 154.805 142.615C155.469 139.963 156.19 137.325 156.88 134.678C157.157 133.615 157.458 132.557 157.674 131.481C158.312 128.29 159.143 125.155 160.266 122.1C160.326 121.936 160.553 121.834 160.703 121.702C160.771 121.889 160.922 122.09 160.893 122.26C160.758 123.054 160.594 123.846 160.402 124.628C159.365 128.872 158.286 133.106 157.282 137.357C156.344 141.326 155.482 145.312 154.586 149.291C154.247 150.797 153.948 152.314 153.546 153.803C153.422 154.26 153.49 154.463 153.835 154.74C156.333 156.748 158.811 158.78 161.298 160.802C161.431 160.91 161.58 160.997 161.777 161.133C161.863 160.814 161.93 160.558 162 160.303C162.319 159.136 162.578 157.947 162.969 156.804C164.417 152.57 165.275 148.192 166.195 143.828C166.843 140.759 167.486 137.689 168.198 134.635C168.727 132.366 169.342 130.115 169.96 127.867C170.499 125.904 171.102 123.959 171.662 122.002C172.066 120.585 172.482 119.17 172.82 117.736C172.985 117.045 172.979 116.31 173.06 115.5ZM-7.13692 34.7181C-6.53586 36.2032 -6.01474 37.753 -5.30073 39.2093C-2.52067 44.8863 0.336192 50.5265 3.13513 56.1946C7.58171 65.1984 12.0692 74.1828 16.4161 83.2339C19.5137 89.6828 22.7311 96.0638 26.3005 102.264C26.7847 103.104 27.4497 103.851 28.0908 104.59C28.5965 105.172 29.297 105.261 30.0009 104.993C30.5849 104.77 31.1579 104.504 31.7047 104.203C36.9267 101.325 42.1352 98.4232 47.3623 95.5557C50.2898 93.95 53.2904 92.4735 56.1802 90.8039C60.4517 88.3359 64.622 85.7001 68.5219 82.6622C69.3637 82.0062 69.3822 82.012 68.9594 81.0006C68.5093 79.9254 68.0672 78.8463 67.6169 77.7719C66.7593 75.7259 66.0364 73.6082 65.0087 71.6515C63.0762 67.9708 61.3878 64.1903 59.9031 60.3149C57.8784 55.0281 55.6686 49.8186 54.0607 44.3652C52.4724 38.978 50.5171 33.6984 48.6704 28.3898C47.1163 23.9228 45.498 19.4787 43.8851 15.0333C43.5168 14.0166 42.8927 13.7433 41.8725 14.0916C40.9412 14.4098 40.0064 14.7314 39.1123 15.1378C36.7461 16.2131 34.4135 17.3609 32.0461 18.4341C28.3127 20.1272 24.6382 21.9414 20.7049 23.1863C17.7853 24.1107 14.9252 25.2571 12.1101 26.4729C8.34524 28.0985 4.67623 29.9472 0.916054 31.5844C-1.64703 32.7 -4.29708 33.621 -7.13692 34.7181ZM195.129 184.243C196.476 184.794 197.01 185.946 197.566 187.114C198.053 188.139 198.788 188.151 199.452 187.218C199.594 187.018 199.722 186.807 199.852 186.598C202.357 182.606 204.161 178.292 205.437 173.779C206.411 170.335 207.185 166.831 207.95 163.332C208.317 161.657 208.544 159.939 208.677 158.228C208.874 155.707 208.911 153.173 209.058 150.646C209.098 149.96 208.99 149.402 208.382 149.019C207.783 148.64 207.194 148.718 206.602 149.048C205.349 149.746 204.088 150.43 202.838 151.132C201.9 151.658 201.791 151.955 202.155 152.985C202.259 153.279 202.433 153.547 202.548 153.838C202.777 154.418 203.082 154.989 203.193 155.594C203.864 159.226 203.697 162.843 202.841 166.428C202.493 167.888 201.986 169.316 201.717 170.788C201.298 173.084 200.408 175.185 199.387 177.258C198.349 179.367 197.243 181.429 195.762 183.269C195.54 183.543 195.373 183.862 195.129 184.243ZM207.268 207.555C207.201 207.53 207.135 207.503 207.07 207.478C206.972 207.528 206.875 207.579 206.777 207.626C205.327 208.313 204.263 209.476 203.137 210.567C198.924 214.65 195.117 219.14 190.667 222.987C189.685 223.836 188.78 224.771 187.842 225.671C187.686 225.82 187.549 225.99 187.367 226.191C187.548 226.269 187.664 226.327 187.785 226.368C191.993 227.805 196.408 227.923 200.767 228.396C201.491 228.474 201.899 228.073 202.093 227.418C202.409 226.343 202.731 225.27 203.026 224.19C204.284 219.586 205.546 214.984 206.773 210.372C207.016 209.454 207.106 208.495 207.268 207.555ZM202.237 140.434C202.2 140.49 202.157 140.525 202.154 140.562C201.954 143.592 201.752 146.622 201.572 149.653C201.553 149.962 201.675 150.278 201.744 150.66C202.686 150.118 203.491 149.583 204.356 149.175C205.418 148.675 205.762 147.791 205.827 146.742C205.861 146.212 205.829 145.663 205.729 145.141C205.415 143.494 205.065 141.854 204.701 140.216C204.636 139.92 204.437 139.653 204.244 139.257C203.949 139.857 203.803 140.344 203.508 140.712C202.981 141.371 202.657 140.548 202.237 140.434ZM193.694 187.097C194.521 187.665 195.299 188.199 196.067 188.728C196.925 187.783 196.841 187.046 195.845 186.168C194.913 185.348 194.645 185.39 194.054 186.451C193.957 186.625 193.861 186.797 193.694 187.097Z" fill="#222222"/>
<path d="M125.537 145.289C125.14 145.739 124.808 146.163 124.429 146.539C122.154 148.794 119.855 151.026 117.59 153.291C116.784 154.097 116.04 154.967 115.282 155.82C112.487 158.967 109.726 162.145 106.898 165.261C105.107 167.234 103.16 169.068 101.393 171.061C100.178 172.429 99.1714 173.98 98.0345 175.419C96.0949 177.875 94.1486 180.326 92.1525 182.736C91.632 183.364 90.9362 183.855 90.2811 184.356C90.128 184.473 89.6497 184.457 89.5974 184.357C89.4748 184.123 89.4929 183.799 89.5099 183.515C89.5159 183.412 89.6691 183.307 89.77 183.22C92.7383 180.621 95.0674 177.478 97.374 174.315C98.5314 172.728 99.6278 171.086 100.895 169.591C102.179 168.076 103.676 166.745 105.018 165.276C108.174 161.822 111.297 158.339 114.424 154.859C116.878 152.129 119.281 149.35 121.786 146.667C122.566 145.831 123.593 145.216 124.544 144.554C124.714 144.436 125.116 144.509 125.323 144.636C125.469 144.724 125.468 145.054 125.537 145.289Z" fill="#222222"/>
<path d="M142.23 158.382C141.926 158.841 141.71 159.236 141.431 159.578C140.103 161.206 138.664 162.753 137.441 164.455C135.554 167.082 133.264 169.324 130.876 171.448C128.21 173.82 126.049 176.611 123.777 179.318C123.23 179.969 122.662 180.601 122.13 181.263C119.115 185.012 116.121 188.781 113.086 192.515C112.357 193.412 111.5 194.208 110.693 195.041C110.571 195.166 110.406 195.316 110.25 195.329C109.952 195.354 109.46 195.386 109.385 195.24C109.258 194.994 109.261 194.467 109.435 194.31C113.523 190.645 116.235 185.801 120.091 181.931C121.772 180.245 123.189 178.286 124.637 176.384C126.311 174.184 128.097 172.091 130.209 170.309C133.035 167.922 135.359 165.086 137.645 162.211C138.495 161.144 139.289 160.034 140.121 158.952C140.42 158.562 140.723 158.163 141.086 157.839C141.288 157.659 141.747 157.462 141.865 157.556C142.079 157.729 142.124 158.111 142.23 158.382Z" fill="#222222"/>
<path d="M85.558 170.365C86.3392 169.27 87.0023 168.177 87.8228 167.218C90.7315 163.82 93.7101 160.482 96.6228 157.089C97.3623 156.227 98.0002 155.268 98.6103 154.305C100.486 151.344 103.132 149.048 105.377 146.407C108.031 143.285 110.709 140.185 113.371 137.069C113.994 136.339 114.585 135.581 115.206 134.848C115.347 134.681 115.533 134.519 115.732 134.441C115.917 134.369 116.225 134.326 116.338 134.427C116.487 134.561 116.557 134.849 116.553 135.069C116.551 135.247 116.42 135.45 116.295 135.597C114.685 137.487 113.097 139.397 111.44 141.246C109.02 143.947 106.499 146.559 104.113 149.291C102.202 151.481 100.418 153.784 98.5982 156.054C97.1719 157.833 95.8266 159.68 94.3558 161.421C91.8855 164.345 89.4118 167.259 87.4767 170.583C87.3433 170.812 87.1876 171.081 86.9706 171.193C86.6836 171.342 86.2265 171.514 86.023 171.387C85.7815 171.237 85.7301 170.78 85.558 170.365Z" fill="#222222"/>
<path d="M134.818 151.089C134.728 151.356 134.716 151.452 134.668 151.524C133.744 152.893 132.85 154.285 131.867 155.61C131.565 156.018 131.013 156.24 130.579 156.553C129.77 157.14 128.898 157.662 128.175 158.34C127.479 158.992 126.95 159.819 126.327 160.552C124.311 162.919 122.291 165.281 120.265 167.639C119.623 168.386 118.978 169.131 118.299 169.842C117.96 170.195 117.547 170.749 117.009 170.304C116.477 169.864 116.904 169.324 117.213 168.945C117.819 168.2 118.492 167.508 119.153 166.808C120.814 165.054 122.526 163.344 124.137 161.544C125.044 160.532 125.815 159.393 126.608 158.284C127.383 157.199 128.337 156.332 129.558 155.813C130.611 155.365 131.286 154.563 131.861 153.641C132.346 152.864 132.786 152.058 133.263 151.276C133.412 151.031 133.573 150.749 133.804 150.611C134.02 150.482 134.394 150.416 134.591 150.521C134.761 150.612 134.781 150.984 134.818 151.089Z" fill="#222222"/>
<path d="M162.551 179.64C162.456 179.996 162.455 180.327 162.296 180.543C158.522 185.683 154.887 190.94 150.169 195.305C149.89 195.563 149.617 195.853 149.285 196.019C149.076 196.124 148.763 196.027 148.497 196.021C148.506 195.737 148.402 195.359 148.545 195.186C149.143 194.463 149.765 193.745 150.468 193.126C154.601 189.483 157.766 185.025 161.046 180.661C161.373 180.223 161.587 179.584 162.551 179.64Z" fill="#222222"/>
<path d="M106.869 129.208C106.639 129.603 106.51 129.893 106.322 130.137C103.658 133.596 100.852 136.929 97.5479 139.807C97.1998 140.11 96.8185 140.699 96.3173 140.204C95.8119 139.706 96.3847 139.307 96.708 138.98C98.2621 137.405 99.9102 135.918 101.385 134.273C102.754 132.747 103.948 131.063 105.218 129.447C105.397 129.219 105.529 128.936 105.749 128.763C105.971 128.587 106.277 128.517 106.546 128.402C106.662 128.691 106.777 128.979 106.869 129.208Z" fill="#222222"/>
<path d="M110.108 179.617C109.836 179.983 109.647 180.289 109.407 180.55C107.497 182.627 105.571 184.69 103.665 186.772C103.198 187.283 102.798 187.854 102.351 188.383C102.136 188.638 101.914 188.916 101.635 189.077C101.445 189.187 101.149 189.112 100.901 189.12C100.906 188.879 100.832 188.597 100.932 188.406C101.158 187.972 101.43 187.55 101.752 187.183C103.935 184.688 106.134 182.208 108.334 179.728C108.57 179.461 108.81 179.176 109.106 178.988C109.275 178.88 109.621 178.862 109.775 178.967C109.952 179.089 110.002 179.393 110.108 179.617Z" fill="#222222"/>
<path d="M110.993 178.117C110.517 177.858 110.34 177.495 110.625 177.143C111.141 176.508 111.728 175.925 112.323 175.362C112.431 175.26 112.793 175.275 112.913 175.379C113.038 175.486 113.116 175.84 113.033 175.962C112.57 176.642 112.069 177.296 111.541 177.927C111.425 178.064 111.148 178.067 110.993 178.117Z" fill="#222222"/>
<path d="M54.9685 143.645C55.2976 142.417 56.334 141.856 57.5748 141.995C58.7532 142.128 59.9306 142.267 61.1122 142.368C61.7786 142.424 62.452 142.442 63.1212 142.421C64.3656 142.381 64.774 142.81 64.6002 144.069C64.4654 145.046 64.2981 146.017 64.17 146.995C63.7838 149.926 63.332 152.851 63.0613 155.792C62.9104 157.432 63.0574 159.1 63.0921 160.755C63.1194 162.038 63.0016 162.218 61.7041 162.183C59.6667 162.129 57.6311 162.019 55.5968 161.895C55.4008 161.883 55.0925 161.635 55.058 161.456C54.951 160.891 54.8818 160.303 54.9216 159.732C55.1041 157.13 55.4538 154.534 55.5 151.931C55.5381 149.752 55.2387 147.566 55.0893 145.382C55.0422 144.717 54.9961 144.052 54.9685 143.645ZM60.9033 144.354C60.3937 144.322 59.4359 144.242 58.4762 144.206C57.2978 144.162 57.1536 144.326 57.0755 145.53C56.8805 148.525 56.695 151.521 56.4607 154.515C56.317 156.345 56.0934 158.169 55.9013 159.996C55.8458 160.524 56.0051 160.89 56.5948 160.915C58.0268 160.977 59.4581 161.051 60.8909 161.074C61.703 161.088 61.9347 160.849 62.0173 160.061C62.0635 159.616 62.0655 159.167 62.0879 158.72C62.2014 156.418 62.2628 154.112 62.4461 151.815C62.5671 150.299 62.8668 148.798 63.0766 147.289C63.3027 145.653 62.7942 144.832 60.9033 144.354Z" fill="#222222"/>
<path d="M17.121 167.275C17.0072 167.547 16.9113 167.931 16.6988 168.234C16.5439 168.455 16.2007 168.733 16.005 168.691C15.7427 168.635 15.3737 168.315 15.3423 168.072C15.2306 167.191 15.1519 166.288 15.2213 165.406C15.4526 162.485 15.8949 159.576 15.9989 156.654C16.2003 151.003 16.2262 145.345 16.3236 139.689C16.3557 137.834 16.3677 135.978 16.4256 134.123C16.4382 133.716 16.3373 133.064 16.962 133.073C17.6586 133.082 17.4727 133.766 17.4728 134.181C17.4603 143.063 17.4302 151.945 17.3935 160.827C17.3864 162.592 17.3426 164.359 17.2974 166.123C17.289 166.479 17.192 166.832 17.121 167.275Z" fill="#222222"/>
<path d="M67.9948 142.226C69.4076 142.735 70.4504 143.137 71.51 143.488C73.8132 144.254 76.184 144.142 78.5551 143.976C79.4872 143.911 79.7447 144.031 79.9385 144.936C80.1381 145.872 80.2609 146.832 80.3249 147.787C80.392 148.789 80.3563 149.799 80.3509 150.805C80.3431 152.262 79.5405 153.073 78.0833 153.021C74.8037 152.904 71.5249 152.758 68.2473 152.607C67.9407 152.593 67.6205 152.51 67.3392 152.385C66.8535 152.169 66.5603 151.745 66.8044 151.246C67.2893 150.254 67.2658 149.203 67.2443 148.167C67.2127 146.63 67.0958 145.094 66.9665 143.561C66.8721 142.45 67.3203 142.027 67.9948 142.226ZM68.4083 144.057C68.3919 144.293 68.3719 144.465 68.3692 144.638C68.3504 146.071 68.3236 147.504 68.3229 148.938C68.3225 149.666 68.0947 150.668 68.4715 151.05C68.9052 151.489 69.8905 151.446 70.6447 151.493C73.1919 151.654 75.7413 151.774 78.2913 151.868C78.4748 151.875 78.7604 151.594 78.8455 151.384C79.471 149.841 79.3578 148.223 79.259 146.612C79.1751 145.241 79.0128 145.152 77.6337 145.085C75.8264 144.996 74.0199 144.852 72.2206 144.659C70.9584 144.525 69.7084 144.267 68.4083 144.057Z" fill="#222222"/>
<path d="M6.24895 172.934C4.08961 172.429 3.66696 171.953 3.79216 170.178C4.10354 165.765 4.47047 161.355 4.82783 156.945C4.86721 156.458 4.95127 155.966 5.0867 155.496C5.14358 155.3 5.38839 155.159 5.54786 154.992C5.68598 155.174 5.93906 155.352 5.94408 155.538C5.98547 156.941 6.038 158.348 5.97492 159.748C5.8352 162.846 5.60347 165.94 5.46375 169.037C5.40161 170.418 5.95621 170.996 7.33884 171.131C8.33931 171.23 9.34787 171.246 10.3515 171.327C10.7047 171.355 11.0651 171.428 11.3984 171.547C11.8402 171.705 12.2341 171.991 12.1439 172.526C12.05 173.08 11.6307 173.373 11.0821 173.37C10.2565 173.365 9.42761 173.337 8.60593 173.256C7.67357 173.166 6.74648 173.005 6.24895 172.934Z" fill="#222222"/>
<path d="M64.4003 177.421C63.0464 177.139 62.6887 176.614 62.7803 175.228C62.9086 173.282 62.9701 171.333 63.0957 169.388C63.1377 168.745 63.2438 168.096 63.4067 167.472C63.6119 166.689 63.9485 166.517 64.7523 166.619C65.5736 166.725 66.4072 166.956 67.2163 166.893C68.8374 166.765 70.4603 166.546 72.0551 166.227C73.4083 165.957 73.5252 165.997 73.3495 167.344C73.0654 169.52 72.7827 171.698 72.5534 173.881C72.4841 174.539 72.5433 175.223 72.64 175.881C72.714 176.383 72.5857 176.71 72.1089 176.785C69.8373 177.144 67.5928 177.762 65.258 177.575C64.9702 177.552 64.686 177.474 64.4003 177.421ZM72.4264 167.567C69.8951 167.616 67.4395 167.656 64.9857 167.718C64.4604 167.731 64.2577 168.121 64.2339 168.59C64.1269 170.689 63.998 172.789 63.948 174.89C63.9233 175.927 64.3423 176.316 65.3866 176.462C67.2983 176.729 69.1584 176.566 70.9728 175.859C71.466 175.667 71.676 175.384 71.7217 174.882C71.8287 173.701 71.9698 172.522 72.0846 171.341C72.2067 170.077 72.3146 168.812 72.4264 167.567Z" fill="#222222"/>
<path d="M65.8387 152.902C66.5591 153.095 67.1714 153.225 67.7607 153.423C70.0301 154.189 72.328 154.231 74.6569 153.763C75.7442 153.544 75.8615 153.703 76.0018 154.785C76.409 157.938 75.8119 161.036 75.5702 164.154C75.534 164.62 75.376 164.872 74.8226 164.855C72.0731 164.767 69.3228 164.687 66.5723 164.679C65.8859 164.676 65.6235 164.439 65.6118 163.824C65.5995 163.198 65.6249 162.571 65.6275 161.945C65.6385 159.37 65.6398 156.795 65.6646 154.221C65.6664 153.812 65.769 153.403 65.8387 152.902ZM74.6719 162.172C74.7525 161.755 74.8534 161.339 74.9087 160.918C75.1368 159.191 75.5191 157.469 75.1403 155.716C74.9356 154.77 74.8141 154.678 73.8343 154.649C71.6887 154.583 69.5439 154.524 67.3992 154.435C66.7646 154.408 66.5461 154.727 66.5484 155.28C66.5569 157.831 66.5777 160.382 66.5853 162.933C66.5877 163.605 66.9386 163.818 67.5649 163.81C69.2874 163.787 71.0102 163.796 72.7334 163.79C74.3586 163.783 74.358 163.782 74.6719 162.172Z" fill="#222222"/>
<path d="M11.2663 163.387C11.1454 163.696 11.1273 163.883 11.0235 163.979C10.8192 164.166 10.5329 164.463 10.3466 164.421C10.1284 164.373 9.83938 164.017 9.82884 163.784C9.80118 163.163 9.90888 162.538 9.95789 161.913C10.1652 159.303 10.3428 156.691 10.5841 154.084C10.8518 151.186 11.1739 148.294 11.4774 145.399C11.775 142.56 11.4383 139.779 10.7255 137.031C10.597 136.534 10.4852 136.029 10.4213 135.522C10.4022 135.369 10.5686 135.192 10.6494 135.027C10.7845 135.123 10.9923 135.191 11.0421 135.32C11.4113 136.275 11.8989 137.217 12.0692 138.21C12.7118 141.961 12.7426 145.72 12.1313 149.497C11.5541 153.059 11.456 156.664 11.4656 160.272C11.4686 161.364 11.3294 162.457 11.2663 163.387Z" fill="#222222"/>
<path d="M61.6754 168.598C61.4831 170.315 61.2133 172.464 61.0106 174.619C60.8818 175.988 60.752 176.171 59.3793 176.297C59.0467 176.328 58.7092 176.348 58.3839 176.416C57.4414 176.614 57.0924 176.469 56.685 175.582C56.5105 175.201 56.3681 174.788 56.3048 174.376C55.9808 172.259 55.6706 170.14 55.3954 168.016C55.3284 167.497 55.3494 166.948 55.443 166.433C55.527 165.971 55.9309 165.829 56.3851 165.896C57.6591 166.084 58.933 166.275 60.2064 166.465C60.4271 166.498 60.6501 166.525 60.8677 166.573C62.0356 166.832 62.1416 167.017 61.6754 168.598ZM60.2931 170.479C60.3144 170.481 60.335 170.482 60.3564 170.483C60.4953 169.965 60.6171 169.442 60.7775 168.931C60.9519 168.374 60.7569 167.986 60.2316 167.834C59.4497 167.608 58.6524 167.423 57.8509 167.279C57.0559 167.138 56.8492 167.315 56.919 168.116C57.0999 170.185 57.3235 172.252 57.5275 174.32C57.5768 174.818 57.8669 175.072 58.3377 175.164C59.2017 175.334 59.5923 175.077 59.7363 174.182C59.9353 172.95 60.1083 171.714 60.2931 170.479Z" fill="#222222"/>
<path d="M77.6157 64.353C77.795 64.2028 78.0281 64.0079 78.261 63.8138C78.4104 64.0738 78.6975 64.3394 78.6875 64.5941C78.6117 66.603 78.5115 68.6123 78.357 70.6166C77.7894 77.9814 77.1969 85.3448 76.6165 92.7088C76.4144 95.2767 76.2117 97.8437 76.0267 100.413C75.9822 101.036 76.0676 101.675 75.9745 102.288C75.9221 102.633 75.5936 103.233 75.4486 103.216C74.8789 103.148 74.8967 102.624 74.944 102.162C75.179 99.8675 75.4538 97.5763 75.6479 95.2783C76.1382 89.4577 76.6055 83.6353 77.0549 77.8116C77.2765 74.9375 77.4659 72.0601 77.6149 69.1806C77.6777 67.9794 77.5964 66.7709 77.5874 65.5652C77.5852 65.2099 77.6042 64.8533 77.6157 64.353Z" fill="#222222"/>
<path d="M21.9913 167.569C21.776 167.944 21.5775 168.464 21.2247 168.84C21.0108 169.067 20.4949 169.234 20.2314 169.13C19.9332 169.013 19.6724 168.591 19.571 168.249C19.4866 167.964 19.5847 167.568 19.7248 167.282C20.9146 164.848 21.4367 162.266 21.4827 159.574C21.5374 156.355 21.5828 153.136 21.6626 149.918C21.6687 149.668 21.9137 149.425 22.0477 149.179C22.2383 149.389 22.5804 149.588 22.5951 149.81C22.7034 151.521 22.8523 153.24 22.79 154.949C22.6678 158.295 22.4215 161.638 22.2159 164.982C22.1646 165.803 22.0747 166.622 21.9913 167.569Z" fill="#222222"/>
<path d="M83.3023 89.5179C83.0733 91.3327 82.8403 93.1465 82.6164 94.9618C82.2394 98.0202 81.8734 101.08 81.4939 104.138C81.2265 106.287 80.9874 108.442 80.6458 110.58C80.5217 111.358 80.1935 112.122 79.8395 112.833C79.7174 113.077 79.2331 113.142 78.9146 113.289C78.7818 112.964 78.502 112.616 78.5477 112.319C78.6261 111.802 78.8602 111.292 79.1089 110.822C80.2145 108.727 80.4601 106.431 80.7074 104.136C81.2033 99.531 81.6647 94.9216 82.1895 90.3187C82.2945 89.3948 82.5757 88.4816 82.8661 87.5927C82.9496 87.336 83.3475 87.1817 83.6014 86.9803C83.6986 87.2923 83.9046 87.6171 83.8711 87.9141C83.8081 88.4641 83.605 88.9982 83.4602 89.5385C83.4071 89.5321 83.3543 89.5249 83.3023 89.5179Z" fill="#222222"/>
<path d="M74.8233 169.187C75.5998 169.394 75.7763 169.661 75.6851 170.439C75.4607 172.351 75.2187 174.259 74.9951 176.171C74.8858 177.104 74.7927 178.039 74.7089 178.975C74.6356 179.787 74.319 180.128 73.4979 180.048C71.3421 179.839 69.1902 179.582 67.0375 179.338C66.5716 179.285 66.1091 179.208 65.6451 179.142C65.2884 179.09 64.8192 179.057 64.9348 178.58C64.981 178.388 65.4956 178.181 65.7838 178.199C67.1865 178.289 68.5835 178.455 69.9831 178.589C70.7851 178.666 71.5857 178.754 72.3894 178.799C73.2583 178.846 73.6128 178.581 73.7211 177.739C74.0402 175.254 74.3233 172.763 74.6279 170.276C74.6723 169.913 74.7562 169.554 74.8233 169.187Z" fill="#222222"/>
<path d="M87.3682 61.3598C88.7641 61.4816 90.158 61.6595 91.5558 61.7062C92.5875 61.7401 92.72 61.859 92.6159 62.8605C92.3406 65.5071 92.1193 68.1595 91.8777 70.81C91.8637 70.9662 91.9183 71.1582 91.8459 71.2726C91.6757 71.5444 91.4477 71.7789 91.2426 72.0282C91.0632 71.7828 90.7247 71.5339 90.7308 71.2938C90.7667 69.7516 90.8933 68.2118 90.9595 66.6699C90.9962 65.8225 91.0367 64.9674 90.9606 64.1254C90.8741 63.1728 90.658 63.0028 89.727 62.8203C88.3218 62.5447 86.9137 62.2804 85.5072 62.0096C85.3096 61.9715 85.0726 61.9767 84.9286 61.8651C84.7261 61.7091 84.5929 61.463 84.4304 61.2551C84.6459 61.0999 84.8691 60.8023 85.0755 60.8142C85.8524 60.858 86.6233 61.0019 87.3964 61.1082C87.3861 61.1924 87.3767 61.276 87.3682 61.3598Z" fill="#222222"/>
<path d="M67.7571 104.151C67.6756 104.406 67.6406 104.692 67.4985 104.908C67.3734 105.099 67.1287 105.211 66.9364 105.357C66.8177 105.145 66.5871 104.925 66.6004 104.72C66.6714 103.608 66.7989 102.499 66.9153 101.39C67.2274 98.4114 67.5403 95.4332 67.86 92.4559C67.9068 92.0181 67.77 91.3216 68.4385 91.3937C69.0959 91.4647 68.9056 92.1066 68.8527 92.5993C68.5965 94.9798 68.3436 97.3611 68.1246 99.7455C67.9901 101.211 67.9169 102.681 67.8164 104.15C67.797 104.151 67.7771 104.151 67.7571 104.151Z" fill="#222222"/>
<path d="M24.5363 133.539C24.6823 133.423 24.921 133.233 25.1587 133.043C25.3126 133.306 25.6112 133.577 25.5965 133.83C25.5169 135.162 25.3405 136.489 25.2299 137.82C25.0975 139.417 25.0152 141.019 24.8699 142.615C24.8314 143.038 24.9351 143.719 24.2661 143.691C23.6369 143.664 23.6817 143.023 23.7126 142.577C23.8141 141.134 23.9677 139.694 24.0999 138.253C24.2205 136.943 24.3396 135.633 24.4594 134.323C24.4772 134.123 24.4985 133.924 24.5363 133.539Z" fill="#222222"/>
<path d="M84.4871 66.2093C84.6802 66.0307 84.9252 65.8042 85.1702 65.5777C85.3737 65.8339 85.6685 66.0607 85.7624 66.3528C86.1336 67.5016 85.823 68.6478 85.6701 69.7961C85.4333 71.5654 85.2378 73.3397 85.0188 75.1111C84.981 75.4209 84.9417 75.7364 84.8487 76.0314C84.8069 76.1645 84.6204 76.351 84.5171 76.3407C84.3825 76.3273 84.1927 76.1625 84.1551 76.0273C84.0849 75.7763 84.0462 75.486 84.1003 75.2353C84.6388 72.7392 84.5395 70.2157 84.4656 67.6911C84.4521 67.245 84.477 66.7987 84.4871 66.2093Z" fill="#222222"/>
<path d="M23.7807 144.827C23.9175 144.181 24.3359 144.161 24.7429 144.235C25.2395 144.325 25.5734 144.896 25.4314 145.377C25.2947 145.839 24.9932 146.108 24.4737 145.986C23.9102 145.853 23.6412 145.335 23.7807 144.827Z" fill="#222222"/>
<path d="M85.0784 80.6741C85.5821 80.4526 85.9436 80.1678 86.098 80.2535C86.3673 80.4039 86.5084 80.7825 86.7031 81.065C86.4354 81.2429 86.1341 81.5951 85.9083 81.552C85.65 81.5036 85.4585 81.102 85.0784 80.6741Z" fill="#222222"/>
<path d="M21.3813 144.21C21.0801 144.312 20.7696 144.516 20.4802 144.49C20.0618 144.452 19.8952 144.097 20.0131 143.686C20.13 143.279 20.4613 143.058 20.8347 143.229C21.0959 143.347 21.2575 143.685 21.4643 143.926C21.4364 144.02 21.4083 144.115 21.3813 144.21Z" fill="#222222"/>
<path d="M81.8719 81.0076C81.7064 80.6486 81.4876 80.3813 81.5503 80.2607C81.6453 80.0784 81.9337 79.914 82.1453 79.9063C82.2645 79.9026 82.5287 80.2699 82.4892 80.3975C82.4288 80.597 82.166 80.7343 81.8719 81.0076Z" fill="#222222"/>
<path d="M138.059 114.379C138.69 112.023 139.304 109.661 139.964 107.313C140.151 106.651 140.456 106.019 140.742 105.388C140.808 105.242 141.011 105.158 141.152 105.045C141.246 105.205 141.436 105.377 141.417 105.522C141.304 106.408 141.206 107.304 140.987 108.167C140.337 110.728 139.614 113.271 138.958 115.83C138.424 117.911 137.965 120.011 137.428 122.091C137.313 122.538 137.324 123.353 136.659 123.217C135.942 123.071 136.266 122.324 136.363 121.839C136.863 119.337 137.4 116.842 137.923 114.345C137.967 114.356 138.013 114.368 138.059 114.379Z" fill="#222222"/>
<path d="M176.673 139.887C176.659 139.764 176.611 139.633 176.637 139.52C176.966 138.066 177.278 136.608 177.649 135.166C178.478 131.934 179.361 128.717 180.178 125.481C180.726 123.311 181.197 121.121 181.705 118.941C181.761 118.701 181.831 118.464 181.911 118.231C182.048 117.825 182.185 117.333 182.736 117.454C183.281 117.574 183.423 118.068 183.363 118.569C183.324 118.896 183.187 119.212 183.082 119.529C182.687 120.711 182.241 121.878 181.898 123.075C180.974 126.301 180.109 129.543 179.191 132.77C178.811 134.105 178.354 135.417 177.928 136.737C177.653 137.586 177.375 138.434 177.086 139.278C177.01 139.5 176.89 139.705 176.789 139.918C176.751 139.907 176.712 139.897 176.673 139.887Z" fill="#222222"/>
<path d="M113.435 104.967C113.916 103.17 114.398 101.374 114.88 99.5774C114.915 99.4476 114.919 99.2854 115.002 99.1979C115.166 99.0237 115.375 98.8901 115.564 98.7401C115.64 98.9516 115.806 99.1787 115.775 99.3729C115.591 100.498 115.409 101.628 115.137 102.735C114.369 105.867 113.572 108.993 112.756 112.114C112.49 113.131 112.15 114.131 111.802 115.124C111.72 115.356 111.471 115.528 111.298 115.727C111.226 115.453 111.049 115.159 111.097 114.908C111.391 113.368 111.701 111.829 112.073 110.307C112.51 108.522 113.016 106.756 113.491 104.981C113.472 104.977 113.454 104.972 113.435 104.967Z" fill="#222222"/>
<path d="M105.797 95.8291C105.798 96.2546 105.878 96.6968 105.79 97.1019C105.092 100.319 104.363 103.531 103.638 106.743C103.49 107.399 103.346 108.058 103.146 108.698C103.082 108.905 102.846 109.059 102.688 109.238C102.606 109.016 102.424 108.778 102.456 108.573C102.675 107.203 102.905 105.833 103.194 104.476C103.745 101.89 104.329 99.3116 104.927 96.7366C105.008 96.3837 105.25 96.0686 105.417 95.7361C105.544 95.7674 105.67 95.7986 105.797 95.8291Z" fill="#222222"/>
<path d="M172.2 159.04C171.715 157.927 174.687 145.624 175.502 144.808C175.491 145.222 175.537 145.553 175.467 145.858C174.511 149.999 173.543 154.137 172.564 158.272C172.499 158.541 172.324 158.784 172.2 159.04Z" fill="#222222"/>
<path d="M161.665 115.969C162.058 114.756 162.44 113.54 162.855 112.335C162.911 112.171 163.134 112.066 163.279 111.935C163.368 112.115 163.555 112.313 163.528 112.472C163.286 113.834 163.038 115.198 162.724 116.545C162.536 117.348 162.229 118.124 161.971 118.911C161.922 119.06 161.893 119.243 161.79 119.339C161.614 119.503 161.385 119.611 161.179 119.742C161.093 119.508 160.897 119.249 160.943 119.045C161.174 118.02 161.468 117.009 161.741 115.993C161.716 115.984 161.691 115.977 161.665 115.969Z" fill="#222222"/>
<path d="M97.6483 99.5266C97.3873 100.501 97.1376 101.478 96.8554 102.447C96.802 102.63 96.6233 102.777 96.5022 102.941C96.4135 102.736 96.2267 102.518 96.2515 102.328C96.3699 101.419 96.4957 100.505 96.7123 99.6157C97.0612 98.1808 97.473 96.761 97.8876 95.3436C97.9356 95.1808 98.1668 95.0707 98.3131 94.9368C98.3971 95.1358 98.5821 95.3541 98.5488 95.5303C98.2976 96.8732 98.0036 98.2072 97.7226 99.5447C97.698 99.539 97.6727 99.5331 97.6483 99.5266Z" fill="#222222"/>
<path d="M31.0481 101.614C31.9924 101.15 33.0067 100.788 33.8645 100.199C35.7646 98.8932 37.5786 97.4614 39.444 96.1041C40.8361 95.0912 42.2096 94.0412 43.6708 93.1373C46.3586 91.4753 49.1706 90.0082 51.8141 88.2812C55.8035 85.6751 59.8918 83.2902 64.3515 81.5735C65.5855 81.099 65.8198 80.3445 65.0789 79.2645C63.3247 76.7062 62.2244 73.8327 61.0666 70.9925C59.0868 66.135 57.3034 61.1937 55.2042 56.3894C51.928 48.8911 48.5814 41.4313 46.0733 33.6232C44.7052 29.3644 43.5711 25.076 43.2341 20.6004C43.2009 20.1595 43.0885 19.7129 42.9427 19.293C42.3717 17.6473 41.3049 17.3484 39.8888 18.3792C38.8939 19.1037 37.9444 19.957 36.8402 20.4531C33.1237 22.1256 29.4114 23.847 25.5717 25.1935C22.6926 26.2035 19.9605 27.4146 17.3254 28.9221C14.3881 30.6034 11.4046 32.201 8.05126 32.9431C7.28955 33.112 6.5376 33.3418 5.80028 33.5981C3.12641 34.5301 0.543258 35.7498 -2.30351 36.133C-2.49749 36.1592 -2.71219 36.2304 -2.86149 36.3495C-3.13057 36.5652 -3.35633 36.8333 -3.6564 37.1355C-3.50353 37.6033 -3.42069 38.0437 -3.22504 38.4265C-1.81676 41.179 -0.379093 43.9159 1.03536 46.6649C2.06061 48.6567 3.05567 50.6638 4.08011 52.6554C5.88458 56.1618 7.73239 59.6459 9.50276 63.1692C10.4884 65.1304 11.3286 67.1638 12.2786 69.1442C13.3344 71.3432 14.4611 73.5082 15.5197 75.7063C17.5829 79.9862 19.5305 84.3247 21.6948 88.5518C23.6768 92.4213 25.8693 96.1829 28.0039 99.9725C28.2815 100.465 28.7568 100.849 29.1539 101.272C29.6975 101.849 30.3338 101.966 31.0481 101.614ZM35.1933 23.6495C35.257 23.5222 35.3702 23.4143 35.543 23.3537C36.7544 22.928 37.9446 22.1401 38.8789 21.2619C39.4786 20.6984 40.2562 19.7304 41.1863 20.2117C42.0795 20.6745 42.1898 21.9177 42.2581 22.7985C42.2964 23.2982 42.3093 23.8016 42.368 24.2998C42.4295 24.8197 42.591 25.3298 42.7339 25.8315C43.0625 26.9837 43.4457 28.1688 43.4272 29.3801C43.4189 29.9204 42.8081 30.2402 42.3788 29.8791C40.1371 27.9944 37.7989 26.2299 35.3284 24.6542C34.9099 24.3891 34.9213 23.9087 35.1933 23.6495ZM22.8218 88.0904C21.664 85.8892 20.4951 83.6938 19.3365 81.4924C16.5307 76.158 14.272 70.5763 11.8547 65.0643C10.6869 62.4006 9.29756 59.8305 7.93743 57.2552C6.23238 54.0267 4.40711 50.8607 2.72448 47.62C1.73624 45.7172 0.944064 43.7123 0.0210013 41.774C-0.294421 41.1113 -0.740673 40.5118 -1.12387 39.8814C-1.37899 39.461 -1.66549 39.0538 -1.87275 38.6106C-2.27725 37.7449 -2.06306 37.3285 -1.12203 37.0972C-0.775693 37.0118 -0.407451 37.0166 -0.0625135 36.9299C1.05824 36.6476 2.19738 36.4103 3.28617 36.03C5.12542 35.3865 6.90257 34.5594 8.75686 33.9668C12.3501 32.8195 15.7058 31.1894 18.9138 29.2373C21.0905 27.9121 23.369 26.8464 25.8236 26.1356C27.0687 25.7754 28.3031 25.335 29.482 24.7971C30.8275 24.1821 32.0912 24.2459 33.3399 24.943C37.2217 27.1089 40.9586 29.4812 43.8752 32.9126C44.5019 33.65 45.0812 34.4929 45.4376 35.3856C47.4311 40.3798 49.0701 45.5354 51.3634 50.3847C54.3673 56.7381 56.9888 63.2342 59.5983 69.7454C60.7394 72.5932 61.9936 75.3949 63.1931 78.2193C63.411 78.7332 63.6094 79.255 63.842 79.8373C63.2733 80.2431 62.7636 80.6916 62.1819 81.0096C57.3391 83.6531 52.5887 86.4518 47.9713 89.4739C47.4283 89.8292 46.8756 90.1853 46.2893 90.4586C43.1798 91.9068 40.3411 93.7719 37.718 95.9711C37.3153 96.3093 36.9878 96.3241 36.5216 96.0879C32.7633 94.1846 29.0034 92.2844 25.2171 90.437C24.1287 89.9072 23.3699 89.1309 22.8218 88.0904ZM29.5584 99.9795C28.1339 97.4208 26.78 94.822 25.4015 92.2374C25.3725 92.1836 25.3778 92.1119 25.3568 91.9924C28.8973 93.7122 32.3964 95.4113 36.047 97.184C35.4024 97.7433 34.9606 98.1849 34.4603 98.5464C33.5719 99.1882 32.6607 99.8013 31.7347 100.389C30.9332 100.897 29.9984 100.771 29.5584 99.9795Z" fill="#222222"/>
<path d="M42.4817 80.3975C42.2786 81.0708 41.9566 81.1662 41.6215 80.7617C41.355 80.439 41.1256 80.0654 40.9638 79.6796C36.9926 70.2127 32.6202 60.9288 28.2373 51.6482C27.0242 49.0792 26.0527 46.3968 24.9747 43.7649C24.4397 42.4583 23.9133 41.1488 23.385 39.8396C23.3097 39.6534 23.1936 39.4606 23.1964 39.2718C23.1991 39.0995 23.2955 38.8532 23.4277 38.7817C23.5385 38.7218 23.8113 38.8201 23.9206 38.9346C24.1003 39.1236 24.2549 39.3676 24.3363 39.6155C26.5229 46.2871 29.8348 52.4648 32.7408 58.8207C34.5021 62.6728 36.1584 66.5733 37.9185 70.4269C39.3055 73.4633 40.7819 76.4583 42.2044 79.479C42.3605 79.8112 42.4196 80.1878 42.4817 80.3975Z" fill="#222222"/>
</g>
</svg>
