<svg width="472" height="459" viewBox="0 0 472 459" fill="none" xmlns="http://www.w3.org/2000/svg">
<g opacity="0.8">
<path d="M244.021 118.965C247.811 119.803 251.473 120.565 255.112 121.424C261.9 123.026 268.711 124.549 275.441 126.372C278.971 127.329 282.344 128.858 285.794 130.112C288.285 131.017 290.759 131.981 293.289 132.767C299.299 134.635 305.309 136.511 311.373 138.194C316.417 139.595 321.51 140.848 326.629 141.949C337.919 144.378 349 147.569 360.048 150.887C370.281 153.961 380.494 157.096 390.715 160.203C395.821 161.755 400.876 163.51 406.046 164.802C412.143 166.325 418.316 167.582 424.502 168.704C431.195 169.918 437.939 170.845 444.662 171.89C446.398 172.16 446.906 172.891 446.532 174.665C445.203 180.957 443.932 187.262 442.527 193.536C441.368 198.71 439.955 203.829 438.827 209.008C437.836 213.557 437.143 218.168 436.213 222.731C435.304 227.193 434.317 231.64 433.262 236.07C431.897 241.794 430.36 247.478 429.028 253.21C427.746 258.727 425.916 264.063 424.022 269.385C423.498 270.86 422.922 272.326 422.544 273.839C420.159 283.377 417.794 292.922 415.513 302.486C415.277 303.478 415.474 304.666 415.77 305.675C416.6 308.508 416.207 309.888 413.771 311.516C412.758 312.193 412.332 313.178 412.046 314.298C410.195 321.551 408.335 328.802 406.462 336.049C405.551 339.571 404.607 343.082 403.674 346.597C403.309 347.969 402.482 348.376 400.928 348.071C398.461 347.587 395.994 347.096 393.51 346.713C390.592 346.262 387.657 345.903 384.726 345.544C382.871 345.316 381.009 345.135 379.146 344.977C377.679 344.851 376.526 345.47 375.557 346.559C374.772 347.442 373.916 348.264 373.07 349.091C370.104 351.992 366.99 354.756 364.184 357.802C355.613 367.105 346.363 375.676 336.598 383.696C332.078 387.409 327.394 390.921 322.827 394.577C315.39 400.529 308.025 406.569 300.561 412.486C294.879 416.989 289.196 421.481 284.051 426.609C282.678 427.977 281.346 429.385 279.985 430.766C278.78 431.987 278.026 432.076 276.709 431.045C271.865 427.253 267.079 423.384 262.2 419.639C247.619 408.446 234.703 395.422 221.439 382.774C215.853 377.447 209.905 372.491 204.436 367.05C191.926 354.595 179.535 342.019 167.24 329.35C158.678 320.528 149.636 312.234 140.5 304.025C136.279 300.231 132.285 296.184 128.172 292.268C126.35 290.535 124.546 288.776 122.634 287.145C116.579 281.981 110.401 276.957 104.433 271.696C102.289 269.806 99.9454 269.365 97.3165 269.329C96.3004 269.315 95.2754 269.235 94.2722 269.075C92.9136 268.857 92.1498 267.916 92.4779 266.603C94.4332 258.774 94.111 250.725 94.8571 242.78C97.0374 219.586 99.0906 196.379 101.249 173.182C102.009 165.021 103.207 156.893 103.706 148.72C104.295 139.051 104.318 129.349 104.638 119.662C104.863 112.83 105.214 106.001 105.402 99.1689C105.434 97.9994 105.158 96.7035 104.642 95.6537C99.7933 85.792 94.8211 75.9923 89.9707 66.1315C87.4803 61.0681 85.127 55.936 82.7896 50.7989C82.0297 49.1295 82.6238 48.5617 84.4829 48.3739C86.456 48.1743 88.4803 47.9119 90.3415 47.268C98.9955 44.2726 107.306 40.4358 115.674 36.7357C118.562 35.4594 121.606 34.5374 124.533 33.3412C128.274 31.8118 131.992 30.2168 135.679 28.5623C142.754 25.3903 149.789 22.1327 156.869 18.9702C158.035 18.4488 159.325 18.1808 160.58 17.8851C162.253 17.4891 163.075 17.8915 163.718 19.4848C164.482 21.3768 165.17 23.3 165.842 25.227C170.758 39.3285 175.665 53.4342 180.566 67.5411C181.012 68.8256 181.461 70.116 181.794 71.4336C182.108 72.6747 182.81 73.2192 184.079 73.3308C193.497 74.1603 202.912 75.03 212.328 75.892C223.167 76.8833 234.013 77.7959 244.839 78.9168C248.705 79.317 248.614 79.7213 248.308 82.9747C247.89 87.4342 247.389 91.9189 246.449 96.2899C245.124 102.445 244.405 108.627 244.307 114.903C244.284 116.223 244.123 117.54 244.021 118.965ZM226.386 229.348C226.497 229.384 226.61 229.421 226.721 229.459C226.965 229.237 227.252 229.044 227.448 228.785C229.312 226.329 231.179 223.875 233.002 221.389C233.703 220.436 234.262 219.378 234.957 218.421C235.128 218.187 235.614 218.024 235.899 218.086C236.092 218.127 236.341 218.643 236.299 218.903C236.182 219.626 236.059 220.402 235.704 221.025C233.515 224.883 230.272 227.866 227.289 231.069C226.666 231.737 226.149 232.56 225.792 233.4C225.495 234.099 225.478 234.924 225.383 235.699C224.626 241.836 223.873 247.972 223.138 254.111C222.805 256.902 222.503 259.696 222.208 262.491C221.839 265.99 221.234 269.489 221.209 272.992C221.181 276.629 220.488 279.906 218.346 282.871C217.442 284.123 217.169 284.311 215.634 284.013C211.96 283.298 208.302 282.483 204.609 281.892C199.842 281.13 195.047 280.541 190.263 279.893C188.041 279.592 185.815 279.322 183.589 279.055C182.781 278.959 182.186 279.249 181.708 279.975C181.054 280.965 180.324 281.917 179.53 282.798C174.687 288.176 169.826 293.539 164.943 298.88C164.075 299.829 163.094 300.681 162.123 301.529C161.647 301.945 161.035 302.058 160.585 301.493C160.099 300.884 160.379 300.354 160.934 299.924C161.741 299.3 162.629 298.754 163.332 298.03C165.34 295.962 167.303 293.85 169.227 291.703C172.287 288.286 175.32 284.843 178.322 281.374C178.966 280.629 179.432 279.732 180.065 278.777C178.943 278.476 178.111 278.142 177.253 278.042C172.624 277.509 167.987 277.054 163.358 276.52C162.64 276.437 162.254 276.64 161.841 277.198C158.946 281.115 155.784 284.793 151.994 287.887C151.573 288.23 151.116 288.892 150.534 288.289C149.98 287.716 150.6 287.25 150.937 286.806C151.04 286.671 151.162 286.552 151.28 286.429C152.913 284.703 154.616 283.038 156.159 281.235C157.419 279.761 158.486 278.123 159.759 276.395C158.881 276.274 158.282 276.177 157.68 276.112C154.098 275.726 150.517 275.319 146.927 274.997C146.429 274.952 145.765 275.207 145.394 275.555C144.33 276.549 143.417 277.703 142.372 278.719C140.793 280.254 139.17 281.745 137.524 283.206C137.114 283.57 136.507 283.983 135.991 283.384C135.474 282.782 135.994 282.316 136.399 281.906C137.233 281.058 138.121 280.262 138.924 279.386C140.217 277.97 141.459 276.506 142.723 275.062C142.673 274.909 142.625 274.755 142.575 274.602C130.504 272.35 118.337 270.916 106.029 270.527C106.169 270.875 106.337 271.079 106.536 271.247C111.141 275.124 115.772 278.968 120.346 282.878C123.11 285.242 125.842 287.651 128.49 290.142C132.699 294.103 136.803 298.176 140.994 302.156C149.677 310.398 158.453 318.542 167.063 326.859C172.025 331.654 176.722 336.724 181.569 341.639C183.622 343.722 185.779 345.704 187.846 347.772C195.61 355.544 203.312 363.379 211.126 371.098C216.179 376.089 221.603 380.681 226.701 385.639C235.649 394.337 244.961 402.663 254.167 411.095C255.688 412.489 257.427 413.647 259.085 414.887C260.745 416.129 262.453 417.308 264.098 418.567C268.496 421.931 272.874 425.324 277.259 428.708C277.975 429.26 278.608 429.194 279.239 428.541C281.131 426.586 283.011 424.617 284.956 422.715C286.46 421.243 288.006 419.804 289.622 418.457C291.477 416.912 293.447 415.507 295.336 414.002C305.182 406.16 314.973 398.247 324.871 390.471C336.088 381.658 347.26 372.774 357.06 362.379C365.212 353.733 374.023 345.779 382.437 337.413C390.442 329.452 398.809 321.853 406.412 313.486C407.739 312.027 409.046 310.556 410.83 309.601C411.355 309.319 411.786 308.84 412.218 308.409C414.189 306.448 414.202 306.252 412.344 304.19C408.831 300.288 405.039 296.683 400.908 293.439C395.105 288.88 389.345 284.265 383.478 279.79C378.18 275.751 372.664 271.992 367.427 267.877C363.19 264.548 359.211 260.89 355.139 257.352C346.054 249.454 336.947 241.597 327.491 234.126C311.8 221.731 296.441 208.918 280.883 196.353C268.186 186.098 255.133 176.282 242.805 165.569C241.254 164.222 239.472 163.143 237.646 161.831C237.428 162.409 237.226 162.793 237.142 163.201C236.984 163.966 236.908 164.748 236.777 165.519C235.259 174.371 233.726 183.221 232.232 192.077C232.081 192.972 232.157 193.904 232.127 194.818C232.627 194.641 232.86 194.446 233.052 194.216C236.08 190.597 239.097 186.968 242.132 183.354C242.783 182.578 243.47 181.826 244.193 181.116C244.353 180.96 244.768 180.947 245.004 181.034C245.117 181.075 245.197 181.554 245.106 181.747C244.678 182.66 244.321 183.657 243.693 184.42C239.837 189.099 235.96 193.762 231.973 198.327C231.189 199.225 230.822 200.115 230.707 201.197C230.432 203.764 230.332 206.36 229.9 208.902C228.899 214.768 227.73 220.607 226.661 226.462C226.487 227.406 226.473 228.384 226.386 229.348ZM183.544 75.7722C183.692 76.5373 183.715 77.0224 183.88 77.4533C186.312 83.8044 188.587 90.2243 191.251 96.4767C194.758 104.704 198.589 112.795 202.243 120.961C202.639 121.849 202.891 122.83 203.034 123.795C203.219 125.053 202.626 126.145 201.387 126.3C200.892 126.362 200.412 126.748 199.974 127.058C192.471 132.373 184.775 137.381 176.609 141.631C171.662 144.207 166.66 146.681 161.766 149.355C157.858 151.491 154.069 153.842 150.247 156.13C147.508 157.769 144.842 159.531 142.068 161.107C140.383 162.065 139.114 161.768 137.994 160.169C136.261 157.695 134.588 155.17 133.056 152.568C130.815 148.758 128.72 144.861 126.565 141C125.273 138.685 123.862 136.428 122.717 134.044C117.832 123.861 113.028 113.639 108.191 103.434C108.008 103.048 107.793 102.678 107.593 102.301C107.504 102.309 107.416 102.317 107.327 102.325C107.185 103.08 106.953 103.83 106.918 104.589C106.694 109.582 106.348 114.577 106.353 119.573C106.364 129.606 106.337 139.635 105.372 149.633C104.365 160.058 103.29 170.476 102.268 180.9C101.306 190.715 100.372 200.533 99.4305 210.349C98.8434 216.475 98.21 222.596 97.7043 228.727C97.3382 233.166 97.3167 237.638 96.8411 242.062C95.9888 249.985 95.6585 257.928 95.4258 265.882C95.4089 266.482 95.33 266.964 96.214 267.062C100.742 267.564 105.26 268.153 109.785 268.68C119.987 269.868 130.194 271.008 140.392 272.228C145.422 272.829 150.427 273.664 155.463 274.204C159.72 274.658 164.044 274.582 168.275 275.187C183.353 277.34 198.572 278.542 213.487 281.804C214.971 282.129 216.014 281.589 216.843 280.485C217.265 279.924 217.669 279.283 217.844 278.615C218.222 277.175 218.619 275.705 218.703 274.23C219.058 268.024 219.54 261.842 220.603 255.703C221.741 249.137 222.72 242.542 223.71 235.95C225.242 225.759 226.64 215.546 228.245 205.366C230.581 190.559 233.057 175.776 235.456 160.979C236.303 155.754 237.127 150.525 237.91 145.29C238.919 138.533 239.869 131.768 240.858 125.009C241.295 122.02 241.843 119.045 242.192 116.046C242.475 113.627 242.383 111.159 242.727 108.752C243.569 102.872 244.623 97.0224 245.476 91.1436C245.824 88.7367 245.881 86.2863 246.049 83.8548C246.124 82.7627 245.509 82.0018 244.599 81.5982C243.553 81.1333 242.447 80.6668 241.328 80.5305C235.387 79.8092 229.442 79.1054 223.481 78.5637C219.013 78.1581 214.517 78.0775 210.044 77.7259C202.686 77.149 195.339 76.4535 187.984 75.8469C186.581 75.7309 185.161 75.7939 183.544 75.7722ZM358.598 174.121C359.72 174.593 359.813 175.385 359.694 176.081C359.243 178.72 358.767 181.361 358.155 183.966C357.705 185.881 356.985 187.732 356.461 189.631C355.07 194.682 353.704 199.74 352.363 204.804C351.78 207.006 351.218 209.218 350.758 211.447C349.838 215.908 349.11 220.411 348.089 224.848C346.653 231.081 344.854 237.216 342.397 243.139C342.14 243.759 342.239 244.152 342.778 244.617C346.177 247.551 349.488 250.587 352.922 253.478C356.369 256.379 359.926 259.151 363.437 261.977C363.623 262.125 363.81 262.273 364.008 262.404C365.209 263.201 365.473 263.034 365.722 261.598C366.154 259.087 366.541 256.557 367.177 254.094C369.093 246.688 371.437 239.406 373.241 231.957C376.433 218.761 381.044 205.977 385.299 193.094C386.193 190.387 386.828 187.593 387.637 184.855C388.041 183.493 388.535 182.153 389.069 180.837C389.179 180.566 389.647 180.439 389.95 180.246C390.045 180.591 390.294 180.978 390.212 181.273C389.703 183.102 389.103 184.905 388.567 186.727C387.771 189.433 387.046 192.163 386.209 194.855C385.351 197.611 384.545 200.398 383.447 203.06C381.382 208.061 379.564 213.138 378.214 218.373C377.239 222.157 376.468 225.992 375.5 229.777C374.623 233.203 373.615 236.595 372.638 239.995C372 242.214 371.262 244.406 370.666 246.637C370.052 248.933 369.515 251.252 369.02 253.579C368.392 256.533 367.773 259.493 367.286 262.473C367.044 263.952 367.086 265.479 368.543 266.506C370.35 267.778 372.168 269.035 373.94 270.353C378.875 274.023 383.789 277.719 388.865 281.522C389.094 280.902 389.304 280.279 389.556 279.673C389.825 279.029 389.965 278.183 390.455 277.805C392.176 276.476 393.343 274.753 394.348 272.891C396.756 268.433 399.263 264.016 400.46 259.026C401.206 255.918 401.792 252.763 402.705 249.707C403.814 246 403.915 242.271 403.453 238.499C403.184 236.31 402.86 234.023 401.425 232.283C400.186 230.779 400.078 229.179 400.155 227.435C400.18 226.892 400.205 226.349 400.262 225.808C400.565 222.947 400.992 220.095 401.158 217.227C401.373 213.52 401.075 209.837 399.991 206.248C399.902 205.953 400.081 205.579 400.136 205.242C400.461 205.362 400.9 205.388 401.09 205.62C401.624 206.272 402.03 207.028 402.534 207.706C402.933 208.242 403.404 208.723 403.972 209.377C404.107 208.872 404.173 208.684 404.207 208.488C404.378 207.483 404.492 206.464 404.732 205.476C404.814 205.141 405.16 204.751 405.475 204.638C405.659 204.571 406.128 204.942 406.285 205.22C406.7 205.957 407.169 206.716 407.343 207.525C408.384 212.341 409.666 217.123 409.635 222.108C409.633 222.435 409.688 222.762 409.719 223.114C410.29 223.103 410.765 223.091 411.238 223.086C412.887 223.068 413.621 223.447 414.082 225C414.464 226.284 414.808 227.68 414.705 228.988C414.287 234.274 413.898 239.577 413.11 244.815C411.849 253.209 409.557 261.365 406.818 269.4C405.086 274.481 402.57 279.17 399.857 283.765C398.864 285.448 398.041 285.693 396.189 285.239C395.809 285.145 395.35 285.375 394.928 285.458C395.079 285.864 395.117 286.399 395.403 286.654C396.648 287.76 397.974 288.774 399.252 289.842C403.74 293.592 408.345 297.213 412.234 301.626C412.581 302.02 413.046 302.309 413.594 302.761C413.757 302.151 413.889 301.71 413.993 301.263C414.56 298.845 415.072 296.413 415.693 294.011C417.467 287.16 419.267 280.316 421.1 273.481C421.522 271.908 422.1 270.376 422.634 268.834C423.403 266.62 424.266 264.439 424.964 262.203C425.785 259.573 426.532 256.917 427.207 254.246C429.339 245.802 431.454 237.352 433.505 228.888C434.113 226.381 434.581 223.831 434.953 221.276C435.697 216.153 436.492 211.049 438.091 206.103C438.686 204.259 439.323 202.411 439.705 200.519C441.302 192.582 442.814 184.629 444.344 176.679C444.602 175.344 444.33 174.656 443.029 174.211C440.784 173.442 438.51 172.681 436.186 172.241C432.018 171.451 427.759 171.108 423.619 170.209C414.646 168.261 405.662 166.307 396.797 163.925C388.853 161.791 381.08 159.024 373.202 156.64C365.681 154.363 358.132 152.176 350.571 150.031C343.962 148.157 337.34 146.322 330.686 144.611C324.33 142.976 317.899 141.626 311.553 139.952C307.578 138.904 303.735 137.364 299.771 136.266C293.737 134.597 287.709 132.981 281.945 130.445C277.168 128.342 272.058 127.234 266.973 126.086C260.302 124.582 253.659 122.958 246.992 121.437C246.084 121.229 245.108 121.299 244.162 121.27C243.507 121.25 243.243 121.605 243.142 122.257C242.253 128.001 241.264 133.731 240.44 139.484C239.615 145.241 238.975 151.024 238.189 156.787C237.96 158.465 238.517 159.685 239.795 160.706C241.442 162.022 243.053 163.384 244.678 164.727C250.47 169.515 256.26 174.304 262.054 179.089C262.326 179.314 262.626 179.506 262.926 179.724C263.375 178.732 263.772 177.857 264.168 176.981C264.291 177.012 264.415 177.042 264.539 177.073C264.608 177.376 264.759 177.688 264.73 177.983C264.668 178.656 264.579 179.341 264.382 179.983C264.206 180.557 264.311 180.901 264.78 181.283C269.293 184.95 273.787 188.642 278.289 192.322C278.583 192.563 278.905 192.77 279.338 193.08C280.025 189.891 280.605 186.89 281.321 183.921C283.444 175.125 285.623 166.344 287.775 157.555C287.993 156.663 288.121 155.746 288.392 154.873C288.488 154.566 288.883 154.351 289.142 154.095C289.344 154.402 289.595 154.691 289.731 155.026C289.81 155.22 289.726 155.494 289.68 155.724C289.454 156.858 289.24 157.995 288.98 159.12C287.008 167.637 285.014 176.15 283.052 184.669C282.351 187.714 281.709 190.771 281.076 193.832C281.022 194.09 281.156 194.514 281.354 194.678C285.521 198.123 289.69 201.566 293.908 204.948C294.843 205.698 295.964 206.216 297.234 206.981C297.977 204.211 298.666 201.693 299.325 199.166C299.934 196.829 300.493 194.48 301.116 192.147C301.244 191.669 301.555 191.241 301.782 190.788C301.937 190.833 302.092 190.875 302.248 190.92C302.139 191.711 302.095 192.517 301.911 193.291C300.799 197.917 299.691 202.544 298.482 207.145C298.291 207.874 298.369 208.272 298.886 208.711C301.192 210.671 303.488 212.642 305.795 214.602C305.994 214.772 306.241 214.887 306.52 215.06C306.597 214.829 306.663 214.678 306.697 214.519C307.45 210.929 308.005 207.285 308.988 203.759C311.555 194.552 314.282 185.389 316.999 176.223C318.488 171.204 320.078 166.215 321.642 161.219C321.769 160.813 322.043 160.453 322.249 160.071C322.372 160.104 322.497 160.138 322.62 160.169C322.643 160.503 322.742 160.851 322.677 161.167C322.331 162.866 322.021 164.578 321.56 166.246C320.031 171.786 318.378 177.294 316.892 182.846C313.98 193.723 311.153 204.623 308.269 215.509C308.118 216.077 308.04 216.45 308.591 216.894C314.478 221.622 320.338 226.383 326.207 231.132C326.439 231.319 326.697 231.475 326.871 231.597C327.307 229.972 327.767 228.383 328.156 226.779C329.084 222.946 329.941 219.094 330.897 215.269C331.904 211.243 332.999 207.24 334.047 203.224C334.467 201.611 334.924 200.005 335.25 198.372C336.219 193.53 337.479 188.772 339.183 184.136C339.275 183.888 339.619 183.732 339.847 183.533C339.95 183.817 340.18 184.121 340.136 184.379C339.93 185.584 339.681 186.785 339.39 187.973C337.816 194.413 336.179 200.838 334.655 207.288C333.233 213.311 331.925 219.361 330.566 225.398C330.051 227.684 329.597 229.986 328.987 232.246C328.799 232.94 328.902 233.247 329.426 233.668C333.215 236.716 336.977 239.799 340.75 242.867C340.951 243.03 341.177 243.163 341.477 243.369C341.606 242.885 341.709 242.497 341.814 242.109C342.298 240.338 342.692 238.534 343.284 236.8C345.482 230.374 346.783 223.731 348.181 217.108C349.163 212.452 350.138 207.793 351.219 203.159C352.022 199.714 352.956 196.299 353.893 192.888C354.711 189.909 355.626 186.958 356.475 183.987C357.089 181.837 357.72 179.69 358.233 177.514C358.483 176.465 358.474 175.349 358.598 174.121ZM85.1708 51.5333C86.0828 53.787 86.8735 56.1388 87.9569 58.3487C92.1753 66.9636 96.5103 75.5227 100.757 84.1241C107.504 97.7876 114.314 111.421 120.91 125.156C125.61 134.943 130.492 144.626 135.908 154.034C136.643 155.31 137.652 156.443 138.624 157.564C139.392 158.448 140.455 158.582 141.523 158.176C142.409 157.838 143.278 157.434 144.108 156.977C152.032 152.61 159.935 148.206 167.867 143.855C172.309 141.418 176.862 139.178 181.247 136.644C187.728 132.899 194.056 128.899 199.974 124.289C201.251 123.293 201.279 123.302 200.637 121.767C199.954 120.136 199.284 118.498 198.6 116.868C197.299 113.763 196.202 110.549 194.643 107.58C191.71 101.995 189.148 96.2577 186.895 90.3767C183.823 82.3539 180.47 74.4485 178.03 66.1729C175.62 57.9977 172.653 49.986 169.851 41.93C167.493 35.1514 165.038 28.4073 162.59 21.6615C162.031 20.1185 161.084 19.7038 159.536 20.2324C158.123 20.7152 156.705 21.2033 155.348 21.8201C151.758 23.4518 148.218 25.1936 144.626 26.8222C138.961 29.3916 133.385 32.1445 127.417 34.0336C122.987 35.4364 118.647 37.1761 114.376 39.0212C108.663 41.488 103.096 44.2934 97.3901 46.778C93.501 48.4708 89.4799 49.8685 85.1708 51.5333ZM392.085 278.438C394.128 279.275 394.938 281.023 395.781 282.796C396.52 284.351 397.636 284.369 398.643 282.953C398.859 282.649 399.053 282.329 399.251 282.013C403.051 275.954 405.788 269.409 407.725 262.559C409.203 257.334 410.377 252.016 411.539 246.707C412.095 244.164 412.44 241.557 412.642 238.961C412.94 235.135 412.997 231.289 413.219 227.456C413.28 226.414 413.116 225.568 412.194 224.985C411.284 224.411 410.391 224.529 409.493 225.03C407.592 226.089 405.679 227.128 403.781 228.193C402.357 228.991 402.193 229.442 402.745 231.004C402.903 231.45 403.166 231.857 403.341 232.298C403.689 233.179 404.151 234.046 404.319 234.963C405.337 240.475 405.084 245.964 403.786 251.404C403.257 253.62 402.488 255.786 402.08 258.02C401.444 261.506 400.094 264.693 398.545 267.839C396.97 271.039 395.292 274.168 393.044 276.96C392.707 277.377 392.454 277.86 392.085 278.438ZM410.503 313.815C410.402 313.777 410.302 313.737 410.203 313.698C410.055 313.773 409.907 313.851 409.758 313.922C407.558 314.966 405.944 316.73 404.235 318.386C397.843 324.581 392.066 331.395 385.314 337.233C383.824 338.521 382.45 339.94 381.027 341.306C380.791 341.533 380.582 341.791 380.307 342.095C380.581 342.213 380.756 342.302 380.94 342.365C387.326 344.545 394.025 344.723 400.639 345.441C401.738 345.56 402.356 344.951 402.65 343.957C403.131 342.326 403.619 340.698 404.066 339.058C405.975 332.072 407.891 325.089 409.752 318.09C410.121 316.696 410.258 315.241 410.503 313.815ZM402.87 211.959C402.813 212.044 402.748 212.096 402.744 212.153C402.441 216.75 402.133 221.349 401.86 225.948C401.832 226.416 402.016 226.897 402.121 227.477C403.551 226.654 404.772 225.843 406.085 225.223C407.696 224.464 408.218 223.123 408.317 221.531C408.368 220.727 408.32 219.893 408.169 219.101C407.692 216.602 407.161 214.113 406.609 211.628C406.509 211.178 406.207 210.772 405.914 210.173C405.467 211.083 405.245 211.822 404.798 212.38C403.998 213.38 403.507 212.131 402.87 211.959ZM389.907 282.769C391.161 283.632 392.341 284.443 393.508 285.245C394.809 283.811 394.682 282.692 393.17 281.36C391.757 280.115 391.35 280.179 390.453 281.79C390.306 282.053 390.161 282.315 389.907 282.769Z" fill="#222222"/>
<path d="M289.688 387.58C288.174 386.383 286.632 386.481 285.103 386.433C284.63 386.418 283.888 386.249 283.752 385.938C283.447 385.239 284.102 384.839 284.673 384.596C286.708 383.735 288.737 382.855 290.805 382.082C295.083 380.481 299.059 378.445 302.161 374.959C303.3 373.681 304.77 372.85 306.544 372.864C309.867 372.892 313.026 372.014 316.113 370.978C320.847 369.39 324.706 366.345 328.292 362.972C330.072 361.296 331.719 359.476 333.395 357.691C335.247 355.72 336.813 353.555 337.833 351.022C338.597 349.124 338.947 347.164 338.757 345.132C338.601 343.478 339.121 342.108 340.063 340.76C342.181 337.726 344.266 334.662 346.206 331.513C346.976 330.263 347.299 328.742 347.885 327.371C348.172 326.699 348.598 326.087 348.98 325.414C350.02 326.032 350.039 326.803 350.05 327.595C350.06 328.371 350.112 329.146 350.39 330.175C350.841 329.851 351.265 329.475 351.749 329.214C352.645 328.734 353.552 328.258 354.504 327.911C354.881 327.774 355.637 327.844 355.774 328.079C355.973 328.418 355.913 329.074 355.708 329.459C354.013 332.642 352.25 335.785 350.53 338.954C349.89 340.133 349.311 341.348 348.612 342.727C349.133 342.726 349.351 342.741 349.566 342.724C351.406 342.574 352.427 343.514 352.428 345.389C352.427 347.301 351.831 349.027 350.896 350.69C347.363 356.974 342.742 362.415 337.794 367.593C335.055 370.459 332.237 373.251 329.378 375.998C326.167 379.083 322.438 381.472 318.514 383.527C315.479 385.118 312.429 386.765 308.928 387.141C307.855 387.256 306.768 387.297 305.689 387.273C304.748 387.253 303.972 386.804 303.56 385.924C303.139 385.028 302.595 385.109 301.844 385.511C298.846 387.113 295.858 388.744 292.799 390.224C291.094 391.049 289.256 391.601 287.474 392.268C287.287 392.338 287.068 392.402 286.878 392.371C286.538 392.315 286.211 392.188 285.878 392.09C286.019 391.741 286.078 391.316 286.316 391.058C287.386 389.899 288.507 388.788 289.688 387.58ZM350.901 344.014C349.04 344.219 347.291 344.455 345.536 344.59C344.188 344.694 342.823 344.782 341.481 344.679C340.027 344.566 340 344.464 339.937 345.972C339.761 350.152 338.58 354.011 335.733 357.105C332.745 360.355 329.623 363.508 326.328 366.443C322.852 369.54 318.804 371.802 314.287 373.091C312.097 373.715 309.879 374.253 307.652 374.73C306.5 374.978 305.784 375.582 305.605 376.699C305.222 379.078 304.897 381.467 304.584 383.856C304.461 384.799 304.989 385.268 305.898 385.259C307.079 385.249 308.284 385.313 309.435 385.107C315.104 384.094 320.214 381.67 324.736 378.213C335.213 370.201 343.836 360.528 350.074 348.84C350.823 347.433 351.179 345.857 350.901 344.014ZM289.036 389.951C289.088 390.006 289.14 390.06 289.192 390.115C289.494 389.987 289.805 389.878 290.096 389.731C294.071 387.724 298.036 385.696 302.022 383.712C302.669 383.389 302.881 382.965 302.876 382.279C302.867 380.83 302.91 379.38 302.956 377.931C302.971 377.489 303.069 377.051 303.146 376.486C298.424 380.125 293.586 383.198 288.079 385.171C288.514 385.34 288.932 385.454 289.358 385.504C290.91 385.688 291.381 386.683 290.492 387.981C290.227 388.37 289.861 388.687 289.575 389.063C289.368 389.337 289.214 389.654 289.036 389.951ZM348.63 330.303C348.038 331.348 347.517 332.411 346.864 333.386C345.006 336.16 343.089 338.896 341.206 341.654C340.594 342.548 340.838 343.171 341.888 343.189C343.233 343.212 344.588 343.135 345.924 342.984C346.833 342.882 347.441 342.369 347.876 341.441C349.219 338.57 350.684 335.755 352.15 332.943C352.746 331.801 353.466 330.722 354.129 329.614C353.18 329.987 352.397 330.506 351.583 330.972C350.232 331.747 349.537 331.587 348.63 330.303Z" fill="#222222"/>
<path d="M286.487 219.326C285.884 220.009 285.381 220.653 284.806 221.223C281.353 224.644 277.865 228.031 274.428 231.468C273.204 232.692 272.076 234.012 270.926 235.307C266.686 240.083 262.496 244.905 258.204 249.634C255.486 252.627 252.533 255.41 249.851 258.435C248.008 260.511 246.48 262.864 244.755 265.048C241.812 268.775 238.859 272.494 235.83 276.151C235.04 277.104 233.984 277.849 232.99 278.609C232.758 278.787 232.032 278.763 231.953 278.611C231.767 278.257 231.794 277.765 231.82 277.334C231.829 277.177 232.062 277.019 232.215 276.886C236.719 272.942 240.253 268.172 243.753 263.372C245.509 260.964 247.173 258.473 249.096 256.204C251.044 253.906 253.315 251.885 255.352 249.656C260.14 244.415 264.879 239.129 269.624 233.849C273.348 229.705 276.993 225.489 280.794 221.417C281.979 220.149 283.536 219.215 284.98 218.21C285.237 218.031 285.848 218.142 286.162 218.334C286.383 218.469 286.382 218.97 286.487 219.326Z" fill="#222222"/>
<path d="M311.816 239.195C311.355 239.89 311.027 240.49 310.603 241.01C308.589 243.48 306.406 245.827 304.55 248.41C301.686 252.397 298.211 255.8 294.588 259.023C290.542 262.622 287.263 266.858 283.815 270.966C282.986 271.953 282.124 272.912 281.316 273.916C276.741 279.606 272.2 285.325 267.594 290.991C266.488 292.353 265.188 293.56 263.963 294.825C263.778 295.015 263.527 295.242 263.291 295.262C262.839 295.301 262.093 295.349 261.978 295.127C261.785 294.754 261.79 293.953 262.054 293.715C268.257 288.154 272.371 280.804 278.224 274.931C280.773 272.372 282.924 269.4 285.121 266.513C287.661 263.174 290.372 259.999 293.575 257.294C297.864 253.672 301.39 249.367 304.859 245.005C306.148 243.386 307.354 241.701 308.616 240.059C309.07 239.468 309.529 238.863 310.081 238.371C310.388 238.097 311.083 237.799 311.263 237.941C311.587 238.203 311.655 238.783 311.816 239.195Z" fill="#222222"/>
<path d="M249.419 331.365C249.899 330.679 250.238 329.989 250.758 329.486C252.735 327.574 254.806 325.758 256.772 323.835C258.273 322.367 259.82 320.907 261.088 319.247C268.589 309.43 276.546 300.021 285.442 291.428C287.447 289.492 289.39 287.493 291.392 285.553C291.849 285.109 292.388 284.708 292.962 284.443C293.292 284.291 293.866 284.316 294.14 284.519C294.334 284.662 294.337 285.294 294.196 285.605C293.965 286.116 293.612 286.61 293.203 286.995C282.479 297.115 272.295 307.725 263.289 319.437C260.833 322.631 258.171 325.676 255.462 328.662C254.153 330.104 252.546 331.283 251.01 332.502C250.729 332.726 250.059 332.724 249.729 332.539C249.491 332.407 249.52 331.798 249.419 331.365Z" fill="#222222"/>
<path d="M248.999 286.708C248.45 287.467 248.045 288.143 247.529 288.72C243.048 293.739 238.618 298.804 234.032 303.726C229.749 308.323 225.272 312.737 220.927 317.275C218.741 319.557 216.647 321.926 214.535 324.279C212.176 326.907 209.818 329.535 207.513 332.209C206.096 333.852 204.821 335.619 203.405 337.262C202.013 338.877 200.522 340.406 199.077 341.976C198.344 342.774 197.612 343.574 196.888 344.38C196.52 344.791 196.133 345.309 195.54 344.881C194.954 344.456 195.239 343.927 195.6 343.462C196.058 342.875 196.437 342.204 196.977 341.706C200.372 338.576 202.96 334.764 205.888 331.241C206.776 330.171 207.74 329.164 208.674 328.132C210.177 326.473 211.665 324.798 213.194 323.162C215.676 320.509 218.029 317.708 220.717 315.279C227.067 309.539 232.545 303.003 238.246 296.666C240.244 294.445 242.331 292.306 244.336 290.093C245.469 288.842 246.5 287.498 247.625 286.239C247.849 285.988 248.294 285.933 248.636 285.788C248.761 286.107 248.885 286.424 248.999 286.708Z" fill="#222222"/>
<path d="M225.824 257.378C227.009 255.717 228.015 254.059 229.26 252.603C233.674 247.446 238.193 242.381 242.613 237.231C243.735 235.924 244.703 234.468 245.629 233.008C248.475 228.514 252.489 225.03 255.896 221.022C259.923 216.284 263.987 211.58 268.026 206.852C268.972 205.743 269.869 204.593 270.81 203.481C271.025 203.227 271.307 202.982 271.609 202.864C271.889 202.754 272.356 202.69 272.528 202.842C272.754 203.046 272.86 203.483 272.855 203.817C272.851 204.087 272.653 204.395 272.462 204.618C270.02 207.486 267.61 210.384 265.097 213.19C261.424 217.289 257.598 221.252 253.979 225.399C251.078 228.722 248.372 232.218 245.61 235.661C243.446 238.361 241.405 241.164 239.173 243.806C235.425 248.243 231.671 252.665 228.735 257.709C228.532 258.056 228.296 258.465 227.967 258.636C227.532 258.862 226.838 259.122 226.529 258.93C226.163 258.702 226.085 258.009 225.824 257.378Z" fill="#222222"/>
<path d="M172.689 315.035C172.999 314.567 173.17 314.228 173.414 313.955C176.259 310.76 179.101 307.563 181.97 304.389C186.365 299.528 190.812 294.713 195.174 289.822C196.888 287.9 198.432 285.825 200.055 283.821C200.451 283.332 200.813 282.587 201.582 283.206C202.327 283.805 201.842 284.429 201.409 284.97C195.032 292.922 188.19 300.466 181.284 307.956C179.007 310.425 176.862 313.016 174.607 315.507C174.326 315.817 173.735 316.008 173.316 315.968C173.073 315.944 172.886 315.348 172.689 315.035Z" fill="#222222"/>
<path d="M300.57 228.127C300.432 228.532 300.414 228.678 300.341 228.788C298.939 230.865 297.583 232.976 296.092 234.987C295.633 235.607 294.796 235.944 294.138 236.419C292.91 237.309 291.587 238.101 290.489 239.13C289.434 240.121 288.63 241.375 287.685 242.487C284.627 246.08 281.561 249.663 278.488 253.241C277.514 254.375 276.535 255.506 275.503 256.584C274.99 257.121 274.363 257.961 273.546 257.285C272.739 256.618 273.388 255.798 273.856 255.223C274.776 254.092 275.797 253.043 276.8 251.982C279.321 249.319 281.917 246.724 284.363 243.993C285.739 242.457 286.909 240.729 288.112 239.045C289.288 237.399 290.736 236.083 292.588 235.295C294.186 234.616 295.21 233.399 296.082 232C296.818 230.82 297.487 229.598 298.21 228.411C298.436 228.039 298.68 227.611 299.031 227.401C299.359 227.207 299.925 227.105 300.226 227.265C300.483 227.403 300.514 227.967 300.57 228.127Z" fill="#222222"/>
<path d="M359.606 281.405C358.587 282.904 357.708 284.544 356.509 285.902C351.592 291.468 346.534 296.906 341.619 302.472C338.457 306.051 335.465 309.779 332.375 313.42C331.652 314.272 330.867 315.077 330.049 315.837C329.841 316.031 329.394 315.966 329.058 316.02C329.021 315.656 328.845 315.225 328.979 314.944C329.191 314.5 329.608 314.153 329.943 313.769C337.768 304.78 345.609 295.806 353.402 286.789C354.775 285.199 355.927 283.421 357.207 281.749C357.555 281.295 357.957 280.86 358.414 280.522C358.624 280.366 359.08 280.358 359.318 280.485C359.49 280.576 359.491 280.997 359.606 281.405Z" fill="#222222"/>
<path d="M211.773 300.347C211.288 301.055 210.921 301.76 210.4 302.323C207.597 305.365 204.733 308.353 201.932 311.398C197.52 316.194 193.153 321.029 188.738 325.823C187.984 326.642 187.132 327.393 186.234 328.048C185.932 328.268 185.343 328.091 184.885 328.097C184.984 327.648 184.935 327.056 185.206 326.771C192.239 319.404 199.316 312.081 206.355 304.721C207.807 303.205 209.127 301.563 210.54 300.01C210.755 299.773 211.152 299.704 211.465 299.557C211.565 299.809 211.663 300.064 211.773 300.347Z" fill="#222222"/>
<path d="M342.651 271.454C342.507 271.993 342.505 272.497 342.264 272.824C336.537 280.624 331.022 288.602 323.863 295.225C323.44 295.617 323.025 296.057 322.522 296.309C322.203 296.469 321.73 296.321 321.326 296.312C321.34 295.881 321.181 295.307 321.398 295.045C322.305 293.947 323.25 292.857 324.316 291.919C330.588 286.39 335.39 279.625 340.366 273.003C340.864 272.338 341.188 271.368 342.651 271.454Z" fill="#222222"/>
<path d="M258.16 194.922C257.812 195.522 257.616 195.961 257.331 196.332C253.288 201.582 249.03 206.639 244.017 211.007C243.489 211.467 242.91 212.361 242.149 211.61C241.383 210.853 242.252 210.248 242.742 209.751C245.1 207.362 247.601 205.104 249.84 202.609C251.917 200.293 253.728 197.738 255.655 195.285C255.927 194.939 256.126 194.509 256.461 194.247C256.798 193.981 257.262 193.874 257.671 193.699C257.846 194.138 258.021 194.575 258.16 194.922Z" fill="#222222"/>
<path d="M257.739 300.761C257.384 301.3 257.146 301.756 256.824 302.14C253.532 306.07 250.238 309.997 246.915 313.899C246.214 314.722 245.422 315.48 244.596 316.18C244.276 316.45 243.746 316.473 243.311 316.609C243.396 316.125 243.325 315.52 243.592 315.18C244.532 313.982 245.514 312.798 246.613 311.748C249.361 309.128 251.545 306.101 253.514 302.873C254.206 301.739 255.231 300.794 256.191 299.85C256.401 299.644 257.037 299.697 257.372 299.853C257.594 299.957 257.628 300.46 257.739 300.761Z" fill="#222222"/>
<path d="M263.076 271.418C262.662 271.974 262.375 272.439 262.012 272.835C259.113 275.987 256.191 279.117 253.299 282.277C252.59 283.051 251.984 283.918 251.305 284.722C250.979 285.108 250.643 285.53 250.218 285.775C249.931 285.942 249.481 285.828 249.104 285.84C249.112 285.474 249 285.046 249.152 284.755C249.495 284.098 249.907 283.458 250.396 282.9C253.709 279.115 257.046 275.35 260.383 271.587C260.742 271.182 261.106 270.749 261.554 270.464C261.812 270.301 262.337 270.273 262.569 270.433C262.838 270.618 262.915 271.078 263.076 271.418Z" fill="#222222"/>
<path d="M350.163 276.855C349.826 277.251 349.556 277.59 349.262 277.91C347.682 279.625 346.04 281.288 344.53 283.063C342.991 284.874 341.588 286.803 339.452 287.987C339.158 288.149 338.817 288.406 338.535 288.366C338.135 288.309 337.768 288.017 337.388 287.825C337.59 287.485 337.715 286.954 338.008 286.838C339.651 286.184 340.85 285.038 341.88 283.653C343.193 281.887 344.464 280.084 345.882 278.406C346.68 277.461 347.708 276.699 348.698 275.941C348.933 275.761 349.486 275.823 349.794 275.973C350.001 276.074 350.038 276.527 350.163 276.855Z" fill="#222222"/>
<path d="M219.687 292.015C219.251 292.648 218.895 293.268 218.439 293.805C217.28 295.176 216.08 296.51 214.893 297.856C214.781 297.983 214.668 298.159 214.525 298.196C214.045 298.317 213.403 298.62 213.095 298.425C212.463 298.024 212.793 297.363 213.21 296.943C215.044 295.092 216.908 293.27 218.782 291.461C218.939 291.309 219.26 291.326 219.506 291.265C219.565 291.509 219.624 291.753 219.687 292.015Z" fill="#222222"/>
<path d="M264.419 269.143C263.696 268.75 263.428 268.198 263.86 267.665C264.642 266.7 265.533 265.816 266.436 264.962C266.601 264.806 267.149 264.829 267.332 264.988C267.52 265.15 267.639 265.688 267.513 265.873C266.811 266.904 266.051 267.897 265.25 268.854C265.074 269.062 264.653 269.067 264.419 269.143Z" fill="#222222"/>
<path d="M179.408 216.831C179.907 214.968 181.48 214.116 183.363 214.328C185.151 214.528 186.937 214.739 188.73 214.892C189.741 214.979 190.763 215.006 191.779 214.973C193.667 214.913 194.286 215.564 194.023 217.474C193.818 218.956 193.564 220.431 193.37 221.914C192.784 226.362 192.098 230.801 191.688 235.264C191.459 237.753 191.682 240.283 191.734 242.795C191.776 244.743 191.597 245.016 189.628 244.963C186.537 244.88 183.448 244.714 180.361 244.525C180.064 244.507 179.596 244.131 179.544 243.859C179.381 243.002 179.276 242.109 179.337 241.244C179.614 237.295 180.144 233.355 180.214 229.406C180.272 226.098 179.818 222.781 179.591 219.466C179.52 218.458 179.45 217.448 179.408 216.831ZM188.413 217.907C187.64 217.858 186.187 217.737 184.73 217.682C182.942 217.615 182.723 217.865 182.605 219.691C182.309 224.237 182.028 228.783 181.672 233.325C181.454 236.104 181.115 238.872 180.823 241.643C180.739 242.445 180.981 243.001 181.876 243.039C184.048 243.133 186.22 243.245 188.394 243.28C189.627 243.3 189.978 242.938 190.103 241.742C190.174 241.067 190.177 240.386 190.211 239.707C190.383 236.214 190.476 232.715 190.754 229.23C190.938 226.929 191.393 224.651 191.711 222.36C192.054 219.878 191.282 218.632 188.413 217.907Z" fill="#222222"/>
<path d="M121.979 252.69C121.806 253.103 121.661 253.685 121.338 254.145C121.103 254.48 120.582 254.903 120.286 254.839C119.888 254.754 119.328 254.268 119.28 253.899C119.111 252.562 118.991 251.191 119.096 249.853C119.447 245.421 120.119 241.006 120.276 236.572C120.582 227.996 120.621 219.41 120.769 210.828C120.818 208.012 120.836 205.196 120.924 202.382C120.943 201.764 120.79 200.775 121.738 200.787C122.795 200.801 122.513 201.839 122.513 202.469C122.494 215.947 122.448 229.426 122.392 242.904C122.382 245.584 122.315 248.264 122.247 250.942C122.234 251.482 122.087 252.017 121.979 252.69Z" fill="#222222"/>
<path d="M199.174 214.677C201.317 215.451 202.9 216.059 204.508 216.593C208.002 217.755 211.6 217.584 215.198 217.333C216.612 217.235 217.003 217.416 217.297 218.79C217.6 220.211 217.786 221.667 217.883 223.117C217.985 224.637 217.931 226.169 217.923 227.696C217.911 229.907 216.693 231.138 214.482 231.059C209.505 230.882 204.53 230.659 199.557 230.431C199.092 230.409 198.606 230.283 198.179 230.093C197.442 229.767 196.997 229.122 197.367 228.365C198.103 226.861 198.068 225.265 198.035 223.693C197.987 221.361 197.81 219.03 197.613 216.704C197.47 215.018 198.15 214.375 199.174 214.677ZM199.801 217.456C199.776 217.815 199.746 218.076 199.742 218.337C199.713 220.512 199.673 222.687 199.672 224.863C199.671 225.968 199.325 227.489 199.897 228.068C200.555 228.734 202.05 228.669 203.195 228.741C207.06 228.985 210.928 229.166 214.797 229.31C215.076 229.32 215.509 228.894 215.638 228.575C216.587 226.234 216.416 223.778 216.266 221.334C216.138 219.253 215.892 219.119 213.8 219.016C211.057 218.881 208.316 218.662 205.586 218.369C203.671 218.166 201.774 217.775 199.801 217.456Z" fill="#222222"/>
<path d="M105.482 261.277C102.206 260.511 101.564 259.788 101.754 257.094C102.227 250.397 102.783 243.706 103.326 237.014C103.385 236.274 103.513 235.528 103.718 234.815C103.805 234.517 104.176 234.303 104.418 234.05C104.628 234.326 105.012 234.597 105.019 234.878C105.082 237.007 105.162 239.142 105.066 241.267C104.854 245.968 104.503 250.663 104.291 255.364C104.196 257.459 105.038 258.336 107.136 258.542C108.654 258.691 110.184 258.716 111.707 258.838C112.243 258.881 112.79 258.992 113.296 259.172C113.966 259.413 114.564 259.846 114.427 260.658C114.284 261.499 113.648 261.944 112.816 261.938C111.563 261.931 110.305 261.888 109.058 261.765C107.644 261.629 106.237 261.384 105.482 261.277Z" fill="#222222"/>
<path d="M193.72 268.085C191.665 267.658 191.123 266.862 191.261 264.758C191.456 261.806 191.549 258.848 191.74 255.896C191.804 254.92 191.965 253.935 192.212 252.988C192.523 251.801 193.034 251.539 194.254 251.695C195.5 251.854 196.765 252.205 197.992 252.109C200.452 251.915 202.915 251.582 205.335 251.099C207.388 250.689 207.565 250.751 207.299 252.794C206.868 256.097 206.439 259.402 206.091 262.714C205.986 263.712 206.076 264.751 206.222 265.749C206.335 266.511 206.14 267.007 205.416 267.122C201.97 267.666 198.564 268.604 195.021 268.319C194.584 268.285 194.153 268.166 193.72 268.085ZM205.898 253.132C202.057 253.208 198.331 253.267 194.608 253.362C193.811 253.382 193.503 253.974 193.467 254.684C193.305 257.871 193.109 261.057 193.033 264.246C192.996 265.819 193.632 266.41 195.216 266.631C198.117 267.037 200.939 266.789 203.693 265.716C204.441 265.425 204.759 264.994 204.829 264.233C204.991 262.44 205.205 260.652 205.38 258.859C205.565 256.942 205.729 255.021 205.898 253.132Z" fill="#222222"/>
<path d="M195.902 230.879C196.995 231.172 197.924 231.368 198.818 231.67C202.262 232.831 205.749 232.896 209.283 232.184C210.932 231.852 211.11 232.094 211.323 233.737C211.941 238.521 211.035 243.222 210.668 247.954C210.613 248.661 210.374 249.044 209.534 249.017C205.362 248.884 201.189 248.762 197.015 248.749C195.974 248.746 195.575 248.386 195.558 247.453C195.539 246.503 195.578 245.551 195.582 244.601C195.598 240.694 195.6 236.787 195.638 232.88C195.64 232.259 195.796 231.638 195.902 230.879ZM209.305 244.946C209.428 244.312 209.581 243.682 209.665 243.043C210.011 240.422 210.591 237.81 210.016 235.149C209.705 233.713 209.521 233.574 208.034 233.53C204.779 233.429 201.524 233.339 198.27 233.205C197.307 233.165 196.975 233.648 196.979 234.487C196.992 238.359 197.023 242.229 197.035 246.1C197.038 247.121 197.571 247.443 198.521 247.431C201.135 247.397 203.749 247.41 206.364 247.401C208.83 247.39 208.829 247.388 209.305 244.946Z" fill="#222222"/>
<path d="M113.095 246.79C112.912 247.258 112.884 247.542 112.727 247.687C112.417 247.972 111.982 248.422 111.7 248.359C111.369 248.285 110.93 247.745 110.914 247.391C110.872 246.45 111.036 245.5 111.11 244.553C111.424 240.592 111.694 236.627 112.06 232.671C112.466 228.275 112.955 223.885 113.416 219.493C113.867 215.183 113.356 210.965 112.275 206.793C112.08 206.039 111.91 205.273 111.813 204.503C111.784 204.271 112.037 204.004 112.159 203.753C112.364 203.899 112.68 204.002 112.755 204.198C113.315 205.647 114.055 207.076 114.314 208.584C115.289 214.275 115.335 219.98 114.408 225.712C113.532 231.117 113.383 236.587 113.398 242.062C113.402 243.719 113.191 245.379 113.095 246.79Z" fill="#222222"/>
<path d="M189.585 254.697C189.293 257.302 188.884 260.564 188.576 263.834C188.381 265.912 188.184 266.189 186.101 266.38C185.596 266.427 185.084 266.457 184.59 266.561C183.16 266.862 182.631 266.642 182.013 265.295C181.748 264.718 181.532 264.091 181.436 263.465C180.944 260.253 180.473 257.037 180.056 253.814C179.954 253.027 179.986 252.194 180.128 251.412C180.255 250.71 180.868 250.496 181.558 250.597C183.491 250.882 185.424 251.172 187.356 251.46C187.691 251.51 188.029 251.552 188.359 251.624C190.131 252.017 190.292 252.298 189.585 254.697ZM187.487 257.552C187.52 257.554 187.551 257.556 187.583 257.558C187.794 256.771 187.979 255.978 188.222 255.203C188.487 254.358 188.191 253.768 187.394 253.537C186.208 253.194 184.998 252.914 183.782 252.696C182.575 252.481 182.262 252.751 182.368 253.965C182.642 257.106 182.981 260.242 183.291 263.381C183.366 264.135 183.806 264.521 184.52 264.661C185.831 264.919 186.424 264.529 186.643 263.172C186.945 261.301 187.207 259.426 187.487 257.552Z" fill="#222222"/>
<path d="M213.772 96.5044C214.044 96.2765 214.398 95.9807 214.751 95.6862C214.978 96.0808 215.414 96.4838 215.399 96.8702C215.284 99.9187 215.132 102.968 214.897 106.009C214.036 117.186 213.137 128.36 212.256 139.535C211.949 143.431 211.642 147.327 211.361 151.225C211.294 152.172 211.423 153.141 211.282 154.071C211.202 154.595 210.704 155.505 210.484 155.479C209.62 155.376 209.646 154.582 209.718 153.88C210.075 150.398 210.492 146.921 210.786 143.434C211.53 134.601 212.239 125.765 212.921 116.928C213.258 112.567 213.545 108.2 213.771 103.83C213.866 102.007 213.743 100.174 213.729 98.3439C213.726 97.8047 213.755 97.2636 213.772 96.5044Z" fill="#222222"/>
<path d="M129.369 253.135C129.042 253.705 128.741 254.494 128.206 255.064C127.881 255.408 127.099 255.662 126.699 255.505C126.246 255.327 125.851 254.686 125.697 254.167C125.569 253.735 125.718 253.135 125.93 252.701C127.735 249.006 128.528 245.089 128.597 241.003C128.681 236.119 128.749 231.233 128.871 226.35C128.88 225.971 129.252 225.602 129.455 225.228C129.744 225.547 130.263 225.85 130.285 226.186C130.45 228.782 130.676 231.391 130.581 233.984C130.396 239.063 130.022 244.136 129.71 249.209C129.632 250.455 129.496 251.698 129.369 253.135Z" fill="#222222"/>
<path d="M222.401 134.693C222.053 137.447 221.7 140.199 221.36 142.954C220.788 147.595 220.233 152.238 219.657 156.878C219.251 160.14 218.888 163.41 218.37 166.654C218.182 167.834 217.684 168.994 217.146 170.073C216.961 170.444 216.226 170.543 215.743 170.766C215.542 170.272 215.117 169.744 215.186 169.293C215.305 168.51 215.661 167.735 216.038 167.021C217.716 163.843 218.088 160.359 218.463 156.876C219.216 149.888 219.916 142.893 220.712 135.908C220.872 134.506 221.298 133.12 221.739 131.771C221.866 131.382 222.469 131.147 222.855 130.842C223.002 131.315 223.315 131.808 223.264 132.259C223.168 133.093 222.86 133.904 222.64 134.724C222.56 134.714 222.48 134.703 222.401 134.693Z" fill="#222222"/>
<path d="M209.535 255.591C210.713 255.906 210.981 256.31 210.843 257.491C210.502 260.392 210.135 263.288 209.796 266.19C209.63 267.606 209.489 269.024 209.362 270.444C209.25 271.677 208.77 272.195 207.524 272.073C204.253 271.755 200.988 271.365 197.721 270.995C197.014 270.916 196.312 270.797 195.608 270.697C195.067 270.619 194.355 270.569 194.53 269.845C194.601 269.554 195.381 269.239 195.819 269.267C197.947 269.403 200.067 269.656 202.191 269.859C203.408 269.975 204.622 270.11 205.842 270.177C207.16 270.249 207.698 269.847 207.863 268.569C208.347 264.797 208.776 261.018 209.239 257.244C209.306 256.692 209.433 256.149 209.535 255.591Z" fill="#222222"/>
<path d="M228.57 91.9621C230.688 92.147 232.804 92.4169 234.925 92.4879C236.49 92.5392 236.691 92.7197 236.533 94.2395C236.115 98.2558 235.78 102.281 235.413 106.303C235.392 106.54 235.475 106.831 235.365 107.005C235.106 107.417 234.76 107.773 234.449 108.152C234.177 107.779 233.663 107.401 233.673 107.037C233.727 104.697 233.919 102.36 234.02 100.02C234.075 98.7343 234.137 97.4367 234.021 96.159C233.89 94.7135 233.562 94.4554 232.15 94.1785C230.017 93.7602 227.881 93.3592 225.747 92.9483C225.447 92.8904 225.087 92.8983 224.869 92.7289C224.561 92.4922 224.359 92.1188 224.113 91.8033C224.44 91.5677 224.778 91.1162 225.091 91.1342C226.27 91.2007 227.44 91.4191 228.613 91.5804C228.597 91.7081 228.583 91.835 228.57 91.9621Z" fill="#222222"/>
<path d="M198.813 156.898C198.689 157.286 198.636 157.72 198.421 158.048C198.231 158.337 197.86 158.507 197.568 158.729C197.388 158.407 197.038 158.073 197.058 157.762C197.166 156.074 197.359 154.392 197.536 152.709C198.009 148.189 198.484 143.669 198.969 139.151C199.04 138.487 198.833 137.43 199.847 137.539C200.845 137.647 200.556 138.621 200.476 139.369C200.087 142.981 199.703 146.595 199.371 150.213C199.167 152.437 199.056 154.669 198.903 156.897C198.874 156.898 198.843 156.898 198.813 156.898Z" fill="#222222"/>
<path d="M133.231 201.495C133.452 201.318 133.815 201.03 134.175 200.743C134.409 201.142 134.862 201.553 134.84 201.937C134.719 203.958 134.451 205.971 134.283 207.991C134.082 210.415 133.957 212.846 133.737 215.269C133.679 215.91 133.836 216.943 132.821 216.901C131.866 216.86 131.934 215.887 131.981 215.21C132.135 213.02 132.368 210.836 132.569 208.649C132.752 206.661 132.932 204.672 133.114 202.684C133.141 202.381 133.173 202.079 133.231 201.495Z" fill="#222222"/>
<path d="M224.199 99.3215C224.492 99.0504 224.863 98.7067 225.235 98.363C225.544 98.7519 225.991 99.096 226.134 99.5392C226.697 101.283 226.226 103.022 225.994 104.765C225.634 107.449 225.338 110.142 225.005 112.83C224.948 113.3 224.888 113.779 224.747 114.227C224.684 114.429 224.401 114.712 224.244 114.696C224.04 114.676 223.752 114.426 223.695 114.22C223.588 113.84 223.53 113.399 223.612 113.019C224.429 109.231 224.278 105.401 224.166 101.57C224.146 100.893 224.183 100.216 224.199 99.3215Z" fill="#222222"/>
<path d="M132.084 218.626C132.292 217.644 132.927 217.614 133.544 217.726C134.298 217.864 134.804 218.73 134.589 219.46C134.382 220.161 133.924 220.568 133.136 220.384C132.281 220.182 131.873 219.396 132.084 218.626Z" fill="#222222"/>
<path d="M225.096 121.272C225.86 120.936 226.409 120.504 226.643 120.634C227.052 120.862 227.266 121.436 227.561 121.865C227.155 122.135 226.698 122.67 226.355 122.604C225.963 122.531 225.673 121.921 225.096 121.272Z" fill="#222222"/>
<path d="M128.444 217.688C127.987 217.842 127.516 218.153 127.076 218.113C126.441 218.055 126.189 217.516 126.368 216.893C126.545 216.275 127.048 215.94 127.614 216.199C128.011 216.379 128.256 216.892 128.57 217.257C128.527 217.4 128.485 217.544 128.444 217.688Z" fill="#222222"/>
<path d="M220.23 121.778C219.979 121.233 219.647 120.828 219.743 120.645C219.887 120.368 220.324 120.119 220.645 120.107C220.826 120.101 221.227 120.659 221.167 120.852C221.076 121.155 220.677 121.363 220.23 121.778Z" fill="#222222"/>
<path d="M305.487 172.42C306.445 168.844 307.376 165.261 308.378 161.698C308.661 160.692 309.125 159.734 309.558 158.776C309.659 158.554 309.967 158.427 310.181 158.256C310.323 158.498 310.612 158.759 310.583 158.98C310.411 160.324 310.262 161.684 309.93 162.993C308.944 166.88 307.847 170.738 306.851 174.622C306.042 177.78 305.345 180.966 304.531 184.123C304.355 184.802 304.373 186.037 303.363 185.832C302.275 185.61 302.767 184.476 302.914 183.74C303.673 179.943 304.487 176.157 305.28 172.368C305.349 172.385 305.418 172.402 305.487 172.42Z" fill="#222222"/>
<path d="M364.08 211.128C364.058 210.941 363.985 210.743 364.024 210.57C364.524 208.365 364.997 206.153 365.56 203.964C366.818 199.06 368.158 194.177 369.397 189.267C370.228 185.974 370.943 182.651 371.715 179.342C371.8 178.978 371.906 178.619 372.026 178.264C372.235 177.649 372.443 176.902 373.279 177.086C374.106 177.269 374.321 178.017 374.231 178.778C374.171 179.274 373.964 179.754 373.803 180.235C373.204 182.028 372.527 183.8 372.007 185.615C370.605 190.511 369.293 195.431 367.899 200.328C367.323 202.353 366.631 204.345 365.983 206.348C365.567 207.637 365.144 208.923 364.706 210.204C364.591 210.54 364.408 210.853 364.256 211.175C364.198 211.159 364.139 211.143 364.08 211.128Z" fill="#222222"/>
<path d="M268.123 158.136C268.854 155.41 269.584 152.684 270.316 149.958C270.369 149.761 270.375 149.515 270.501 149.382C270.75 149.118 271.067 148.915 271.354 148.687C271.469 149.008 271.721 149.353 271.674 149.648C271.396 151.355 271.118 153.07 270.707 154.749C269.541 159.503 268.332 164.246 267.093 168.982C266.69 170.526 266.173 172.043 265.645 173.551C265.522 173.902 265.143 174.163 264.881 174.465C264.771 174.049 264.503 173.604 264.576 173.222C265.023 170.885 265.493 168.551 266.058 166.24C266.72 163.532 267.487 160.851 268.209 158.158C268.18 158.151 268.152 158.144 268.123 158.136Z" fill="#222222"/>
<path d="M256.533 144.27C256.536 144.916 256.657 145.587 256.524 146.201C255.464 151.084 254.358 155.958 253.258 160.832C253.033 161.828 252.814 162.827 252.512 163.799C252.414 164.113 252.056 164.347 251.816 164.618C251.691 164.281 251.416 163.92 251.465 163.609C251.796 161.531 252.145 159.451 252.585 157.392C253.421 153.468 254.306 149.555 255.213 145.647C255.337 145.112 255.704 144.633 255.958 144.129C256.149 144.176 256.341 144.224 256.533 144.27Z" fill="#222222"/>
<path d="M357.293 240.193C356.557 238.503 361.066 219.833 362.303 218.596C362.286 219.224 362.356 219.726 362.249 220.189C360.799 226.473 359.33 232.753 357.844 239.028C357.746 239.436 357.48 239.805 357.293 240.193Z" fill="#222222"/>
<path d="M341.307 174.832C341.903 172.992 342.482 171.146 343.112 169.317C343.197 169.069 343.535 168.909 343.756 168.71C343.89 168.983 344.175 169.284 344.133 169.526C343.766 171.593 343.39 173.662 342.913 175.706C342.629 176.926 342.162 178.103 341.77 179.297C341.697 179.523 341.653 179.8 341.496 179.947C341.229 180.196 340.882 180.359 340.568 180.558C340.439 180.203 340.141 179.81 340.21 179.501C340.562 177.944 341.008 176.411 341.421 174.868C341.384 174.856 341.346 174.844 341.307 174.832Z" fill="#222222"/>
<path d="M244.169 149.881C243.773 151.359 243.394 152.842 242.966 154.312C242.885 154.59 242.614 154.814 242.43 155.062C242.296 154.751 242.012 154.421 242.05 154.133C242.229 152.753 242.42 151.366 242.749 150.016C243.278 147.839 243.903 145.684 244.532 143.533C244.605 143.286 244.956 143.119 245.178 142.916C245.305 143.218 245.586 143.549 245.536 143.817C245.154 145.854 244.708 147.879 244.282 149.908C244.245 149.9 244.206 149.891 244.169 149.881Z" fill="#222222"/>
<path d="M143.112 153.049C144.545 152.344 146.084 151.795 147.385 150.901C150.268 148.92 153.021 146.747 155.851 144.687C157.964 143.15 160.048 141.557 162.265 140.185C166.344 137.663 170.61 135.437 174.622 132.816C180.675 128.861 186.878 125.242 193.645 122.637C195.518 121.917 195.873 120.772 194.749 119.133C192.087 115.251 190.418 110.89 188.661 106.58C185.657 99.2089 182.951 91.7104 179.766 84.4199C174.794 73.0411 169.716 61.7208 165.911 49.872C163.835 43.4091 162.114 36.9015 161.602 30.1097C161.552 29.4405 161.382 28.7629 161.16 28.1257C160.294 25.6283 158.675 25.1747 156.526 26.7389C155.017 27.8385 153.576 29.1333 151.901 29.8862C146.261 32.4242 140.628 35.0364 134.802 37.0797C130.433 38.6125 126.288 40.4504 122.289 42.738C117.832 45.2894 113.305 47.7137 108.217 48.8399C107.061 49.0962 105.92 49.4449 104.801 49.8338C100.744 51.2481 96.8245 53.0991 92.5049 53.6805C92.2105 53.7204 91.8847 53.8283 91.6582 54.0091C91.2499 54.3364 90.9074 54.7433 90.452 55.2018C90.684 55.9117 90.8097 56.58 91.1066 57.1609C93.2435 61.3379 95.4249 65.4912 97.5712 69.6628C99.1269 72.6854 100.637 75.7312 102.191 78.7534C104.929 84.0744 107.733 89.3616 110.419 94.7083C111.915 97.6844 113.19 100.77 114.631 103.775C116.233 107.112 117.943 110.398 119.549 113.733C122.68 120.228 125.635 126.812 128.919 133.227C131.927 139.099 135.254 144.807 138.493 150.558C138.914 151.305 139.635 151.888 140.238 152.529C141.062 153.405 142.028 153.583 143.112 153.049ZM149.402 34.7367C149.498 34.5436 149.67 34.3799 149.932 34.2878C151.77 33.6418 153.576 32.4462 154.994 31.1136C155.904 30.2584 157.084 28.7895 158.495 29.5199C159.851 30.2221 160.018 32.1088 160.122 33.4453C160.18 34.2037 160.199 34.9675 160.288 35.7236C160.382 36.5125 160.627 37.2867 160.844 38.048C161.342 39.7964 161.924 41.5948 161.895 43.433C161.883 44.2529 160.956 44.7381 160.305 44.1902C156.903 41.3301 153.355 38.6525 149.607 36.2614C148.972 35.859 148.989 35.1301 149.402 34.7367ZM130.629 132.526C128.873 129.186 127.099 125.854 125.341 122.514C121.083 114.419 117.656 105.949 113.988 97.5841C112.216 93.5419 110.108 89.6417 108.044 85.7336C105.457 80.8344 102.687 76.03 100.134 71.1122C98.6347 68.2247 97.4327 65.1822 96.032 62.2408C95.5534 61.2352 94.8763 60.3255 94.2948 59.3688C93.9077 58.7308 93.473 58.113 93.1585 57.4403C92.5447 56.1267 92.8697 55.4947 94.2976 55.1438C94.8231 55.0141 95.3819 55.0214 95.9053 54.8898C97.6059 54.4615 99.3344 54.1014 100.987 53.5243C103.777 52.5477 106.474 51.2926 109.288 50.3933C114.74 48.6523 119.832 46.1787 124.7 43.2163C128.002 41.2053 131.46 39.588 135.184 38.5094C137.073 37.9628 138.947 37.2944 140.735 36.4782C142.777 35.5449 144.694 35.6418 146.589 36.6997C152.479 39.9865 158.15 43.5864 162.575 48.7936C163.526 49.9125 164.405 51.1916 164.946 52.5464C167.971 60.1251 170.458 67.9489 173.938 75.3077C178.496 84.9491 182.473 94.8069 186.433 104.688C188.165 109.009 190.068 113.261 191.888 117.547C192.218 118.327 192.519 119.119 192.872 120.002C192.009 120.618 191.236 121.299 190.353 121.781C183.005 125.793 175.797 130.04 168.791 134.626C167.967 135.165 167.128 135.705 166.238 136.12C161.52 138.318 157.213 141.148 153.232 144.486C152.621 144.999 152.125 145.021 151.417 144.663C145.714 141.774 140.009 138.891 134.264 136.087C132.612 135.283 131.461 134.105 130.629 132.526ZM140.851 150.568C138.69 146.685 136.636 142.742 134.544 138.82C134.5 138.738 134.508 138.629 134.476 138.448C139.848 141.058 145.158 143.636 150.697 146.326C149.719 147.175 149.049 147.845 148.289 148.394C146.941 149.367 145.559 150.298 144.154 151.189C142.937 151.961 141.519 151.77 140.851 150.568Z" fill="#222222"/>
<path d="M160.461 120.852C160.153 121.874 159.664 122.019 159.156 121.405C158.751 120.915 158.403 120.348 158.158 119.763C152.132 105.397 145.497 91.3083 138.847 77.2249C137.006 73.3264 135.532 69.2558 133.896 65.2619C133.084 63.2791 132.286 61.2919 131.484 59.3052C131.37 59.0226 131.194 58.73 131.198 58.4435C131.202 58.1821 131.348 57.8083 131.549 57.6998C131.717 57.609 132.131 57.7581 132.297 57.9319C132.569 58.2187 132.804 58.5889 132.928 58.9651C136.245 69.0894 141.271 78.4641 145.68 88.1092C148.353 93.9549 150.866 99.8739 153.537 105.722C155.641 110.329 157.882 114.874 160.04 119.458C160.277 119.963 160.367 120.534 160.461 120.852Z" fill="#222222"/>
</g>
</svg>
