<svg width="72" height="72" viewBox="1 1 70 70" fill="none" xmlns="http://www.w3.org/2000/svg">
<rect width="72" height="72" fill="#1E1E1E"/>
<g clip-path="url(#clip0_0_1)">
<rect width="1280" height="5423" transform="translate(-923 -3265)" fill="white"/>
<rect x="-924" y="-489" width="1280" height="616" fill="#E34D80"/>
<g clip-path="url(#clip1_0_1)">
<g opacity="0.08">
<g clip-path="url(#clip2_0_1)">
<ellipse cx="89.9213" cy="-16.662" rx="17.4676" ry="17.4676" stroke="#FBF9E9" stroke-width="2"/>
<circle cx="72.4537" cy="0.449038" r="17.4676" stroke="#FBF9E9" stroke-width="2"/>
</g>
<g clip-path="url(#clip3_0_1)">
<circle cx="-17.7361" cy="-16.662" r="17.4676" stroke="#FBF9E9" stroke-width="2"/>
<circle cx="-0.268553" cy="0.449038" r="17.4676" stroke="#FBF9E9" stroke-width="2"/>
</g>
<g clip-path="url(#clip4_0_1)">
<ellipse cx="18.625" cy="-16.662" rx="17.4676" ry="17.4676" stroke="#FBF9E9" stroke-width="2"/>
<circle cx="53.5602" cy="-16.662" r="17.4676" stroke="#FBF9E9" stroke-width="2"/>
<ellipse cx="36.0926" cy="0.449038" rx="17.4676" ry="17.4676" stroke="#FBF9E9" stroke-width="2"/>
<circle cx="1.15741" cy="0.449038" r="17.4676" stroke="#FBF9E9" stroke-width="2"/>
<circle cx="71.0278" cy="0.449038" r="17.4676" stroke="#FBF9E9" stroke-width="2"/>
</g>
<g clip-path="url(#clip5_0_1)">
<circle cx="89.9213" cy="88.1434" r="17.4676" stroke="#FBF9E9" stroke-width="2"/>
<circle cx="72.4537" cy="70.3194" r="17.4676" stroke="#FBF9E9" stroke-width="2"/>
</g>
<g clip-path="url(#clip6_0_1)">
<ellipse cx="-17.7361" cy="88.1434" rx="17.4676" ry="17.4676" stroke="#FBF9E9" stroke-width="2"/>
<circle cx="-0.268553" cy="70.3194" r="17.4676" stroke="#FBF9E9" stroke-width="2"/>
</g>
<g clip-path="url(#clip7_0_1)">
<circle cx="18.625" cy="88.1434" r="17.4676" stroke="#FBF9E9" stroke-width="2"/>
<ellipse cx="53.5602" cy="88.1434" rx="17.4676" ry="17.4676" stroke="#FBF9E9" stroke-width="2"/>
<ellipse cx="36.0926" cy="70.3194" rx="17.4676" ry="17.4676" stroke="#FBF9E9" stroke-width="2"/>
<circle cx="71.0278" cy="70.3194" r="17.4676" stroke="#FBF9E9" stroke-width="2"/>
<circle cx="1.15741" cy="70.3194" r="17.4676" stroke="#FBF9E9" stroke-width="2"/>
</g>
<g clip-path="url(#clip8_0_1)">
<circle cx="89.9213" cy="18.2728" r="17.4676" stroke="#FBF9E9" stroke-width="2"/>
<ellipse cx="89.9213" cy="53.2081" rx="17.4676" ry="17.4676" stroke="#FBF9E9" stroke-width="2"/>
<circle cx="72.4537" cy="70.3192" r="17.4676" stroke="#FBF9E9" stroke-width="2"/>
<circle cx="72.4537" cy="0.448793" r="17.4676" stroke="#FBF9E9" stroke-width="2"/>
<circle cx="72.4537" cy="35.3839" r="17.4676" stroke="#FBF9E9" stroke-width="2"/>
</g>
<g clip-path="url(#clip9_0_1)">
<ellipse cx="-17.7361" cy="18.2728" rx="17.4676" ry="17.4676" stroke="#FBF9E9" stroke-width="2"/>
<circle cx="-17.7361" cy="53.2081" r="17.4676" stroke="#FBF9E9" stroke-width="2"/>
<circle cx="-0.268553" cy="70.3192" r="17.4676" stroke="#FBF9E9" stroke-width="2"/>
<circle cx="-0.268553" cy="35.3839" r="17.4676" stroke="#FBF9E9" stroke-width="2"/>
<circle cx="-0.268553" cy="0.448793" r="17.4676" stroke="#FBF9E9" stroke-width="2"/>
</g>
<g clip-path="url(#clip10_0_1)">
<circle cx="18.625" cy="18.2728" r="17.4676" stroke="#FBF9E9" stroke-width="2"/>
<ellipse cx="36.0926" cy="35.3839" rx="17.4676" ry="17.4676" stroke="#FBF9E9" stroke-width="2"/>
<ellipse cx="53.5602" cy="18.2728" rx="17.4676" ry="17.4676" stroke="#FBF9E9" stroke-width="2"/>
<ellipse cx="18.625" cy="53.2081" rx="17.4676" ry="17.4676" stroke="#FBF9E9" stroke-width="2"/>
<circle cx="53.5602" cy="53.2081" r="17.4676" stroke="#FBF9E9" stroke-width="2"/>
<ellipse cx="36.0926" cy="0.448793" rx="17.4676" ry="17.4676" stroke="#FBF9E9" stroke-width="2"/>
<ellipse cx="36.0926" cy="70.3192" rx="17.4676" ry="17.4676" stroke="#FBF9E9" stroke-width="2"/>
<circle cx="1.15741" cy="70.3192" r="17.4676" stroke="#FBF9E9" stroke-width="2"/>
<circle cx="71.0278" cy="70.3192" r="17.4676" stroke="#FBF9E9" stroke-width="2"/>
<circle cx="71.0278" cy="35.3839" r="17.4676" stroke="#FBF9E9" stroke-width="2"/>
<circle cx="71.0278" cy="0.448793" r="17.4676" stroke="#FBF9E9" stroke-width="2"/>
<circle cx="1.15741" cy="0.448793" r="17.4676" stroke="#FBF9E9" stroke-width="2"/>
<circle cx="1.15741" cy="35.3839" r="17.4676" stroke="#FBF9E9" stroke-width="2"/>
</g>
</g>
</g>
</g>
<defs>
<clipPath id="clip0_0_1">
<rect width="1280" height="5423" fill="white" transform="translate(-923 -3265)"/>
</clipPath>
<clipPath id="clip1_0_1">
<rect width="1283" height="616" fill="white" transform="translate(-926 -489)"/>
</clipPath>
<clipPath id="clip2_0_1">
<rect width="71.2963" height="71.2963" fill="white" transform="translate(71.7407 -69.7778)"/>
</clipPath>
<clipPath id="clip3_0_1">
<rect width="71.2963" height="71.2963" fill="white" transform="translate(-70.8519 -69.7778)"/>
</clipPath>
<clipPath id="clip4_0_1">
<rect width="71.2963" height="71.2963" fill="white" transform="translate(0.444458 -69.7778)"/>
</clipPath>
<clipPath id="clip5_0_1">
<rect width="71.2963" height="71.2963" fill="white" transform="translate(71.7407 69.9629)"/>
</clipPath>
<clipPath id="clip6_0_1">
<rect width="71.2963" height="71.2963" fill="white" transform="translate(-70.8519 69.9629)"/>
</clipPath>
<clipPath id="clip7_0_1">
<rect width="71.2963" height="71.2963" fill="white" transform="translate(0.444458 69.9629)"/>
</clipPath>
<clipPath id="clip8_0_1">
<rect width="71.2963" height="71.2963" fill="white" transform="translate(71.7407 0.0922852)"/>
</clipPath>
<clipPath id="clip9_0_1">
<rect width="71.2963" height="71.2963" fill="white" transform="translate(-70.8519 0.0922852)"/>
</clipPath>
<clipPath id="clip10_0_1">
<rect width="71.2963" height="71.2963" fill="white" transform="translate(0.444458 0.0922852)"/>
</clipPath>
</defs>
</svg>
