<svg viewBox="0 0 221 214" fill="none" xmlns="http://www.w3.org/2000/svg">
<g opacity="0.8">
<path d="M204.684 107.222C202.682 108.498 200.769 109.751 198.823 110.952C195.194 113.192 191.59 115.477 187.89 117.596C185.95 118.708 183.83 119.505 181.795 120.454C180.326 121.139 178.839 121.791 177.405 122.545C173.997 124.334 170.586 126.12 167.235 128.013C164.448 129.587 161.703 131.246 159.013 132.981C153.079 136.81 146.906 140.219 140.692 143.558C134.936 146.651 129.163 149.709 123.398 152.782C120.519 154.318 117.573 155.743 114.778 157.419C111.482 159.395 108.269 161.519 105.108 163.707C101.688 166.074 98.37 168.587 95.01 171.04C94.1421 171.673 93.6065 171.577 93.0011 170.649C90.8541 167.357 88.6769 164.084 86.571 160.766C84.8347 158.03 83.2315 155.208 81.479 152.483C79.94 150.09 78.2454 147.798 76.6741 145.425C75.1373 143.104 73.6409 140.757 72.1811 138.387C70.2956 135.324 68.5023 132.205 66.5989 129.153C64.767 126.216 63.2511 123.12 61.7677 120.002C61.3568 119.139 60.972 118.256 60.4808 117.439C57.3871 112.288 54.2815 107.142 51.1313 102.026C50.8046 101.495 50.2054 101.067 49.641 100.759C48.0562 99.8932 47.6295 99.127 47.9795 97.3716C48.1245 96.6415 47.8829 96.0319 47.5219 95.4246C45.1852 91.4909 42.8537 87.5552 40.5291 83.6146C39.3999 81.6999 38.2899 79.7749 37.1728 77.8531C36.7373 77.1027 36.919 76.57 37.7229 76.0299C38.9993 75.1734 40.2789 74.3195 41.5187 73.4121C42.9762 72.3459 44.4006 71.2332 45.824 70.1219C46.7247 69.419 47.6083 68.6928 48.4826 67.9567C49.1717 67.3768 49.4027 66.6115 49.3507 65.7226C49.3084 65.0017 49.3231 64.2766 49.331 63.5537C49.3593 61.0191 49.5109 58.4799 49.4068 55.9515C49.0901 48.2294 49.3843 40.53 50.1386 32.8466C50.4878 29.2898 50.9945 25.7484 51.3887 22.1963C52.0308 16.4117 52.6041 10.6201 53.2733 4.83883C53.7832 0.43872 54.2981 -3.95718 54.3056 -8.39485C54.3078 -9.57928 54.275 -10.7634 54.2664 -11.9478C54.2593 -12.9957 54.5472 -13.3604 55.5623 -13.4837C59.2981 -13.9379 63.0411 -14.3343 66.7716 -14.8241C77.9193 -16.2882 89.1394 -16.2412 100.347 -16.5071C105.067 -16.6192 109.783 -17.0481 114.502 -17.0596C125.3 -17.084 136.099 -17.0037 146.897 -16.8425C154.416 -16.7299 161.914 -17.0532 169.416 -17.4534C172.883 -17.6383 176.361 -17.6148 179.833 -17.7005C181.371 -17.7387 182.913 -17.7582 184.445 -17.8793C189.297 -18.2644 194.142 -18.7632 198.999 -19.0683C200.744 -19.1782 201.948 -20.0004 203.101 -21.1202C203.547 -21.5533 204.024 -21.9618 204.528 -22.3259C205.21 -22.8188 205.947 -22.7423 206.373 -22.0332C208.913 -17.8062 212.535 -14.4676 215.648 -10.7131C224.737 0.249433 233.887 11.1627 242.986 22.1172C246.188 25.9711 249.185 30.0005 252.504 33.7469C256.431 38.1785 260.618 42.3804 264.669 46.7035C267.527 49.7523 270.329 52.8539 273.203 55.8871C273.695 56.4063 274.375 56.8466 275.052 57.0774C281.415 59.2432 287.804 61.3288 294.167 63.4935C297.434 64.6051 300.672 65.8056 303.905 67.0152C304.955 67.4081 304.944 67.9101 304.221 68.7945C303.454 69.7331 302.692 70.721 302.165 71.8033C299.718 76.8362 297.783 82.0843 295.764 87.298C295.067 89.0973 294.149 90.8107 293.401 92.5917C292.444 94.8687 291.526 97.164 290.646 99.472C288.958 103.899 287.324 108.346 285.63 112.771C285.351 113.5 284.909 114.173 284.494 114.843C283.942 115.737 283.412 115.918 282.445 115.508C281.296 115.02 280.167 114.486 279.043 113.944C270.817 109.976 262.594 106.002 254.372 102.025C253.624 101.662 252.871 101.299 252.158 100.873C251.485 100.473 250.946 100.541 250.349 101.041C245.916 104.751 241.468 108.443 237.022 112.139C231.905 116.393 226.82 120.685 221.652 124.877C219.807 126.375 219.671 126.161 218.396 124.623C216.648 122.516 214.925 120.362 213.441 118.068C211.352 114.836 208.99 111.854 206.317 109.101C205.757 108.52 205.256 107.882 204.684 107.222ZM164.568 51.9145C164.504 51.9469 164.44 51.9798 164.375 52.0115C164.366 52.213 164.325 52.4199 164.352 52.6164C164.608 54.4827 164.862 56.3501 165.149 58.2115C165.258 58.9259 165.474 59.6243 165.587 60.3386C165.614 60.5134 165.475 60.7936 165.324 60.8901C165.223 60.9555 164.892 60.8407 164.798 60.7099C164.536 60.3468 164.254 59.9584 164.138 59.5363C163.416 56.9235 163.528 54.2335 163.433 51.5611C163.414 51.0035 163.281 50.4243 163.072 49.9073C162.899 49.4772 162.549 49.1134 162.255 48.7371C159.928 45.7591 157.6 42.7825 155.262 39.8131C154.199 38.4633 153.121 37.126 152.04 35.7906C150.686 34.1195 149.434 32.3464 147.93 30.8222C146.369 29.2393 145.251 27.5237 144.895 25.3177C144.745 24.386 144.782 24.1866 145.574 23.6521C147.473 22.3739 149.408 21.1458 151.26 19.8058C153.652 18.0752 155.981 16.2584 158.33 14.471C159.421 13.6413 160.501 12.7965 161.579 11.9497C161.971 11.6423 162.102 11.2598 161.995 10.7398C161.85 10.03 161.754 9.30315 161.716 8.57946C161.485 4.16343 161.268 -0.253447 161.069 -4.67039C161.034 -5.45561 161.09 -6.24771 161.143 -7.0337C161.169 -7.41896 161.385 -7.73224 161.824 -7.68252C162.298 -7.6293 162.406 -7.27892 162.352 -6.85392C162.273 -6.23558 162.125 -5.61626 162.134 -4.99935C162.16 -3.23857 162.224 -1.47767 162.321 0.280945C162.475 3.07918 162.653 5.87701 162.855 8.67271C162.898 9.27256 163.085 9.86174 163.224 10.5476C163.839 10.1925 164.344 9.9781 164.758 9.65012C166.991 7.88054 169.193 6.07373 171.426 4.30483C171.773 4.03047 171.852 3.77632 171.789 3.35657C171.347 0.413418 171.124 -2.54145 171.425 -5.51593C171.459 -5.8455 171.37 -6.32925 171.883 -6.32023C172.37 -6.31177 172.304 -5.84279 172.349 -5.50507C172.364 -5.40266 172.362 -5.29826 172.364 -5.19445C172.405 -3.74328 172.388 -2.28796 172.501 -0.842507C172.593 0.338713 172.84 1.50717 173.037 2.80419C173.469 2.47691 173.77 2.26002 174.058 2.0282C175.775 0.647143 177.5 -0.724313 179.192 -2.13597C179.427 -2.33181 179.603 -2.72856 179.614 -3.0393C179.643 -3.92851 179.539 -4.8216 179.552 -5.71191C179.571 -7.05712 179.628 -8.40252 179.708 -9.74511C179.728 -10.0795 179.812 -10.5198 180.294 -10.4842C180.778 -10.4476 180.755 -10.0213 180.757 -9.66951C180.763 -8.94288 180.723 -8.21489 180.755 -7.48984C180.808 -6.31917 180.904 -5.15004 180.982 -3.98017C181.07 -3.93555 181.157 -3.88987 181.245 -3.84524C187.44 -8.08773 193.323 -12.7245 198.815 -17.874C198.604 -17.9636 198.442 -17.9793 198.284 -17.966C194.616 -17.6515 190.95 -17.3114 187.28 -17.0248C185.062 -16.8517 182.839 -16.7121 180.616 -16.6448C177.082 -16.5372 173.545 -16.524 170.011 -16.4324C162.69 -16.2423 155.372 -15.9689 148.051 -15.8428C143.831 -15.7702 139.606 -15.9313 135.384 -15.9607C133.595 -15.9738 131.805 -15.8982 130.016 -15.8988C123.296 -15.9023 116.576 -15.9595 109.857 -15.9184C105.513 -15.8921 101.181 -15.5326 96.8318 -15.4717C89.1991 -15.3639 81.5704 -14.9376 73.9414 -14.6037C72.6809 -14.5484 71.4279 -14.2978 70.1741 -14.1169C68.9193 -13.9364 67.6706 -13.708 66.4143 -13.5409C63.0566 -13.0944 59.696 -12.6686 56.3354 -12.2365C55.7868 -12.1656 55.542 -11.8635 55.5512 -11.3087C55.5785 -9.64675 55.6169 -7.98405 55.5984 -6.32178C55.5845 -5.03616 55.5387 -3.74656 55.4218 -2.46629C55.288 -0.997334 55.0435 0.460825 54.8773 1.92684C54.0108 9.5688 53.1985 17.2173 52.2807 24.8529C51.241 33.5064 50.2512 42.1716 50.5083 50.8963C50.722 58.1537 50.3512 65.3965 50.3307 72.6459C50.3115 79.5439 49.9796 86.4415 50.3098 93.3413C50.367 94.5445 50.4381 95.7451 50.0797 96.9282C49.9742 97.2767 49.9954 97.67 49.9947 98.0426C49.9903 99.7417 50.0694 99.8318 51.765 99.9203C54.9721 100.088 58.1718 100.007 61.3618 99.624C65.8434 99.0867 70.3307 98.592 74.8039 97.9903C78.8427 97.4468 82.8542 96.6879 86.8989 96.2029C90.1718 95.8107 93.4749 95.6716 96.7666 95.4411C104.112 94.9281 111.449 94.3885 118.771 93.5306C130.918 92.1067 143.104 91.007 155.268 89.7141C165.195 88.6587 175.087 87.2602 185.053 86.5623C186.306 86.4742 187.544 86.1705 188.901 85.9489C188.745 85.6045 188.666 85.3515 188.526 85.139C188.263 84.7404 187.958 84.3697 187.681 83.9799C184.509 79.4995 181.344 75.0141 178.16 70.5424C177.839 70.0904 177.403 69.7207 177.02 69.3128C176.88 69.6054 176.864 69.7903 176.88 69.9724C177.136 72.8441 177.401 75.7159 177.651 78.5879C177.705 79.2049 177.733 79.8262 177.727 80.4454C177.726 80.5819 177.552 80.7667 177.412 80.8313C177.346 80.8625 177.104 80.69 177.06 80.5671C176.85 79.9877 176.573 79.4029 176.515 78.8018C176.159 75.1146 175.819 71.4251 175.569 67.7302C175.52 67.0034 175.293 66.4606 174.875 65.9435C173.884 64.7154 172.804 63.5509 171.892 62.266C169.787 59.2991 167.767 56.2716 165.697 53.2802C165.364 52.7972 164.947 52.3687 164.568 51.9145ZM249.524 99.7551C249.129 99.4882 248.909 99.2886 248.651 99.1739C244.853 97.4807 241.092 95.6898 237.235 94.1395C232.16 92.1 227.004 90.2599 221.891 88.3102C221.335 88.0983 220.802 87.7828 220.323 87.4278C219.699 86.9643 219.483 86.2363 219.952 85.6343C220.139 85.3932 220.179 85.0193 220.235 84.6961C221.182 79.1584 222.344 73.6698 224.038 68.3057C225.064 65.0555 226.157 61.8256 227.117 58.556C227.883 55.9454 228.506 53.2921 229.169 50.6528C229.645 48.7612 230.036 46.848 230.554 44.9688C230.868 43.8271 231.545 43.407 232.722 43.6141C234.541 43.9341 236.357 44.3021 238.145 44.7645C240.763 45.4424 243.354 46.2208 245.956 46.9578C247.516 47.3998 249.103 47.7651 250.629 48.3008C257.147 50.5895 263.646 52.9302 270.152 55.2496C270.398 55.337 270.651 55.4042 270.9 55.4806C270.935 55.4387 270.97 55.3973 271.005 55.3554C270.74 54.968 270.516 54.5433 270.203 54.2007C268.14 51.9467 266.129 49.6386 263.966 47.4831C259.622 43.1529 255.296 38.8082 251.389 34.0719C247.315 29.1331 243.274 24.1675 239.207 19.2231C235.378 14.5668 231.536 9.92186 227.697 5.27386C225.302 2.37386 222.928 -0.544197 220.495 -3.41158C218.733 -5.48759 216.808 -7.42892 215.1 -9.54584C212.042 -13.3368 208.749 -16.9114 205.41 -20.4482C205.158 -20.7147 204.983 -20.9567 204.559 -20.6173C202.383 -18.878 200.174 -17.1807 197.989 -15.4531C193.062 -11.5591 188.154 -7.64182 183.216 -3.76285C180.78 -1.84925 178.254 -0.0481316 175.843 1.89472C173.805 3.53749 171.967 5.43856 169.876 7.00498C162.423 12.5888 155.32 18.6449 147.459 23.6794C146.676 24.1802 146.458 24.864 146.577 25.699C146.638 26.1238 146.74 26.5753 146.953 26.9396C147.413 27.7249 147.877 28.5314 148.479 29.2049C151.009 32.0396 153.474 34.9183 155.67 38.0298C158.018 41.3583 160.447 44.6305 162.87 47.906C166.616 52.9708 170.428 57.9874 174.137 63.0789C179.531 70.4847 184.854 77.9415 190.216 85.3708C192.11 87.9939 194.016 90.609 195.941 93.2089C198.427 96.5639 200.942 99.8973 203.438 103.245C204.542 104.725 205.592 106.247 206.737 107.693C207.661 108.86 208.769 109.887 209.661 111.075C211.84 113.98 213.914 116.962 216.088 119.87C216.979 121.061 218.014 122.144 218.993 123.267C219.433 123.771 220.028 123.835 220.596 123.616C221.25 123.365 221.93 123.088 222.473 122.664C225.355 120.408 228.23 118.144 231.043 115.803C233.151 114.048 235.13 112.14 237.217 110.36C240.649 107.43 244.128 104.556 247.571 101.641C248.228 101.085 248.815 100.444 249.524 99.7551ZM131.27 132.894C130.58 133.175 130.198 132.873 129.948 132.521C129.002 131.185 128.065 129.839 127.203 128.449C126.57 127.427 126.081 126.317 125.485 125.27C123.903 122.487 122.306 119.711 120.695 116.944C119.996 115.741 119.281 114.543 118.516 113.381C116.985 111.056 115.352 108.796 113.875 106.438C111.8 103.125 109.924 99.6968 108.425 96.0768C108.268 95.6979 108.055 95.5708 107.621 95.6028C104.882 95.804 102.137 95.9225 99.401 96.157C96.6551 96.3928 93.918 96.7324 91.1771 97.0282C91.0324 97.0442 90.8875 97.0613 90.745 97.0904C89.881 97.265 89.8391 97.451 90.3526 98.1789C91.2514 99.4506 92.1786 100.71 92.9687 102.049C95.3435 106.077 97.4789 110.236 99.9211 114.233C104.248 121.313 107.783 128.828 111.515 136.233C112.299 137.789 113.232 139.27 114.067 140.802C114.482 141.565 114.847 142.358 115.186 143.157C115.256 143.321 115.108 143.578 115.06 143.793C114.87 143.685 114.595 143.625 114.503 143.462C113.931 142.452 113.412 141.414 112.855 140.395C112.029 138.882 111.162 137.39 110.36 135.865C109.538 134.304 108.682 132.751 108.005 131.127C106.735 128.074 105.326 125.095 103.645 122.251C102.431 120.194 101.105 118.204 99.8866 116.151C98.7841 114.292 97.7527 112.391 96.7049 110.5C96.0209 109.266 95.392 108 94.6851 106.779C93.9575 105.521 93.1866 104.287 92.3947 103.068C91.3884 101.52 90.3759 99.9744 89.2976 98.4762C88.7626 97.7328 88.0838 97.0912 87.0096 97.2774C85.6779 97.5086 84.3478 97.7506 83.0112 97.9468C79.2894 98.4937 75.5653 99.0194 71.725 99.5699C71.8937 99.9365 72.0728 100.296 72.2257 100.667C72.388 101.061 72.6931 101.488 72.645 101.862C72.4752 103.18 72.7161 104.429 73.0864 105.667C73.9729 108.634 74.7991 111.625 76.4398 114.298C77.4615 115.963 78.5728 117.579 79.4993 119.294C80.6235 121.375 82.1922 123.03 84.024 124.459C85.087 125.289 86.216 126.137 87.5895 126.269C88.7761 126.383 89.515 127.028 90.2353 127.815C90.4599 128.06 90.6839 128.306 90.8932 128.563C91.9993 129.931 93.0487 131.347 94.2168 132.658C95.7274 134.353 97.4494 135.815 99.4709 136.897C99.6365 136.986 99.7207 137.225 99.843 137.395C99.6503 137.483 99.449 137.661 99.2667 137.643C98.7537 137.592 98.2515 137.441 97.7399 137.366C97.3358 137.307 96.9238 137.302 96.3956 137.265C96.5554 137.542 96.6081 137.652 96.6779 137.751C97.0392 138.259 97.4301 138.748 97.7539 139.279C97.8632 139.459 97.8823 139.777 97.795 139.962C97.7442 140.07 97.3808 140.113 97.1929 140.06C96.6949 139.921 96.1635 139.796 95.7384 139.522C93.2051 137.891 90.5823 136.379 88.4394 134.211C88.2989 134.069 88.1336 133.952 87.9681 133.813C87.7255 134.065 87.5258 134.275 87.3231 134.482C86.6176 135.202 86.1365 135.355 85.265 134.883C84.5449 134.494 83.7919 134.04 83.2708 133.429C81.1653 130.966 79.0398 128.506 77.1148 125.903C74.0297 121.732 71.4933 117.218 69.2027 112.563C67.7542 109.62 66.8145 106.507 66.0004 103.35C65.7022 102.194 65.9521 101.732 66.9495 101.128C67.1544 101.005 67.2532 100.707 67.4001 100.489C67.1591 100.379 66.9115 100.164 66.6773 100.177C65.6604 100.237 64.6484 100.372 63.6333 100.463C60.0703 100.781 56.5124 101.207 52.9215 100.981C52.6011 100.96 52.2749 101.036 51.8426 101.078C52.0356 101.411 52.1695 101.659 52.3179 101.897C53.1183 103.187 53.9488 104.458 54.7191 105.764C56.9152 109.491 59.0964 113.225 61.26 116.97C61.7582 117.832 62.1709 118.744 62.6065 119.641C63.2316 120.929 63.802 122.245 64.467 123.512C65.2494 125.003 66.075 126.473 66.9386 127.919C69.6687 132.488 72.4086 137.052 75.1821 141.595C76.0041 142.941 76.9045 144.245 77.8487 145.509C79.7424 148.044 81.6061 150.593 83.0542 153.42C83.5939 154.474 84.118 155.547 84.7714 156.53C87.5132 160.649 90.299 164.738 93.076 168.834C93.542 169.522 93.9572 169.701 94.7121 169.332C96.0159 168.694 97.3285 168.04 98.5243 167.227C100.669 165.767 102.659 164.075 104.839 162.675C109.563 159.64 114.293 156.603 119.158 153.802C123.517 151.292 128.076 149.129 132.515 146.756C136.752 144.49 140.964 142.174 145.161 139.834C148.83 137.788 152.488 135.72 156.107 133.585C159.563 131.545 162.928 129.35 166.397 127.331C168.57 126.066 170.898 125.071 173.087 123.833C176.42 121.948 179.725 120.041 183.316 118.647C186.292 117.492 188.981 115.763 191.676 114.062C195.212 111.829 198.788 109.661 202.33 107.438C202.813 107.135 203.204 106.684 203.626 106.288C203.918 106.013 203.879 105.745 203.64 105.42C201.54 102.555 199.49 99.6516 197.358 96.8101C195.224 93.9666 193 91.1917 190.847 88.3623C190.221 87.5386 189.452 87.2519 188.458 87.3631C187.176 87.5062 185.891 87.6137 184.607 87.7357C180.031 88.1691 175.454 88.6018 170.879 89.0376C170.664 89.0582 170.451 89.1044 170.227 89.1402C170.462 89.7628 170.669 90.3123 170.877 90.8615C170.81 90.9018 170.743 90.9421 170.676 90.9823C170.515 90.8811 170.315 90.8115 170.2 90.6719C169.936 90.3538 169.678 90.0198 169.485 89.657C169.313 89.3328 169.119 89.23 168.751 89.2678C165.213 89.633 161.672 89.9793 158.133 90.3345C157.902 90.3574 157.673 90.4074 157.352 90.4605C158.434 92.1346 159.481 93.682 160.456 95.2743C163.342 99.9916 166.197 104.727 169.068 109.453C169.36 109.933 169.701 110.384 169.961 110.879C170.053 111.052 169.975 111.316 169.974 111.539C169.753 111.493 169.519 111.477 169.316 111.391C169.198 111.341 169.116 111.186 169.036 111.067C168.643 110.48 168.244 109.896 167.87 109.298C165.039 104.766 162.219 100.227 159.383 95.6986C158.37 94.0804 157.325 92.4819 156.275 90.8865C156.186 90.7516 155.945 90.6261 155.788 90.6411C152.496 90.9529 149.204 91.2665 145.916 91.6275C145.188 91.7078 144.479 91.9683 143.599 92.1865C144.475 93.7037 145.267 95.0896 146.075 96.4658C146.822 97.7386 147.596 98.9951 148.336 100.272C148.487 100.534 148.538 100.853 148.635 101.147C148.549 101.195 148.464 101.243 148.377 101.291C148.082 100.902 147.752 100.535 147.497 100.121C145.977 97.6424 144.455 95.1648 142.988 92.6546C142.756 92.2573 142.55 92.1189 142.136 92.1524C140.291 92.3021 138.445 92.4424 136.6 92.5921C136.44 92.6052 136.284 92.662 136.088 92.7076C136.155 92.8407 136.191 92.9348 136.245 93.0177C137.472 94.8941 138.809 96.7082 139.909 98.6561C142.78 103.743 145.564 108.88 148.353 114.014C149.88 116.825 151.35 119.667 152.835 122.502C152.955 122.732 152.993 123.006 153.069 123.26C153.001 123.299 152.933 123.338 152.866 123.378C152.712 123.244 152.518 123.136 152.409 122.971C151.824 122.088 151.218 121.214 150.696 120.295C148.961 117.24 147.294 114.147 145.535 111.106C142.09 105.149 138.598 99.2185 135.137 93.2694C134.957 92.9589 134.829 92.7635 134.399 92.8102C129.808 93.3108 125.214 93.7855 120.621 94.2698C120.44 94.289 120.261 94.3329 120.133 94.3556C120.647 95.2457 121.135 96.131 121.661 96.9922C122.918 99.0493 124.213 101.083 125.454 103.149C126.759 105.324 128.017 107.526 129.301 109.714C129.817 110.592 130.314 111.483 130.879 112.33C132.555 114.84 134.067 117.44 135.335 120.179C135.403 120.326 135.322 120.542 135.31 120.727C135.142 120.649 134.911 120.616 134.818 120.486C134.386 119.876 133.974 119.25 133.586 118.611C131.482 115.149 129.411 111.666 127.28 108.221C125.29 105.004 123.239 101.825 121.216 98.6298C120.45 97.4199 119.65 96.2295 118.937 94.9892C118.718 94.6085 118.541 94.5201 118.132 94.5645C115.175 94.8851 112.214 95.1781 109.255 95.4828C109.098 95.4993 108.942 95.5393 108.724 95.5799C108.877 95.8449 109 96.0569 109.123 96.2697C109.679 97.2441 110.289 98.1934 110.783 99.1988C112.612 102.925 114.922 106.356 117.183 109.822C118.772 112.258 120.365 114.692 121.902 117.161C123.044 118.996 124.118 120.875 125.188 122.753C126.122 124.394 127.003 126.064 127.921 127.714C128.585 128.908 129.241 130.109 129.96 131.27C130.306 131.831 130.792 132.31 131.27 132.894ZM302.557 67.7267C301.188 67.147 299.829 66.4726 298.404 65.9859C292.853 64.0865 287.276 62.2615 281.719 60.3803C272.891 57.3922 264.049 54.4437 255.255 51.3594C248.989 49.1621 242.689 47.0878 236.277 45.3631C235.408 45.1292 234.481 45.0756 233.576 45.0116C232.862 44.9613 232.344 45.3625 232.057 45.9995C231.82 46.5283 231.619 47.0786 231.458 47.6345C229.919 52.9443 228.406 58.2614 226.857 63.5679C225.99 66.5397 224.99 69.4748 224.189 72.4639C223.005 76.882 221.999 81.3441 221.433 85.8923C221.311 86.8742 221.295 86.8825 222.237 87.2684C223.238 87.6783 224.236 88.096 225.237 88.5052C227.143 89.2843 229.007 90.1988 230.966 90.808C234.65 91.9542 238.239 93.3258 241.758 94.8933C246.556 97.0321 251.426 98.9989 256.061 101.52C260.639 104.011 265.388 106.19 270.084 108.46C274.036 110.37 278.015 112.223 281.991 114.08C282.9 114.505 283.489 114.275 283.93 113.378C284.333 112.559 284.735 111.735 285.055 110.882C285.902 108.626 286.68 106.345 287.529 104.089C288.868 100.532 290.089 96.9334 291.853 93.5388C293.163 91.0188 294.287 88.3923 295.337 85.7497C296.741 82.2159 297.935 78.5987 299.329 75.0602C300.279 72.6486 301.413 70.3076 302.557 67.7267ZM71.6661 102.293C70.4203 102.815 69.3137 102.409 68.1825 102.008C67.19 101.655 66.6999 102.129 66.8767 103.176C66.9146 103.4 66.9692 103.622 67.0202 103.845C67.997 108.104 69.6444 112.114 71.7692 115.91C73.3901 118.807 75.1823 121.611 76.9763 124.407C77.8356 125.745 78.8139 127.021 79.8494 128.23C81.3755 130.012 83.0141 131.697 84.5761 133.45C85.0008 133.926 85.4376 134.221 86.0881 134.074C86.7301 133.929 87.0653 133.492 87.2371 132.888C87.6013 131.609 87.9794 130.334 88.3394 129.054C88.61 128.094 88.4861 127.828 87.5714 127.392C87.3104 127.267 87.0206 127.205 86.7542 127.09C86.2224 126.86 85.6479 126.685 85.1783 126.361C82.354 124.42 80.0892 121.939 78.2977 119.028C77.5681 117.842 76.9638 116.574 76.1744 115.432C74.9418 113.652 74.1472 111.692 73.4564 109.663C72.7534 107.6 72.1257 105.524 71.8904 103.346C71.8562 103.02 71.7561 102.702 71.6661 102.293ZM48.3982 94.966C48.4584 94.9394 48.519 94.9134 48.5786 94.8872C48.6101 94.7907 48.6403 94.6933 48.6744 94.5981C49.1741 93.1969 49.1091 91.7374 49.1321 90.2838C49.2174 84.8456 48.769 79.4058 49.1643 73.9667C49.2518 72.7664 49.232 71.5595 49.2567 70.3549C49.2608 70.1548 49.2396 69.953 49.2273 69.703C49.0575 69.7704 48.9431 69.8076 48.8366 69.86C45.1313 71.6767 42.1568 74.4943 38.9855 77.0416C38.4588 77.4649 38.4546 77.995 38.7573 78.5514C39.255 79.4638 39.7482 80.3778 40.2641 81.2797C42.4602 85.1227 44.6519 88.9673 46.8743 92.7952C47.3172 93.5566 47.8876 94.2445 48.3982 94.966ZM95.7555 135.674C95.7434 135.612 95.7484 135.562 95.7258 135.535C93.8685 133.418 92.0124 131.299 90.1415 129.194C89.9508 128.979 89.6634 128.851 89.3675 128.646C89.1047 129.619 88.9273 130.497 88.6275 131.332C88.2591 132.356 88.6134 133.161 89.2591 133.892C89.5851 134.261 89.9659 134.601 90.3744 134.877C91.6614 135.751 92.9678 136.597 94.2812 137.432C94.519 137.583 94.8249 137.628 95.211 137.761C95.0106 137.174 94.7869 136.759 94.7392 136.324C94.6527 135.547 95.4054 135.875 95.7555 135.674ZM70.7348 99.481C69.8191 99.6503 68.9581 99.8098 68.1066 99.9672C68.164 101.149 68.7025 101.577 69.9331 101.5C71.0825 101.427 71.2306 101.223 70.9221 100.14C70.872 99.9629 70.8216 99.787 70.7348 99.481Z" fill="#222222"/>
<path d="M68.7486 10.9019C69.9215 10.765 70.546 10.056 71.2277 9.41656C71.4389 9.21832 71.8334 8.97106 72.0265 9.04669C72.4607 9.21706 72.3505 9.67262 72.2082 10.0244C71.7008 11.2754 71.2039 12.5321 70.6435 13.7597C69.4858 16.2993 68.6469 18.8968 68.8123 21.7432C68.873 22.7871 68.5964 23.7818 67.8231 24.5415C66.3734 25.9655 65.3869 27.7096 64.4999 29.4906C63.139 32.2219 62.7873 35.2046 62.6953 38.2112C62.6502 39.7045 62.7248 41.2025 62.7717 42.6976C62.8235 44.349 63.0827 45.9608 63.7369 47.4959C64.2272 48.6462 64.9238 49.6444 65.8849 50.4397C66.6677 51.0869 67.0352 51.9035 67.211 52.8927C67.6074 55.1186 68.0309 57.3432 68.5539 59.542C68.7614 60.4149 69.2793 61.2113 69.6186 62.0568C69.7853 62.4713 69.866 62.9193 69.9919 63.3753C69.2747 63.5579 68.9328 63.2327 68.5856 62.8952C68.2458 62.5643 67.8879 62.2519 67.3226 61.9279C67.2676 62.2626 67.2468 62.6082 67.1502 62.93C66.9708 63.5244 66.7843 64.1219 66.5225 64.6829C66.4189 64.9054 66.0616 65.2013 65.9005 65.1593C65.6674 65.0987 65.4103 64.7893 65.3321 64.5341C64.6886 62.4273 64.0915 60.3073 63.4648 58.1954C63.2318 57.4091 62.9568 56.6344 62.663 55.7367C62.4376 55.9619 62.3371 56.0496 62.2513 56.1503C61.5203 57.0097 60.672 57.0449 59.8609 56.235C59.0342 55.409 58.5451 54.4054 58.2304 53.2832C57.0406 49.0415 56.6858 44.695 56.5863 40.3199C56.5316 37.8988 56.5428 35.4747 56.5911 33.0526C56.6455 30.333 57.2257 27.6896 58.0333 25.1065C58.6585 23.1079 59.2651 21.0786 60.6165 19.4037C61.031 18.8905 61.4836 18.4029 61.9602 17.9473C62.3763 17.5491 62.906 17.4082 63.4647 17.6101C64.0345 17.8156 64.2347 17.5455 64.3861 17.0473C64.9899 15.0601 65.5765 13.0648 66.2595 11.1039C66.6401 10.0105 67.1962 8.97769 67.6785 7.92005C67.7295 7.80885 67.7965 7.68658 67.8919 7.61807C68.063 7.49514 68.2597 7.40868 68.446 7.30751C68.5359 7.5191 68.6944 7.72798 68.7031 7.94234C68.7415 8.90563 68.7369 9.86939 68.7486 10.9019ZM61.1157 56.1696C61.8321 55.2772 62.4867 54.4196 63.1875 53.6028C63.725 52.9754 64.2774 52.3475 64.9026 51.8126C65.5802 51.233 65.6359 51.2656 65.0112 50.5866C63.279 48.7048 62.1211 46.5271 62.014 43.9608C61.901 41.2658 61.8875 38.5548 62.0429 35.8632C62.2072 33.0236 62.9796 30.2972 64.376 27.789C65.0531 26.5732 65.78 25.3826 66.5367 24.2144C66.9279 23.6094 66.9764 23.0393 66.5708 22.4793C65.7074 21.2861 64.8144 20.1134 63.9166 18.9463C63.562 18.4855 63.1305 18.5114 62.7412 18.9076C62.235 19.4225 61.6863 19.9151 61.2773 20.5016C59.2635 23.3883 58.1016 26.6432 57.6413 30.0905C56.5749 38.0779 57.0286 45.9826 59.3861 53.7271C59.6709 54.6589 60.1985 55.4937 61.1157 56.1696ZM68.0052 9.59547C67.9586 9.59442 67.9132 9.59366 67.8667 9.59261C67.7912 9.77818 67.7043 9.95955 67.6417 10.1485C66.7908 12.7332 65.9525 15.3223 65.087 17.9018C64.9466 18.3208 65.0386 18.5951 65.3374 18.8894C65.9681 19.5119 66.5765 20.1564 67.1832 20.8027C67.3683 20.9998 67.5149 21.2317 67.7264 21.5089C68.1949 17.8969 68.9583 14.4789 70.4866 11.2474C70.2253 11.3621 69.9953 11.4938 69.7892 11.6558C69.0383 12.2471 68.4045 12.0211 68.2272 11.0759C68.1739 10.7937 68.1949 10.4984 68.1564 10.2122C68.1272 10.0043 68.0566 9.80133 68.0052 9.59547ZM68.0283 61.1119C67.8328 60.4046 67.5982 59.72 67.4592 59.017C67.0631 57.0158 66.7086 55.0058 66.3301 53.0007C66.2078 52.3501 65.833 52.1859 65.3709 52.6322C64.7794 53.2035 64.2267 53.8216 63.7142 54.4642C63.3654 54.901 63.3239 55.3852 63.5374 55.9741C64.1983 57.7949 64.7819 59.644 65.3641 61.4921C65.6003 62.2433 65.7559 63.0202 65.9479 63.7852C66.1975 63.2142 66.3114 62.6513 66.4619 62.0988C66.7112 61.18 67.0808 60.9489 68.0283 61.1119Z" fill="#222222"/>
<path d="M142.907 82.2096C142.873 81.6543 142.812 81.1587 142.814 80.6639C142.828 77.6945 142.872 74.724 142.872 71.7543C142.872 70.697 142.788 69.6391 142.726 68.5827C142.494 64.6875 142.221 60.7941 142.032 56.8967C141.912 54.4292 141.986 51.9512 141.838 49.4858C141.737 47.7926 141.38 46.1159 141.182 44.4269C140.843 41.5455 140.511 38.6627 140.24 35.7742C140.169 35.0212 140.303 34.2432 140.405 33.4854C140.428 33.3082 140.753 33.0051 140.853 33.0364C141.086 33.1093 141.287 33.3334 141.462 33.5308C141.526 33.6027 141.494 33.7714 141.486 33.895C141.243 37.5448 141.778 41.1323 142.34 44.7181C142.622 46.5173 142.98 48.3122 143.129 50.1231C143.281 51.958 143.172 53.8123 143.256 55.6551C143.451 59.9881 143.688 64.3191 143.92 68.6503C144.101 72.0493 144.348 75.4458 144.465 78.8469C144.502 79.9066 144.232 80.9829 144.042 82.0408C144.008 82.2295 143.696 82.4453 143.477 82.4978C143.323 82.5353 143.107 82.3184 142.907 82.2096Z" fill="#222222"/>
<path d="M123.358 84.569C123.257 84.0693 123.139 83.6686 123.098 83.2608C122.901 81.323 122.83 79.3661 122.515 77.4482C122.03 74.4888 122.061 71.5173 122.233 68.5596C122.427 65.2563 122.013 62.0101 121.728 58.7457C121.659 57.9607 121.617 57.1738 121.532 56.3912C121.05 51.9564 120.541 47.5236 120.082 43.0859C119.972 42.0195 120.012 40.9365 119.995 39.8609C119.992 39.6989 120.002 39.4925 120.096 39.3818C120.275 39.1698 120.577 38.8266 120.723 38.873C120.967 38.9504 121.312 39.2985 121.3 39.5155C121.023 44.5979 122.422 49.5513 122.431 54.6169C122.435 56.8238 122.791 59.0371 123.089 61.2333C123.435 63.7734 123.635 66.3162 123.42 68.869C123.131 72.2865 123.468 75.6695 123.854 79.0531C123.997 80.3095 124.204 81.5584 124.369 82.8131C124.428 83.2645 124.491 83.7243 124.465 84.1751C124.451 84.4261 124.279 84.8554 124.14 84.8717C123.886 84.8984 123.606 84.677 123.358 84.569Z" fill="#222222"/>
<path d="M110.48 17.7912C110.57 18.2945 110.721 18.7392 110.714 19.1813C110.686 20.8616 110.576 22.5408 110.557 24.2213C110.543 25.5034 110.505 26.8026 110.675 28.0678C111.676 35.5497 112.305 43.0525 112.173 50.6085C112.144 52.3105 112.168 54.0139 112.141 55.7167C112.135 56.1061 112.076 56.5125 111.942 56.8746C111.865 57.0826 111.606 57.32 111.4 57.3508C111.254 57.3728 110.979 57.1008 110.906 56.9057C110.785 56.5854 110.724 56.2196 110.734 55.8764C110.995 46.8709 110.811 37.8875 109.641 28.9367C109.322 26.4955 109.156 24.0297 109.036 21.5696C108.978 20.381 109.164 19.1772 109.3 17.9872C109.325 17.7687 109.616 17.4806 109.839 17.4177C109.999 17.3722 110.25 17.6474 110.48 17.7912Z" fill="#222222"/>
<path d="M129.977 36.9029C129.887 36.3377 129.769 35.8703 129.743 35.3981C129.51 31.294 129.236 27.1918 129.09 23.0842C128.955 19.2478 128.982 15.4065 128.899 11.5687C128.857 9.6383 128.738 7.71007 128.634 5.78131C128.517 3.62689 128.401 1.47249 128.241 -0.678643C128.143 -2.00045 127.931 -3.3147 127.832 -4.63612C127.735 -5.93533 127.719 -7.24041 127.665 -8.54252C127.637 -9.20433 127.607 -9.86604 127.572 -10.5271C127.554 -10.8636 127.497 -11.2544 127.938 -11.3255C128.376 -11.3954 128.481 -11.0434 128.526 -10.6872C128.582 -10.2356 128.708 -9.7817 128.69 -9.3334C128.575 -6.51419 129.105 -3.74932 129.362 -0.962176C129.441 -0.11641 129.459 0.735043 129.502 1.58435C129.57 2.95052 129.651 4.3173 129.696 5.68444C129.771 7.90278 129.964 10.1297 129.852 12.3403C129.589 17.5633 130.046 22.7541 130.321 27.9548C130.418 29.7773 130.44 31.6032 130.53 33.4257C130.581 34.4556 130.717 35.4814 130.775 36.5115C130.786 36.717 130.618 36.9329 130.532 37.1431C130.341 37.0594 130.15 36.9763 129.977 36.9029Z" fill="#222222"/>
<path d="M152.688 39.5617C152.894 40.7916 153.175 41.9426 153.266 43.1092C153.588 47.2439 153.824 51.3848 154.14 55.5191C154.22 56.5689 154.431 57.616 154.662 58.6469C155.374 61.818 155.145 65.0575 155.405 68.261C155.713 72.0477 155.99 75.8358 156.288 79.6234C156.358 80.5109 156.468 81.3952 156.541 82.2824C156.558 82.4848 156.542 82.7125 156.463 82.8941C156.389 83.0625 156.215 83.2923 156.075 83.3004C155.889 83.3105 155.654 83.1673 155.512 83.0209C155.396 82.9022 155.349 82.6839 155.335 82.5051C155.151 80.2107 154.94 77.9175 154.814 75.6196C154.629 72.262 154.57 68.8968 154.341 65.5417C154.159 62.8527 153.817 60.1735 153.522 57.4926C153.291 55.3911 152.961 53.2983 152.784 51.1925C152.486 47.6564 152.197 44.1243 151.285 40.6763C151.223 40.439 151.148 40.1602 151.217 39.9444C151.307 39.6585 151.495 39.2464 151.711 39.1961C151.968 39.136 152.302 39.4021 152.688 39.5617Z" fill="#222222"/>
<path d="M150.732 -8.30367C150.8 -7.96731 150.872 -7.74735 150.885 -7.52383C151.036 -4.9145 151.19 -2.30497 151.322 0.305512C151.523 4.30437 151.683 8.30573 151.912 12.3033C152.001 13.8743 152.231 15.4377 152.396 17.0049C152.436 17.3872 152.602 17.8653 152.001 17.9303C151.42 17.993 151.36 17.5142 151.313 17.0935C150.632 10.9023 150.329 4.68748 150.076 -1.53214C149.992 -3.58249 149.8 -5.6284 149.698 -7.67867C149.685 -7.93397 149.858 -8.27188 150.057 -8.43589C150.172 -8.53037 150.511 -8.35359 150.732 -8.30367Z" fill="#222222"/>
<path d="M133.009 84.4915C132.894 84.2571 132.838 84.1864 132.823 84.1075C132.531 82.6044 132.204 81.1062 131.979 79.5932C131.91 79.1271 132.126 78.6202 132.205 78.1305C132.351 77.2155 132.581 76.3017 132.61 75.3829C132.639 74.499 132.443 73.61 132.372 72.7209C132.14 69.8478 131.916 66.9749 131.698 64.1014C131.629 63.1908 131.563 62.2794 131.543 61.3677C131.533 60.9142 131.441 60.2803 132.086 60.2193C132.724 60.1591 132.798 60.7933 132.844 61.244C132.935 62.1302 132.948 63.0246 132.973 63.9164C133.034 66.1558 133.033 68.3985 133.157 70.6352C133.226 71.8935 133.467 73.1453 133.675 74.3928C133.879 75.6117 133.822 76.806 133.361 77.9464C132.964 78.9299 133.048 79.8985 133.275 80.8794C133.468 81.7072 133.707 82.5241 133.907 83.3497C133.97 83.6082 134.05 83.8985 133.989 84.1404C133.932 84.3661 133.73 84.6548 133.531 84.7156C133.36 84.7667 133.103 84.5365 133.009 84.4915Z" fill="#222222"/>
<path d="M84.4309 86.9794C84.2234 85.8916 83.894 84.8031 83.8251 83.6982C83.5443 79.1697 83.3804 74.6349 83.0988 70.1068C82.9179 67.1947 82.5999 64.2915 82.3616 61.3829C82.306 60.7029 82.2969 60.0159 82.3223 59.3341C82.3283 59.1607 82.5495 58.9954 82.6717 58.8269C82.8451 58.9679 83.1077 59.0781 83.1712 59.2581C83.2717 59.5409 83.2413 59.8713 83.2624 60.1819C83.7659 67.4456 84.2559 74.7108 84.7856 81.9729C84.8793 83.2531 85.1502 84.5192 85.3194 85.7945C85.3657 86.1409 85.3794 86.5025 85.3284 86.8457C85.3048 87.0041 85.1111 87.2048 84.9534 87.2526C84.8395 87.2877 84.6571 87.1061 84.4309 86.9794Z" fill="#222222"/>
<path d="M140.18 14.9276C140.083 14.4123 139.937 13.949 139.918 13.4806C139.815 10.9553 139.762 8.42733 139.656 5.90143C139.49 1.92347 139.288 -2.05232 139.124 -6.03077C139.096 -6.71036 139.14 -7.40262 139.245 -8.07382C139.28 -8.2992 139.611 -8.47739 139.807 -8.6775C139.958 -8.44098 140.236 -8.20647 140.241 -7.96612C140.386 -1.74524 140.492 4.4762 140.631 10.6971C140.659 11.9791 140.798 13.259 140.859 14.5405C140.868 14.7357 140.726 14.9371 140.655 15.1357C140.502 15.0698 140.35 15.0022 140.18 14.9276Z" fill="#222222"/>
<path d="M96.0684 83.9536C95.8977 83.6583 95.6806 83.44 95.6432 83.1946C94.7468 77.3505 93.6816 71.5211 93.9133 65.5668C93.9268 65.2148 93.9157 64.8453 94.0243 64.5193C94.0929 64.3125 94.3618 64.1718 94.5404 64.0013C94.7207 64.1932 95.0377 64.3727 95.0575 64.5798C95.1396 65.4459 95.2022 66.325 95.1474 67.191C94.8258 72.289 95.6747 77.2865 96.3866 82.2974C96.459 82.7996 96.7381 83.3588 96.0684 83.9536Z" fill="#222222"/>
<path d="M165.715 80.5147C165.606 80.1054 165.501 79.8309 165.464 79.5474C164.942 75.5329 164.596 71.5085 164.875 67.4553C164.905 67.0283 164.768 66.3922 165.422 66.3883C166.081 66.384 165.967 67.0208 165.969 67.4473C165.983 69.4983 165.878 71.5541 165.989 73.5993C166.092 75.4971 166.414 77.3838 166.642 79.2755C166.674 79.5429 166.773 79.8146 166.742 80.0725C166.711 80.3332 166.556 80.5797 166.456 80.832C166.19 80.7182 165.925 80.6046 165.715 80.5147Z" fill="#222222"/>
<path d="M120.119 34.607C120.039 34.2215 119.945 33.9215 119.918 33.6162C119.642 30.4963 119.368 27.3763 119.119 24.2549C119.066 23.5967 119.08 22.9267 119.135 22.2676C119.156 22.0124 119.376 21.7736 119.505 21.5272C119.678 21.7729 119.97 22.0038 120.001 22.2659C120.113 23.1896 120.2 24.1255 120.179 25.054C120.124 27.3729 120.489 29.6244 121.033 31.8693C121.224 32.6581 121.19 33.5096 121.182 34.3319C121.181 34.5116 120.883 34.7636 120.67 34.8412C120.53 34.8919 120.297 34.6895 120.119 34.607Z" fill="#222222"/>
<path d="M130.502 49.5901C130.441 49.1714 130.364 48.8463 130.35 48.5182C130.24 45.904 130.15 43.2893 130.034 40.675C130.006 40.0342 129.894 39.3977 129.839 38.7573C129.814 38.4494 129.776 38.122 129.854 37.8327C129.906 37.6363 130.15 37.4912 130.307 37.3231C130.462 37.4847 130.696 37.6214 130.756 37.8125C130.892 38.2445 130.991 38.6994 131.02 39.1515C131.225 42.2181 131.41 45.2862 131.594 48.3536C131.614 48.6838 131.644 49.0281 131.573 49.3449C131.532 49.5267 131.317 49.7656 131.148 49.797C130.951 49.8329 130.719 49.6675 130.502 49.5901Z" fill="#222222"/>
<path d="M90.483 84.8657C90.4573 84.5487 90.4276 84.2854 90.4165 84.0202C90.3579 82.5967 90.3489 81.1687 90.2343 79.7495C90.1169 78.3022 89.889 76.863 90.3011 75.4286C90.3581 75.2313 90.3943 74.9731 90.5336 74.8684C90.7314 74.7202 91.0162 74.6881 91.2635 74.6066C91.3233 74.841 91.4989 75.1245 91.4226 75.3007C90.9947 76.2937 90.9717 77.3067 91.1256 78.3499C91.3211 79.6802 91.5514 81.0083 91.664 82.346C91.7274 83.0988 91.6125 83.8718 91.5119 84.6275C91.4884 84.8064 91.2221 85.0185 91.024 85.0868C90.8913 85.1328 90.6793 84.953 90.483 84.8657Z" fill="#222222"/>
<path d="M140.36 21.946C140.275 21.4843 140.161 21.0628 140.126 20.6337C140.034 19.5411 139.977 18.446 139.908 17.352C139.901 17.2488 139.874 17.1235 139.92 17.0457C140.075 16.7863 140.221 16.3781 140.439 16.3291C140.886 16.2294 141.029 16.6576 141.03 17.0193C141.038 18.6109 141.02 20.2038 140.992 21.7951C140.989 21.9285 140.843 22.0597 140.763 22.1922C140.632 22.1121 140.501 22.0321 140.36 21.946Z" fill="#222222"/>
<path d="M130.905 51.1531C131.388 51.0104 131.743 51.1332 131.787 51.5503C131.866 52.3049 131.862 53.0719 131.841 53.8312C131.837 53.9692 131.591 54.1961 131.443 54.2067C131.291 54.2179 131.007 54.0371 130.982 53.9026C130.84 53.1538 130.739 52.3966 130.671 51.637C130.657 51.4708 130.837 51.287 130.905 51.1531Z" fill="#222222"/>
<path d="M190.301 37.0262C190.891 38.0471 190.579 39.0945 189.674 39.8165C188.813 40.5022 187.949 41.183 187.108 41.8914C186.633 42.291 186.179 42.7207 185.754 43.1735C184.964 44.0153 184.414 44.0015 183.702 43.0625C183.149 42.3338 182.621 41.5872 182.064 40.8622C180.394 38.6876 178.77 36.4735 177.017 34.368C176.04 33.1938 174.849 32.1968 173.74 31.1344C172.879 30.3108 172.839 30.1158 173.713 29.2879C175.086 27.9881 176.494 26.7257 177.911 25.4735C178.047 25.3527 178.412 25.313 178.552 25.4082C178.993 25.7079 179.425 26.0487 179.773 26.4485C181.361 28.274 182.836 30.2053 184.514 31.9421C185.919 33.3962 187.551 34.633 189.082 35.9669C189.549 36.3718 190.016 36.7778 190.301 37.0262ZM185.941 40.4522C186.297 40.1393 186.977 39.5633 187.631 38.958C188.434 38.2146 188.42 38.0121 187.682 37.1721C185.843 35.0801 183.999 32.9944 182.188 30.8784C181.08 29.584 180.03 28.2415 178.957 26.9181C178.647 26.5352 178.302 26.3996 177.898 26.7698C176.918 27.6679 175.93 28.5578 174.974 29.4819C174.433 30.0055 174.437 30.314 174.901 30.8848C175.162 31.2068 175.456 31.5025 175.734 31.8102C177.171 33.3939 178.644 34.9459 180.031 36.5717C180.947 37.6449 181.735 38.8255 182.588 39.9528C183.514 41.1733 184.386 41.3785 185.941 40.4522Z" fill="#222222"/>
<path d="M199.631 -3.27703C199.527 -3.52999 199.338 -3.84448 199.279 -4.18243C199.235 -4.4289 199.278 -4.83646 199.434 -4.93721C199.643 -5.07219 200.095 -5.10451 200.275 -4.96566C200.927 -4.46124 201.571 -3.92047 202.105 -3.29664C203.87 -1.23058 205.489 0.966983 207.339 2.95086C210.916 6.78781 214.612 10.5143 218.261 14.2859C219.457 15.5234 220.667 16.7478 221.847 18.0017C222.106 18.2767 222.6 18.6381 222.184 19.0422C221.721 19.4928 221.394 18.9225 221.122 18.6507C215.3 12.8194 209.49 6.97619 203.684 1.12924C202.53 -0.0329633 201.4 -1.2196 200.271 -2.40635C200.043 -2.64523 199.875 -2.93971 199.631 -3.27703Z" fill="#222222"/>
<path d="M182.684 46.4961C181.422 47.088 180.474 47.5086 179.548 47.9727C177.534 48.9805 176.051 50.6085 174.604 52.2713C174.035 52.925 173.787 53.0155 173.066 52.5487C172.32 52.066 171.61 51.5173 170.941 50.933C170.239 50.32 169.6 49.6348 168.943 48.9716C167.992 48.0114 167.986 46.953 168.977 46.032C171.206 43.9588 173.454 41.9054 175.704 39.8554C175.915 39.6638 176.179 39.5084 176.446 39.4059C176.906 39.2287 177.377 39.3149 177.544 39.802C177.877 40.7699 178.582 41.4438 179.277 42.1089C180.306 43.0958 181.391 44.0263 182.482 44.9464C183.273 45.613 183.257 46.1844 182.684 46.4961ZM181.21 45.5665C181.066 45.4007 180.966 45.2748 180.855 45.1601C179.927 44.2083 179.003 43.251 178.063 42.3108C177.585 41.8329 177.077 41.0265 176.579 41.0232C176.006 41.0199 175.388 41.6939 174.862 42.1573C173.084 43.7217 171.333 45.3145 169.597 46.9241C169.472 47.0401 169.469 47.4115 169.551 47.605C170.153 49.0264 171.29 50.0135 172.412 51.0046C173.367 51.8484 173.531 51.8001 174.481 50.9405C175.725 49.8138 177.006 48.7241 178.313 47.6713C179.23 46.9316 180.219 46.281 181.21 45.5665Z" fill="#222222"/>
<path d="M203.052 -14.1141C204.8 -15.1988 205.391 -15.1634 206.473 -13.9177C209.166 -10.8203 211.819 -7.68877 214.479 -4.56357C214.773 -4.21807 215.041 -3.84029 215.26 -3.44356C215.352 -3.27776 215.284 -3.02462 215.289 -2.81072C215.078 -2.83963 214.795 -2.79057 214.67 -2.909C213.722 -3.80169 212.764 -4.6896 211.887 -5.64896C209.945 -7.7714 208.066 -9.9517 206.125 -12.0741C205.26 -13.0199 204.516 -13.0354 203.52 -12.2179C202.798 -11.6267 202.126 -10.9762 201.414 -10.3709C201.164 -10.1581 200.879 -9.96975 200.583 -9.82916C200.189 -9.64334 199.743 -9.57231 199.451 -9.98214C199.149 -10.4074 199.232 -10.8742 199.594 -11.2315C200.139 -11.7697 200.701 -12.2945 201.294 -12.7801C201.965 -13.3324 202.679 -13.8343 203.052 -14.1141Z" fill="#222222"/>
<path d="M161.942 21.0658C163.016 20.3631 163.595 20.4725 164.445 21.4415C165.637 22.8009 166.876 24.1192 168.071 25.4768C168.465 25.9261 168.822 26.4211 169.124 26.937C169.503 27.5844 169.395 27.9181 168.801 28.3779C168.192 28.8473 167.494 29.2422 167.004 29.814C166.024 30.9608 165.103 32.1682 164.265 33.4226C163.555 34.487 163.451 34.5368 162.683 33.5388C161.441 31.9256 160.197 30.3125 158.915 28.7313C158.528 28.2546 158.04 27.8447 157.545 27.4767C157.167 27.1959 157.037 26.8977 157.3 26.5356C158.555 24.811 159.623 22.9348 161.278 21.527C161.482 21.353 161.72 21.2183 161.942 21.0658ZM163.142 32.7874C164.771 31.0956 166.357 29.46 167.926 27.8104C168.262 27.4575 168.139 27.0689 167.848 26.7463C166.54 25.2996 165.246 23.8385 163.9 22.4282C163.236 21.7323 162.705 21.7516 161.924 22.3405C160.494 23.4187 159.38 24.7451 158.653 26.3979C158.456 26.8472 158.504 27.1708 158.803 27.5296C159.509 28.3744 160.189 29.2395 160.889 30.0892C161.639 30.9977 162.399 31.8981 163.142 32.7874Z" fill="#222222"/>
<path d="M177.091 38.083C176.491 38.4287 176.005 38.7453 175.487 39.0013C173.496 39.9873 171.96 41.4656 170.739 43.2998C170.169 44.1561 169.987 44.1287 169.185 43.5108C166.848 41.7107 165.207 39.2884 163.319 37.0856C163.037 36.7565 162.975 36.4874 163.35 36.1364C165.211 34.3911 167.069 32.6409 168.88 30.8433C169.332 30.3948 169.66 30.3783 170.071 30.7739C170.49 31.1762 170.885 31.6039 171.294 32.0161C172.977 33.7114 174.666 35.4003 176.34 37.1045C176.607 37.3739 176.808 37.7092 177.091 38.083ZM165.209 37.7963C165.43 38.1228 165.637 38.4613 165.877 38.7735C166.861 40.0554 167.74 41.4347 169.139 42.3359C169.895 42.8219 170.034 42.8023 170.697 42.1794C172.149 40.8163 173.595 39.449 175.061 38.1011C175.495 37.7025 175.429 37.3503 175.064 36.9895C173.384 35.3223 171.697 33.6639 170.017 31.9964C169.574 31.5569 169.205 31.6478 168.799 32.0635C167.683 33.2076 166.547 34.3313 165.42 35.4649C164.358 36.535 164.359 36.5353 165.209 37.7963Z" fill="#222222"/>
<path d="M206.025 -4.56582C205.902 -4.84728 205.791 -4.9819 205.796 -5.11269C205.807 -5.36973 205.801 -5.75167 205.95 -5.84678C206.125 -5.95776 206.548 -5.91406 206.708 -5.76806C207.134 -5.37949 207.474 -4.89861 207.851 -4.45729C209.428 -2.61021 211.027 -0.780799 212.58 1.08657C214.306 3.16159 215.993 5.26895 217.693 7.36571C219.362 9.42253 221.408 11.0245 223.68 12.3594C224.09 12.6009 224.495 12.8585 224.87 13.1493C224.983 13.2371 224.989 13.4617 225.045 13.623C224.893 13.6485 224.712 13.7403 224.595 13.6883C223.725 13.3041 222.787 13.0063 222.023 12.4667C219.14 10.429 216.652 7.98485 214.574 5.10768C212.615 2.39397 210.314 -0.0334017 207.939 -2.39256C207.221 -3.10645 206.594 -3.91481 206.025 -4.56582Z" fill="#222222"/>
<path d="M169.521 25.0635C168.521 23.8119 167.287 22.2261 166.006 20.6805C165.191 19.6981 165.157 19.4933 165.975 18.5108C166.173 18.2725 166.381 18.0382 166.55 17.78C167.039 17.0325 167.363 16.8986 168.212 17.2133C168.577 17.3484 168.941 17.5257 169.254 17.7547C170.856 18.9301 172.45 20.1162 174.025 21.3282C174.409 21.6243 174.756 21.9981 175.032 22.397C175.281 22.7553 175.109 23.1127 174.767 23.3666C173.807 24.0789 172.846 24.7889 171.886 25.4991C171.719 25.6221 171.555 25.7502 171.38 25.8615C170.444 26.4573 170.253 26.4056 169.521 25.0635ZM169.194 22.9239C169.179 22.937 169.165 22.9497 169.15 22.9628C169.399 23.3937 169.662 23.8164 169.892 24.2564C170.143 24.7357 170.526 24.8627 170.97 24.6181C171.632 24.2536 172.277 23.8522 172.897 23.4208C173.512 22.9926 173.531 22.7406 172.96 22.2617C171.482 21.0233 169.979 19.815 168.488 18.5928C168.129 18.299 167.772 18.3225 167.402 18.5707C166.724 19.0258 166.636 19.4504 167.128 20.1311C167.807 21.0696 168.505 21.9933 169.194 22.9239Z" fill="#222222"/>
<path d="M227.482 103.857C227.463 104.073 227.438 104.354 227.413 104.634C227.144 104.561 226.781 104.575 226.621 104.402C225.352 103.035 224.099 101.652 222.885 100.237C218.423 95.0362 213.979 89.8203 209.526 84.6119C207.974 82.7958 206.422 80.98 204.857 79.1744C204.477 78.7363 204.002 78.3738 203.66 77.9108C203.468 77.6502 203.29 77.0417 203.397 76.9578C203.815 76.6286 204.147 76.9837 204.419 77.3176C205.771 78.9762 207.095 80.6585 208.476 82.2923C211.974 86.4298 215.489 90.5533 219.017 94.666C220.758 96.6955 222.522 98.7061 224.314 100.692C225.061 101.52 225.908 102.259 226.705 103.044C226.94 103.275 227.162 103.522 227.482 103.857Z" fill="#222222"/>
<path d="M196.242 -0.276816C196.137 -0.664012 195.926 -1.13486 195.911 -1.61256C195.902 -1.90158 196.131 -2.34925 196.372 -2.45405C196.645 -2.5726 197.093 -2.46692 197.384 -2.30925C197.626 -2.17763 197.821 -1.85409 197.917 -1.57483C198.734 0.801303 200.086 2.83596 201.823 4.63124C203.9 6.77732 205.983 8.91778 208.043 11.0799C208.203 11.2475 208.201 11.5675 208.275 11.817C208.012 11.8041 207.657 11.8977 207.502 11.7622C206.308 10.7112 205.082 9.68205 204.001 8.52069C201.884 6.24653 199.852 3.89336 197.792 1.56661C197.287 0.994796 196.808 0.398733 196.242 -0.276816Z" fill="#222222"/>
<path d="M207.233 91.0866C206.192 89.7466 205.154 88.4048 204.11 87.0679C202.35 84.8156 200.582 82.5697 198.824 80.3163C197.588 78.7316 196.331 77.1622 195.152 75.5369C194.723 74.9455 194.437 74.2294 194.202 73.5311C194.122 73.2907 194.397 72.9306 194.51 72.6256C194.81 72.7516 195.222 72.7964 195.387 73.0212C195.675 73.4111 195.856 73.8991 196.002 74.3707C196.651 76.4687 197.996 78.1347 199.341 79.8014C202.038 83.1459 204.761 86.4703 207.437 89.8321C207.975 90.5066 208.39 91.2896 208.783 92.0628C208.896 92.2859 208.736 92.6478 208.702 92.9464C208.433 92.8055 208.085 92.7277 207.912 92.511C207.592 92.1091 207.375 91.6257 207.115 91.1766C207.154 91.146 207.194 91.1161 207.233 91.0866Z" fill="#222222"/>
<path d="M160.506 33.2964C159.86 33.6696 159.569 33.6107 159.118 33.0408C158.011 31.6404 156.917 30.2304 155.809 28.8303C155.268 28.1469 154.716 27.4729 154.156 26.8046C153.671 26.2239 153.655 25.7927 154.247 25.3069C155.799 24.0312 157.38 22.7888 158.953 21.5374C159.293 21.2665 159.648 21.0143 159.996 20.7535C160.263 20.5532 160.593 20.2676 160.83 20.656C160.926 20.8121 160.724 21.2853 160.523 21.4624C159.544 22.3231 158.518 23.1297 157.511 23.9593C156.934 24.4348 156.351 24.9016 155.794 25.3996C155.193 25.938 155.134 26.3441 155.616 26.9672C157.038 28.8058 158.487 30.6243 159.919 32.4543C160.128 32.7218 160.309 33.0117 160.506 33.2964Z" fill="#222222"/>
<path d="M223.046 112.213C222.05 113.048 221.019 113.845 220.07 114.731C219.371 115.385 219.206 115.394 218.617 114.669C217.061 112.754 215.465 110.87 213.884 108.974C213.791 108.862 213.629 108.772 213.601 108.649C213.534 108.36 213.53 108.057 213.501 107.759C213.78 107.802 214.165 107.743 214.319 107.905C215.308 108.939 216.235 110.032 217.204 111.086C217.736 111.666 218.271 112.253 218.873 112.755C219.555 113.323 219.809 113.293 220.54 112.802C221.643 112.061 222.74 111.312 223.841 110.567C223.996 110.463 224.148 110.304 224.316 110.283C224.551 110.252 224.8 110.326 225.043 110.356C225.003 110.599 225.052 110.94 224.909 111.068C224.37 111.548 223.77 111.959 223.193 112.396C223.144 112.335 223.096 112.274 223.046 112.213Z" fill="#222222"/>
<path d="M207.831 71.3028C207.716 71.0818 207.552 70.8713 207.503 70.6366C207.46 70.4295 207.547 70.1958 207.577 69.9735C207.795 70.0352 208.09 70.0282 208.216 70.1714C208.9 70.9471 209.543 71.7572 210.195 72.5609C211.945 74.7182 213.695 76.8759 215.439 79.0373C215.696 79.3551 216.243 79.7221 215.757 80.113C215.279 80.4974 214.982 79.9518 214.693 79.5941C213.299 77.8655 211.902 76.1385 210.481 74.4317C209.607 73.3828 208.69 72.3707 207.792 71.3421C207.804 71.3288 207.817 71.3158 207.831 71.3028Z" fill="#222222"/>
<path d="M216.907 23.702C216.888 23.8741 216.856 24.1551 216.824 24.435C216.551 24.3635 216.177 24.3814 216.021 24.2062C215.198 23.2805 214.443 22.2953 213.642 21.3502C212.681 20.2162 211.683 19.1119 210.731 17.9701C210.479 17.6678 209.964 17.2894 210.421 16.8692C210.852 16.4743 211.243 16.9239 211.516 17.2369C212.396 18.2494 213.24 19.2938 214.099 20.3251C214.88 21.2631 215.662 22.2003 216.443 23.1378C216.563 23.2803 216.68 23.4251 216.907 23.702Z" fill="#222222"/>
<path d="M221.754 107.145C221.745 107.388 221.732 107.698 221.72 108.007C221.419 107.972 221.076 108.017 220.823 107.887C219.825 107.377 219.277 106.422 218.623 105.569C217.617 104.254 216.581 102.962 215.562 101.657C215.384 101.429 215.202 101.197 215.07 100.942C215.01 100.828 215.01 100.583 215.084 100.522C215.182 100.443 215.414 100.426 215.528 100.49C215.739 100.609 215.954 100.774 216.083 100.974C217.368 102.963 219.09 104.553 220.795 106.159C221.097 106.443 221.374 106.752 221.754 107.145Z" fill="#222222"/>
<path d="M209.994 15.8057C210.329 16.3194 210.067 16.6068 209.751 16.8249C209.366 17.0912 208.772 16.9356 208.549 16.5272C208.336 16.135 208.358 15.7611 208.779 15.5004C209.236 15.218 209.752 15.3814 209.994 15.8057Z" fill="#222222"/>
<path d="M211.872 98.0491C211.687 98.5245 211.636 98.9482 211.479 98.9932C211.203 99.0711 210.862 98.9154 210.549 98.8578C210.608 98.5658 210.575 98.1373 210.751 98.0176C210.952 97.8799 211.342 98.0177 211.872 98.0491Z" fill="#222222"/>
<path d="M211.974 14.6379C212.105 14.3737 212.174 14.0361 212.382 13.8635C212.681 13.6143 213.024 13.7378 213.216 14.0845C213.406 14.4279 213.334 14.7898 212.977 14.9228C212.727 15.0163 212.399 14.9006 212.106 14.8784C212.062 14.7984 212.018 14.7176 211.974 14.6379Z" fill="#222222"/>
<path d="M213.757 95.7284C214.102 95.8554 214.421 95.8872 214.459 96.0073C214.516 96.1891 214.435 96.486 214.301 96.6297C214.225 96.7103 213.811 96.6427 213.753 96.5331C213.661 96.3628 213.744 96.1004 213.757 95.7284Z" fill="#222222"/>
<path d="M154.978 110.683C156.11 112.642 157.257 114.593 158.365 116.565C158.678 117.122 158.891 117.736 159.118 118.337C159.171 118.476 159.092 118.664 159.074 118.83C158.908 118.787 158.67 118.799 158.587 118.692C158.079 118.036 157.556 117.384 157.133 116.675C155.879 114.57 154.685 112.429 153.435 110.321C152.42 108.607 151.343 106.929 150.329 105.214C150.112 104.845 149.57 104.319 150.095 103.971C150.662 103.597 150.939 104.299 151.194 104.681C152.508 106.649 153.794 108.637 155.089 110.616C155.053 110.638 155.015 110.661 154.978 110.683Z" fill="#222222"/>
<path d="M112.893 119.274C112.982 119.345 113.1 119.399 113.157 119.491C113.895 120.66 114.648 121.82 115.351 123.008C116.928 125.671 118.46 128.359 120.048 131.016C121.113 132.798 122.241 134.542 123.338 136.305C123.459 136.499 123.568 136.7 123.67 136.905C123.846 137.261 124.079 137.674 123.637 137.955C123.201 138.234 122.784 138.003 122.494 137.635C122.305 137.396 122.187 137.099 122.049 136.821C121.532 135.788 121.059 134.73 120.499 133.721C118.987 131 117.427 128.308 115.911 125.59C115.285 124.466 114.723 123.306 114.137 122.161C113.759 121.425 113.386 120.686 113.021 119.943C112.926 119.749 112.87 119.535 112.796 119.33C112.828 119.311 112.86 119.293 112.893 119.274Z" fill="#222222"/>
<path d="M177.317 100.712C178.18 102.206 179.043 103.699 179.905 105.193C179.968 105.3 180.071 105.41 180.075 105.521C180.081 105.743 180.032 105.967 180.006 106.19C179.817 106.101 179.559 106.061 179.452 105.913C178.834 105.055 178.212 104.195 177.664 103.291C176.112 100.734 174.583 98.1623 173.071 95.5812C172.577 94.7401 172.145 93.8611 171.721 92.9817C171.623 92.7769 171.674 92.5003 171.656 92.2569C171.884 92.389 172.192 92.4654 172.326 92.6618C173.143 93.8644 173.95 95.0761 174.705 96.3184C175.59 97.7744 176.418 99.2642 177.27 100.74C177.285 100.73 177.301 100.721 177.317 100.712Z" fill="#222222"/>
<path d="M188.327 101.695C188.047 101.417 187.704 101.18 187.496 100.857C185.843 98.2891 184.212 95.7057 182.58 93.1245C182.247 92.5975 181.909 92.0711 181.62 91.5206C181.526 91.3427 181.58 91.0869 181.566 90.8662C181.766 90.9578 182.041 90.995 182.154 91.1501C182.91 92.1914 183.659 93.2405 184.359 94.32C185.695 96.3766 187.005 98.4497 188.302 100.53C188.481 100.815 188.529 101.18 188.637 101.507C188.534 101.57 188.43 101.632 188.327 101.695Z" fill="#222222"/>
<path d="M103.257 103.785C104.306 104.197 110.431 114.211 110.431 115.28C110.167 115.001 109.919 114.814 109.765 114.569C107.674 111.227 105.594 107.879 103.522 104.526C103.388 104.308 103.343 104.033 103.257 103.785Z" fill="#222222"/>
<path d="M138.441 125.116C138.979 126.169 139.527 127.217 140.046 128.279C140.116 128.422 140.039 128.638 140.03 128.819C139.854 128.759 139.6 128.752 139.514 128.629C138.779 127.578 138.046 126.522 137.368 125.433C136.964 124.783 136.657 124.073 136.31 123.387C136.244 123.258 136.143 123.119 136.147 122.988C136.155 122.765 136.235 122.545 136.284 122.323C136.493 122.421 136.792 122.462 136.896 122.626C137.418 123.45 137.888 124.305 138.376 125.15C138.398 125.139 138.419 125.128 138.441 125.116Z" fill="#222222"/>
<path d="M191.248 93.9295C190.78 93.1197 190.302 92.3153 189.852 91.4953C189.767 91.3403 189.787 91.1263 189.759 90.9399C189.952 91.0159 190.217 91.0363 190.326 91.177C190.845 91.8505 191.362 92.5322 191.804 93.2575C192.517 94.4269 193.178 95.6277 193.836 96.8287C193.912 96.9669 193.832 97.1907 193.824 97.3744C193.638 97.299 193.374 97.2772 193.28 97.1398C192.563 96.0947 191.881 95.0274 191.187 93.9663C191.207 93.9539 191.228 93.9412 191.248 93.9295Z" fill="#222222"/>
<path d="M233.588 48.901C233.273 49.8245 232.845 50.7268 232.669 51.6753C232.278 53.7768 232.028 55.9047 231.694 58.0174C231.445 59.5941 231.233 61.1828 230.867 62.7334C230.194 65.585 229.312 68.3902 228.71 71.2554C227.803 75.5792 226.685 79.8229 224.885 83.872C224.386 84.992 224.728 85.6402 225.923 85.8627C228.753 86.3899 231.361 87.5525 233.986 88.6555C238.473 90.5423 242.887 92.6128 247.418 94.3864C254.49 97.1546 261.583 99.8515 268.354 103.326C272.047 105.222 275.606 107.29 278.765 110.003C279.076 110.27 279.443 110.489 279.814 110.669C281.269 111.374 282.165 110.87 282.418 109.266C282.596 108.139 282.659 106.957 283.058 105.908C284.399 102.375 285.706 98.813 287.342 95.4131C288.568 92.8635 289.567 90.2785 290.307 87.5627C291.131 84.5349 292.04 81.5317 293.754 78.8468C294.143 78.2367 294.486 77.5932 294.801 76.9418C295.945 74.5779 296.839 72.0848 298.456 69.9674C298.566 69.823 298.66 69.6356 298.68 69.4597C298.715 69.1419 298.687 68.8181 298.686 68.4233C298.279 68.2168 297.935 67.9824 297.556 67.8597C294.825 66.9783 292.085 66.1264 289.352 65.2514C287.372 64.6177 285.401 63.9541 283.422 63.3199C279.936 62.204 276.437 61.1312 272.962 59.9818C271.028 59.3422 269.142 58.5598 267.219 57.8843C265.082 57.1347 262.922 56.4539 260.784 55.7068C256.621 54.2534 252.495 52.6857 248.3 51.3333C244.46 50.0956 240.552 49.0668 236.663 47.9817C236.158 47.8407 235.594 47.9006 235.056 47.8837C234.32 47.8619 233.826 48.202 233.588 48.901ZM282.041 102.733C282.082 102.858 282.079 103.003 282.005 103.156C281.49 104.229 281.226 105.526 281.189 106.714C281.165 107.477 281.29 108.621 280.364 108.915C279.474 109.198 278.585 108.455 277.962 107.922C277.609 107.62 277.27 107.298 276.905 107.01C276.523 106.709 276.082 106.481 275.659 106.246C274.687 105.706 273.658 105.18 272.875 104.374C272.526 104.014 272.717 103.404 273.236 103.359C275.944 103.125 278.637 102.749 281.292 102.163C281.741 102.062 282.049 102.385 282.041 102.733ZM247.863 52.3746C250.068 53.0587 252.276 53.7318 254.481 54.4155C259.824 56.0734 264.97 58.2521 270.175 60.2811C272.689 61.262 275.288 62.0362 277.871 62.833C281.109 63.8318 284.385 64.7109 287.617 65.7325C289.514 66.3321 291.35 67.1273 293.228 67.793C293.87 68.0206 294.556 68.1211 295.222 68.2832C295.665 68.3916 296.12 68.4707 296.547 68.6255C297.381 68.9278 297.514 69.3413 297.048 70.1098C296.877 70.3928 296.632 70.6311 296.462 70.9141C295.912 71.8338 295.32 72.7362 294.855 73.6993C294.071 75.3269 293.447 77.0342 292.619 78.6382C291.014 81.746 289.881 85.0145 289.057 88.3974C288.498 90.6931 287.703 92.8855 286.558 94.9606C285.977 96.013 285.456 97.111 285.036 98.2364C284.556 99.5217 283.685 100.308 282.408 100.67C278.439 101.794 274.429 102.689 270.263 102.351C269.367 102.279 268.434 102.106 267.614 101.754C263.028 99.7868 258.568 97.4812 253.88 95.8053C247.738 93.6092 241.754 91.0687 235.768 88.5107C233.15 87.3916 230.488 86.377 227.846 85.3116C227.366 85.1175 226.893 84.9055 226.359 84.6763C226.466 84.0374 226.506 83.4092 226.679 82.8194C228.122 77.9116 229.403 72.9626 230.45 67.9543C230.573 67.3655 230.702 66.7696 230.907 66.2061C231.997 63.2182 232.636 60.1345 232.914 56.9731C232.957 56.4874 233.162 56.263 233.623 56.1122C237.339 54.8963 241.054 53.6773 244.751 52.4063C245.813 52.0402 246.821 52.0516 247.863 52.3746ZM235.638 48.9961C238.253 49.7397 240.847 50.556 243.448 51.3468C243.503 51.3631 243.546 51.4135 243.639 51.4781C240.186 52.6716 236.774 53.8515 233.215 55.0825C233.271 54.2932 233.271 53.7141 233.362 53.1491C233.524 52.1459 233.719 51.1466 233.942 50.1545C234.134 49.2956 234.83 48.7655 235.638 48.9961Z" fill="#222222"/>
</g>
</svg>
