<svg width="551" height="543" viewBox="0 0 551 543" fill="none" xmlns="http://www.w3.org/2000/svg">
<path d="M351.235 359.575C347.785 361.776 344.487 363.938 341.133 366.011C334.878 369.877 328.665 373.819 322.289 377.477C318.944 379.396 315.289 380.771 311.781 382.408C309.249 383.591 306.686 384.717 304.214 386.017C298.341 389.105 292.462 392.186 286.686 395.452C281.881 398.169 277.149 401.031 272.512 404.026C262.284 410.633 251.644 416.516 240.933 422.279C231.013 427.616 221.061 432.893 211.125 438.197C206.161 440.846 201.084 443.306 196.266 446.198C190.585 449.608 185.046 453.273 179.597 457.049C173.703 461.133 167.984 465.47 162.192 469.703C160.696 470.796 159.773 470.629 158.729 469.029C155.029 463.347 151.276 457.699 147.646 451.974C144.653 447.252 141.89 442.382 138.869 437.68C136.216 433.55 133.295 429.595 130.587 425.5C127.938 421.496 125.358 417.444 122.842 413.355C119.592 408.07 116.501 402.686 113.22 397.42C110.063 392.352 107.45 387.009 104.893 381.629C104.185 380.139 103.521 378.616 102.675 377.206C97.3421 368.317 91.9891 359.437 86.559 350.607C85.9959 349.691 84.9632 348.953 83.9903 348.421C81.2586 346.928 80.5231 345.605 81.1262 342.576C81.3763 341.316 80.9598 340.264 80.3376 339.216C76.3099 332.428 72.291 325.636 68.2842 318.836C66.3377 315.532 64.4245 312.21 62.499 308.894C61.7482 307.599 62.0615 306.68 63.4473 305.748C65.6473 304.27 67.853 302.796 69.9899 301.23C72.5023 299.39 74.9575 297.47 77.411 295.552C78.9635 294.339 80.4865 293.086 81.9935 291.816C83.1813 290.815 83.5794 289.495 83.4898 287.961C83.4169 286.717 83.4423 285.465 83.4559 284.218C83.5046 279.844 83.7659 275.462 83.5865 271.099C83.0407 257.773 83.5477 244.487 84.8479 231.228C85.4499 225.09 86.3232 218.979 87.0027 212.849C88.1095 202.867 89.0976 192.872 90.2512 182.896C91.13 175.303 92.0177 167.717 92.0306 160.059C92.0343 158.015 91.9779 155.972 91.963 153.928C91.9507 152.119 92.4469 151.49 94.1967 151.277C100.636 150.493 107.088 149.809 113.518 148.964C132.733 146.438 152.073 146.519 171.391 146.06C179.527 145.866 187.657 145.126 195.79 145.106C214.403 145.064 233.017 145.203 251.628 145.481C264.588 145.675 277.513 145.117 290.445 144.427C296.42 144.108 302.415 144.148 308.401 144C311.052 143.935 313.709 143.901 316.35 143.692C324.713 143.027 333.065 142.167 341.437 141.64C344.444 141.45 346.52 140.032 348.507 138.099C349.275 137.352 350.099 136.647 350.966 136.019C352.141 135.168 353.412 135.3 354.147 136.524C358.526 143.818 364.767 149.579 370.134 156.058C385.801 174.976 401.572 193.809 417.257 212.712C422.775 219.363 427.941 226.316 433.662 232.781C440.431 240.429 447.648 247.68 454.631 255.14C459.557 260.401 464.387 265.754 469.34 270.988C470.188 271.884 471.36 272.644 472.527 273.042C483.495 276.779 494.508 280.378 505.475 284.114C511.107 286.032 516.688 288.104 522.26 290.191C524.072 290.869 524.052 291.735 522.806 293.262C521.484 294.881 520.17 296.586 519.262 298.454C515.044 307.139 511.708 316.195 508.228 325.193C507.027 328.297 505.444 331.254 504.155 334.328C502.506 338.257 500.923 342.218 499.407 346.201C496.498 353.84 493.681 361.514 490.761 369.15C490.28 370.408 489.518 371.569 488.803 372.725C487.851 374.268 486.938 374.581 485.271 373.873C483.291 373.031 481.344 372.11 479.406 371.175C465.228 364.327 451.053 357.469 436.882 350.606C435.592 349.981 434.295 349.353 433.065 348.619C431.905 347.928 430.976 348.045 429.947 348.908C422.307 355.311 414.639 361.682 406.976 368.059C398.156 375.401 389.39 382.807 380.483 390.042C377.302 392.626 377.069 392.257 374.871 389.604C371.858 385.967 368.888 382.25 366.33 378.29C362.729 372.714 358.657 367.569 354.05 362.817C353.084 361.815 352.222 360.714 351.235 359.575ZM282.089 264.132C281.978 264.188 281.867 264.245 281.756 264.3C281.739 264.648 281.669 265.005 281.716 265.344C282.157 268.564 282.595 271.787 283.089 274.999C283.278 276.232 283.649 277.437 283.844 278.67C283.891 278.971 283.651 279.455 283.392 279.621C283.218 279.734 282.647 279.536 282.484 279.31C282.033 278.684 281.546 278.014 281.346 277.285C280.102 272.776 280.296 268.134 280.132 263.523C280.098 262.56 279.87 261.561 279.51 260.669C279.21 259.926 278.608 259.299 278.101 258.649C274.09 253.51 270.077 248.374 266.048 243.25C264.216 240.92 262.357 238.612 260.493 236.308C258.16 233.424 256.002 230.365 253.41 227.734C250.719 225.003 248.792 222.042 248.179 218.235C247.919 216.628 247.983 216.284 249.349 215.361C252.621 213.155 255.956 211.036 259.15 208.724C263.272 205.737 267.286 202.602 271.336 199.518C273.217 198.086 275.078 196.628 276.937 195.167C277.611 194.636 277.838 193.976 277.654 193.079C277.402 191.854 277.237 190.6 277.172 189.351C276.774 181.73 276.399 174.108 276.057 166.486C275.996 165.131 276.093 163.764 276.185 162.408C276.23 161.743 276.602 161.202 277.359 161.288C278.175 161.38 278.361 161.985 278.268 162.718C278.132 163.785 277.877 164.854 277.892 165.918C277.937 168.957 278.048 171.996 278.215 175.03C278.48 179.859 278.787 184.687 279.135 189.512C279.209 190.547 279.531 191.564 279.771 192.747C280.832 192.134 281.701 191.764 282.415 191.198C286.264 188.145 290.06 185.027 293.91 181.974C294.507 181.501 294.643 181.062 294.535 180.338C293.773 175.259 293.388 170.16 293.907 165.027C293.965 164.458 293.812 163.623 294.696 163.639C295.536 163.654 295.422 164.463 295.501 165.046C295.525 165.222 295.522 165.403 295.526 165.582C295.596 168.086 295.567 170.597 295.762 173.092C295.921 175.13 296.346 177.146 296.686 179.385C297.43 178.82 297.95 178.446 298.446 178.046C301.405 175.662 304.379 173.296 307.295 170.86C307.7 170.522 308.004 169.837 308.022 169.301C308.073 167.766 307.894 166.225 307.916 164.689C307.949 162.367 308.047 160.046 308.185 157.729C308.219 157.152 308.364 156.392 309.195 156.453C310.029 156.516 309.989 157.252 309.993 157.859C310.003 159.113 309.934 160.369 309.99 161.621C310.081 163.641 310.246 165.658 310.38 167.677C310.532 167.754 310.683 167.833 310.834 167.91C321.513 160.589 331.652 152.587 341.119 143.701C340.755 143.546 340.477 143.519 340.203 143.542C333.881 144.085 327.562 144.672 321.236 145.166C317.414 145.465 313.581 145.706 309.749 145.822C303.658 146.008 297.561 146.031 291.47 146.189C278.852 146.517 266.237 146.989 253.617 147.206C246.343 147.332 239.061 147.053 231.783 147.003C228.7 146.98 225.615 147.111 222.531 147.11C210.949 147.103 199.366 147.005 187.784 147.076C180.297 147.121 172.829 147.742 165.332 147.847C152.176 148.033 139.026 148.768 125.877 149.344C123.704 149.44 121.544 149.872 119.383 150.184C117.22 150.496 115.068 150.89 112.902 151.178C107.115 151.949 101.322 152.684 95.5292 153.429C94.5837 153.552 94.1617 154.073 94.1776 155.031C94.2245 157.899 94.2908 160.768 94.2589 163.636C94.235 165.855 94.156 168.08 93.9546 170.29C93.7239 172.824 93.3024 175.341 93.016 177.871C91.5225 191.058 90.1223 204.257 88.5402 217.433C86.7481 232.366 85.0421 247.32 85.4853 262.375C85.8535 274.899 85.2144 287.398 85.1791 299.908C85.1459 311.812 84.574 323.715 85.143 335.621C85.2417 337.697 85.3642 339.769 84.7464 341.811C84.5645 342.412 84.6011 343.091 84.5999 343.734C84.5923 346.666 84.7287 346.822 87.6514 346.974C93.1793 347.264 98.6946 347.124 104.193 346.463C111.918 345.536 119.653 344.682 127.363 343.644C134.325 342.706 141.239 341.396 148.211 340.559C153.853 339.883 159.546 339.643 165.22 339.245C177.881 338.36 190.528 337.428 203.148 335.948C224.087 333.491 245.091 331.593 266.058 329.362C283.17 327.541 300.219 325.127 317.397 323.923C319.557 323.771 321.691 323.247 324.03 322.864C323.761 322.27 323.625 321.833 323.384 321.467C322.931 320.779 322.405 320.139 321.928 319.467C316.461 311.735 311.005 303.995 305.517 296.278C304.962 295.498 304.211 294.86 303.551 294.156C303.311 294.661 303.282 294.98 303.31 295.294C303.751 300.25 304.207 305.206 304.639 310.162C304.733 311.226 304.781 312.299 304.771 313.367C304.769 313.603 304.469 313.922 304.227 314.033C304.113 314.087 303.696 313.789 303.62 313.577C303.258 312.577 302.781 311.568 302.68 310.531C302.068 304.168 301.481 297.801 301.05 291.425C300.965 290.171 300.575 289.234 299.855 288.342C298.146 286.223 296.284 284.213 294.712 281.996C291.084 276.876 287.603 271.651 284.034 266.489C283.46 265.656 282.741 264.916 282.089 264.132ZM428.525 346.689C427.845 346.229 427.466 345.884 427.021 345.686C420.473 342.764 413.991 339.674 407.344 336.999C398.595 333.479 389.707 330.304 380.895 326.939C379.937 326.573 379.018 326.029 378.192 325.416C377.116 324.617 376.745 323.36 377.552 322.322C377.875 321.906 377.945 321.26 378.04 320.702C379.672 311.146 381.676 301.675 384.595 292.418C386.363 286.809 388.248 281.236 389.903 275.593C391.224 271.088 392.296 266.51 393.44 261.955C394.26 258.691 394.934 255.389 395.826 252.147C396.369 250.176 397.536 249.451 399.564 249.809C402.7 250.361 405.83 250.996 408.911 251.794C413.424 252.964 417.89 254.307 422.376 255.579C425.064 256.342 427.799 256.972 430.431 257.897C441.665 261.846 452.867 265.885 464.081 269.888C464.505 270.039 464.941 270.155 465.371 270.286C465.432 270.214 465.492 270.143 465.552 270.07C465.095 269.402 464.709 268.669 464.169 268.078C460.614 264.188 457.148 260.205 453.419 256.485C445.93 249.013 438.474 241.515 431.74 233.342C424.718 224.819 417.753 216.251 410.743 207.718C404.143 199.683 397.519 191.667 390.903 183.646C386.774 178.642 382.683 173.606 378.488 168.658C375.452 165.076 372.134 161.726 369.19 158.073C363.919 151.531 358.243 145.362 352.486 139.259C352.052 138.799 351.752 138.381 351.019 138.967C347.269 141.968 343.462 144.897 339.695 147.879C331.203 154.598 322.744 161.358 314.232 168.052C310.033 171.354 305.679 174.462 301.522 177.815C298.009 180.65 294.842 183.931 291.238 186.634C278.391 196.27 266.148 206.72 252.597 215.408C251.248 216.272 250.873 217.452 251.078 218.893C251.182 219.626 251.358 220.406 251.726 221.034C252.518 222.389 253.318 223.781 254.355 224.943C258.717 229.835 262.966 234.803 266.75 240.172C270.797 245.916 274.985 251.563 279.161 257.215C285.617 265.955 292.189 274.612 298.582 283.398C307.879 296.178 317.054 309.046 326.298 321.867C329.561 326.393 332.846 330.906 336.166 335.393C340.45 341.182 344.786 346.935 349.088 352.711C350.99 355.265 352.8 357.891 354.775 360.388C356.368 362.402 358.276 364.173 359.814 366.224C363.57 371.236 367.145 376.383 370.893 381.401C372.428 383.455 374.212 385.325 375.9 387.263C376.658 388.133 377.683 388.242 378.663 387.864C379.789 387.431 380.961 386.955 381.898 386.222C386.865 382.33 391.822 378.422 396.67 374.382C400.303 371.354 403.715 368.062 407.312 364.989C413.228 359.934 419.224 354.975 425.16 349.943C426.292 348.984 427.303 347.879 428.525 346.689ZM224.693 403.875C223.504 404.36 222.845 403.839 222.414 403.231C220.783 400.927 219.169 398.604 217.683 396.206C216.591 394.442 215.748 392.526 214.722 390.719C211.994 385.916 209.241 381.127 206.466 376.352C205.259 374.275 204.028 372.208 202.709 370.203C200.07 366.191 197.255 362.291 194.709 358.222C191.132 352.505 187.9 346.589 185.315 340.342C185.045 339.688 184.678 339.469 183.929 339.524C179.208 339.871 174.476 340.076 169.761 340.48C165.028 340.887 160.31 341.473 155.585 341.984C155.336 342.011 155.086 342.041 154.841 342.091C153.351 342.392 153.279 342.713 154.164 343.969C155.713 346.164 157.312 348.338 158.673 350.648C162.767 357.599 166.448 364.775 170.657 371.674C178.115 383.892 184.209 396.86 190.641 409.637C191.993 412.323 193.602 414.878 195.04 417.523C195.755 418.839 196.385 420.207 196.968 421.586C197.089 421.87 196.834 422.313 196.752 422.684C196.424 422.497 195.95 422.394 195.791 422.113C194.807 420.37 193.91 418.579 192.951 416.821C191.527 414.21 190.033 411.634 188.65 409.002C187.234 406.309 185.758 403.63 184.592 400.826C182.402 395.558 179.973 390.418 177.077 385.509C174.983 381.961 172.698 378.526 170.598 374.983C168.697 371.775 166.92 368.495 165.114 365.232C163.935 363.101 162.851 360.917 161.632 358.81C160.378 356.64 159.049 354.511 157.684 352.407C155.95 349.736 154.204 347.068 152.346 344.482C151.423 343.2 150.254 342.092 148.402 342.414C146.106 342.813 143.814 343.23 141.51 343.569C135.095 344.513 128.676 345.42 122.056 346.37C122.347 347.002 122.656 347.623 122.919 348.262C123.199 348.943 123.725 349.679 123.642 350.326C123.349 352.6 123.764 354.754 124.403 356.892C125.931 362.011 127.355 367.173 130.183 371.786C131.944 374.659 133.859 377.447 135.457 380.407C137.394 383.997 140.098 386.853 143.256 389.32C145.088 390.753 147.034 392.215 149.401 392.443C151.447 392.64 152.72 393.753 153.962 395.11C154.349 395.534 154.735 395.958 155.096 396.403C157.003 398.762 158.811 401.207 160.825 403.469C163.429 406.393 166.397 408.917 169.881 410.784C170.167 410.937 170.312 411.35 170.523 411.642C170.19 411.795 169.844 412.103 169.529 412.072C168.645 411.983 167.779 411.723 166.898 411.593C166.201 411.491 165.491 411.483 164.58 411.419C164.856 411.896 164.947 412.086 165.067 412.257C165.69 413.134 166.364 413.978 166.922 414.894C167.11 415.204 167.143 415.753 166.992 416.073C166.905 416.26 166.279 416.333 165.955 416.242C165.096 416.003 164.18 415.787 163.448 415.313C159.081 412.498 154.56 409.889 150.866 406.149C150.624 405.904 150.339 405.701 150.054 405.462C149.636 405.896 149.292 406.259 148.942 406.616C147.726 407.858 146.897 408.123 145.395 407.308C144.154 406.636 142.856 405.853 141.957 404.8C138.328 400.548 134.664 396.304 131.346 391.812C126.029 384.614 121.657 376.824 117.708 368.792C115.212 363.712 113.592 358.341 112.189 352.892C111.675 350.897 112.105 350.101 113.825 349.059C114.178 348.845 114.348 348.331 114.601 347.956C114.186 347.766 113.759 347.394 113.355 347.418C111.603 347.521 109.858 347.754 108.109 347.911C101.967 348.46 95.8343 349.195 89.6448 348.804C89.0925 348.769 88.5303 348.9 87.7851 348.972C88.1177 349.548 88.3486 349.974 88.6044 350.385C89.9841 352.611 91.4155 354.805 92.7433 357.059C96.5286 363.49 100.288 369.934 104.018 376.397C104.876 377.884 105.588 379.457 106.339 381.005C107.416 383.229 108.399 385.499 109.545 387.685C110.894 390.258 112.317 392.795 113.806 395.29C118.512 403.175 123.234 411.051 128.015 418.891C129.432 421.213 130.984 423.464 132.611 425.646C135.875 430.02 139.088 434.418 141.584 439.297C142.514 441.116 143.418 442.968 144.544 444.663C149.27 451.771 154.072 458.828 158.858 465.896C159.662 467.083 160.377 467.393 161.679 466.755C163.926 465.655 166.188 464.527 168.25 463.123C171.946 460.604 175.376 457.685 179.134 455.268C187.276 450.031 195.43 444.789 203.815 439.956C211.329 435.624 219.187 431.893 226.838 427.796C234.142 423.886 241.401 419.889 248.637 415.852C254.961 412.321 261.266 408.752 267.503 405.068C273.461 401.547 279.261 397.759 285.24 394.276C288.986 392.094 292.999 390.377 296.773 388.24C302.516 384.986 308.215 381.696 314.403 379.29C319.533 377.297 324.168 374.313 328.814 371.378C334.909 367.525 341.073 363.784 347.177 359.947C348.01 359.425 348.685 358.646 349.412 357.962C349.916 357.488 349.848 357.026 349.436 356.465C345.817 351.52 342.282 346.511 338.607 341.607C334.93 336.7 331.096 331.912 327.385 327.029C326.306 325.608 324.98 325.113 323.267 325.305C321.057 325.552 318.842 325.737 316.628 325.948C308.741 326.696 300.853 327.442 292.966 328.195C292.596 328.23 292.229 328.31 291.843 328.372C292.247 329.446 292.604 330.394 292.962 331.342C292.847 331.411 292.732 331.481 292.617 331.55C292.339 331.376 291.994 331.256 291.796 331.015C291.341 330.466 290.896 329.889 290.564 329.263C290.267 328.704 289.932 328.527 289.298 328.592C283.2 329.222 277.097 329.819 270.997 330.432C270.597 330.472 270.204 330.558 269.65 330.65C271.515 333.539 273.32 336.209 275 338.957C279.974 347.097 284.896 355.268 289.845 363.425C290.347 364.252 290.935 365.032 291.384 365.885C291.542 366.185 291.407 366.639 291.406 367.024C291.025 366.945 290.623 366.917 290.272 366.769C290.069 366.683 289.927 366.416 289.789 366.21C289.113 365.196 288.424 364.19 287.78 363.156C282.9 355.336 278.04 347.504 273.151 339.689C271.404 336.897 269.603 334.138 267.793 331.385C267.64 331.152 267.225 330.936 266.955 330.962C261.28 331.5 255.605 332.041 249.939 332.664C248.683 332.802 247.461 333.252 245.943 333.628C247.455 336.247 248.819 338.638 250.212 341.013C251.5 343.209 252.834 345.378 254.109 347.581C254.37 348.033 254.457 348.585 254.625 349.091C254.476 349.174 254.329 349.257 254.18 349.34C253.671 348.669 253.102 348.036 252.663 347.321C250.043 343.043 247.42 338.768 244.891 334.436C244.49 333.751 244.135 333.512 243.422 333.57C240.242 333.828 237.06 334.07 233.88 334.328C233.604 334.351 233.335 334.449 232.997 334.528C233.112 334.757 233.175 334.92 233.269 335.063C235.383 338.301 237.687 341.431 239.583 344.793C244.533 353.571 249.331 362.436 254.139 371.295C256.771 376.147 259.305 381.051 261.864 385.943C262.071 386.34 262.136 386.813 262.267 387.251C262.151 387.318 262.033 387.386 261.917 387.454C261.652 387.223 261.318 387.037 261.131 386.753C260.122 385.228 259.078 383.721 258.177 382.134C255.187 376.863 252.313 371.525 249.282 366.278C243.343 355.997 237.324 345.763 231.358 335.497C231.047 334.961 230.828 334.624 230.086 334.705C222.173 335.569 214.253 336.388 206.338 337.223C206.025 337.257 205.716 337.332 205.495 337.372C206.382 338.908 207.224 340.435 208.13 341.921C210.296 345.471 212.529 348.981 214.668 352.546C216.918 356.299 219.086 360.099 221.299 363.874C222.189 365.39 223.045 366.928 224.019 368.389C226.907 372.721 229.514 377.208 231.7 381.935C231.817 382.188 231.677 382.561 231.656 382.879C231.367 382.745 230.969 382.689 230.809 382.463C230.064 381.412 229.354 380.33 228.686 379.229C225.058 373.254 221.488 367.244 217.815 361.298C214.386 355.747 210.851 350.262 207.363 344.747C206.043 342.66 204.664 340.605 203.435 338.465C203.057 337.808 202.752 337.655 202.047 337.732C196.95 338.285 191.847 338.791 186.747 339.317C186.475 339.345 186.207 339.414 185.83 339.484C186.094 339.942 186.307 340.308 186.518 340.675C187.478 342.356 188.529 343.994 189.38 345.729C192.532 352.159 196.514 358.081 200.411 364.061C203.15 368.265 205.896 372.465 208.545 376.726C210.515 379.893 212.365 383.134 214.209 386.377C215.82 389.208 217.338 392.09 218.92 394.938C220.065 396.998 221.195 399.07 222.435 401.074C223.031 402.042 223.869 402.868 224.693 403.875ZM519.938 291.419C517.577 290.419 515.235 289.255 512.779 288.415C503.211 285.137 493.599 281.988 484.019 278.742C468.803 273.585 453.561 268.497 438.404 263.175C427.604 259.383 416.745 255.803 405.693 252.827C404.194 252.423 402.596 252.331 401.035 252.22C399.805 252.134 398.912 252.826 398.419 253.925C398.01 254.838 397.663 255.787 397.385 256.747C394.733 265.91 392.124 275.085 389.455 284.242C387.96 289.371 386.236 294.436 384.856 299.594C382.816 307.218 381.08 314.918 380.105 322.767C379.895 324.461 379.868 324.476 381.49 325.141C383.216 325.849 384.937 326.57 386.662 327.276C389.947 328.62 393.16 330.198 396.537 331.25C402.887 333.228 409.074 335.595 415.138 338.299C423.41 341.99 431.804 345.384 439.793 349.735C447.684 354.033 455.869 357.794 463.964 361.711C470.776 365.007 477.635 368.204 484.489 371.409C486.056 372.143 487.071 371.746 487.831 370.197C488.525 368.784 489.218 367.363 489.77 365.891C491.23 361.998 492.57 358.061 494.034 354.168C496.342 348.029 498.447 341.82 501.488 335.962C503.745 331.613 505.683 327.081 507.492 322.521C509.912 316.422 511.971 310.18 514.373 304.074C516.01 299.913 517.966 295.873 519.938 291.419ZM121.955 351.069C119.807 351.969 117.9 351.269 115.95 350.576C114.239 349.967 113.394 350.786 113.699 352.593C113.764 352.98 113.858 353.363 113.947 353.747C115.63 361.097 118.47 368.017 122.132 374.568C124.926 379.566 128.015 384.406 131.108 389.23C132.589 391.54 134.275 393.74 136.06 395.827C138.69 398.902 141.515 401.811 144.207 404.835C144.939 405.657 145.692 406.165 146.814 405.912C147.92 405.663 148.498 404.909 148.794 403.866C149.422 401.659 150.073 399.458 150.694 397.249C151.16 395.592 150.947 395.134 149.37 394.381C148.92 394.166 148.421 394.058 147.962 393.86C147.045 393.463 146.055 393.161 145.245 392.603C140.377 389.252 136.473 384.971 133.385 379.948C132.128 377.901 131.086 375.713 129.725 373.743C127.601 370.67 126.231 367.288 125.04 363.788C123.829 360.227 122.747 356.644 122.341 352.886C122.282 352.324 122.11 351.775 121.955 351.069ZM81.8481 338.425C81.9519 338.379 82.0563 338.334 82.1589 338.289C82.2134 338.122 82.2653 337.954 82.3241 337.79C83.1854 335.372 83.0734 332.854 83.113 330.345C83.2601 320.96 82.4871 311.573 83.1686 302.187C83.3194 300.116 83.2853 298.033 83.3279 295.954C83.3349 295.609 83.2983 295.261 83.2772 294.829C82.9844 294.946 82.7872 295.01 82.6036 295.1C76.217 298.235 71.0898 303.098 65.6235 307.493C64.7156 308.224 64.7085 309.139 65.2302 310.099C66.088 311.673 66.9382 313.251 67.8274 314.807C71.6128 321.439 75.3906 328.073 79.2213 334.679C79.9846 335.993 80.9679 337.18 81.8481 338.425ZM163.477 408.672C163.456 408.567 163.465 408.479 163.426 408.434C160.224 404.78 157.025 401.123 153.8 397.491C153.472 397.12 152.976 396.899 152.466 396.545C152.013 398.225 151.707 399.74 151.191 401.18C150.556 402.948 151.166 404.336 152.279 405.597C152.841 406.235 153.498 406.821 154.202 407.299C156.42 408.806 158.672 410.266 160.936 411.707C161.346 411.968 161.873 412.045 162.539 412.274C162.193 411.262 161.808 410.546 161.725 409.796C161.576 408.454 162.874 409.019 163.477 408.672ZM120.349 346.216C118.771 346.509 117.287 346.784 115.819 347.055C115.918 349.094 116.846 349.834 118.967 349.7C120.949 349.574 121.204 349.223 120.672 347.353C120.586 347.048 120.499 346.744 120.349 346.216Z" fill="#222222"/>
<path d="M116.926 193.358C118.947 193.122 120.024 191.899 121.199 190.795C121.563 190.453 122.243 190.026 122.576 190.157C123.324 190.451 123.134 191.237 122.889 191.844C122.014 194.003 121.158 196.171 120.192 198.29C118.196 202.672 116.75 207.155 117.035 212.067C117.14 213.868 116.663 215.585 115.33 216.896C112.832 219.353 111.131 222.363 109.602 225.436C107.256 230.149 106.65 235.297 106.492 240.485C106.414 243.062 106.543 245.647 106.623 248.227C106.713 251.077 107.159 253.858 108.287 256.507C109.132 258.492 110.333 260.215 111.989 261.587C113.339 262.704 113.972 264.113 114.275 265.82C114.959 269.661 115.689 273.5 116.59 277.295C116.948 278.801 117.84 280.175 118.425 281.634C118.713 282.35 118.852 283.123 119.069 283.91C117.832 284.225 117.243 283.664 116.645 283.081C116.059 282.51 115.442 281.971 114.468 281.412C114.373 281.99 114.337 282.586 114.171 283.141C113.861 284.167 113.54 285.198 113.089 286.166C112.91 286.55 112.294 287.061 112.016 286.988C111.615 286.884 111.171 286.35 111.037 285.909C109.928 282.274 108.898 278.615 107.818 274.971C107.416 273.614 106.942 272.277 106.436 270.728C106.047 271.117 105.874 271.268 105.726 271.442C104.466 272.925 103.004 272.986 101.606 271.588C100.181 270.163 99.338 268.431 98.7955 266.494C96.7447 259.174 96.1331 251.674 95.9617 244.124C95.8674 239.946 95.8866 235.763 95.9699 231.583C96.0638 226.89 97.0638 222.328 98.4559 217.871C99.5335 214.422 100.579 210.92 102.909 208.03C103.623 207.144 104.403 206.302 105.225 205.516C105.942 204.829 106.855 204.586 107.818 204.934C108.8 205.289 109.145 204.823 109.406 203.963C110.447 200.534 111.458 197.091 112.635 193.707C113.291 191.82 114.25 190.038 115.081 188.213C115.169 188.021 115.285 187.81 115.449 187.692C115.744 187.479 116.083 187.33 116.404 187.156C116.559 187.521 116.832 187.881 116.847 188.251C116.913 189.913 116.905 191.577 116.926 193.358ZM103.769 271.475C105.004 269.935 106.132 268.455 107.34 267.046C108.266 265.963 109.219 264.88 110.296 263.956C111.464 262.956 111.56 263.013 110.484 261.841C107.498 258.593 105.502 254.835 105.317 250.407C105.122 245.756 105.099 241.078 105.367 236.433C105.65 231.533 106.982 226.828 109.389 222.5C110.556 220.402 111.809 218.347 113.113 216.331C113.787 215.287 113.871 214.303 113.172 213.337C111.683 211.278 110.144 209.254 108.597 207.24C107.986 206.445 107.242 206.49 106.571 207.173C105.698 208.062 104.752 208.912 104.047 209.924C100.576 214.906 98.5735 220.523 97.7802 226.471C95.942 240.255 96.724 253.896 100.788 267.26C101.279 268.868 102.188 270.309 103.769 271.475ZM115.644 191.104C115.564 191.102 115.486 191.101 115.405 191.099C115.275 191.419 115.126 191.732 115.018 192.058C113.551 196.518 112.106 200.986 110.614 205.438C110.372 206.161 110.531 206.634 111.046 207.142C112.133 208.216 113.182 209.328 114.227 210.444C114.546 210.784 114.799 211.184 115.164 211.662C115.971 205.429 117.287 199.531 119.921 193.955C119.471 194.153 119.075 194.38 118.719 194.659C117.425 195.68 116.332 195.29 116.027 193.659C115.935 193.172 115.971 192.662 115.905 192.168C115.854 191.809 115.733 191.459 115.644 191.104ZM115.684 280.004C115.347 278.783 114.943 277.602 114.703 276.389C114.02 272.935 113.409 269.467 112.757 266.007C112.546 264.884 111.9 264.601 111.104 265.371C110.084 266.357 109.131 267.423 108.248 268.532C107.647 269.286 107.575 270.122 107.943 271.138C109.082 274.28 110.088 277.471 111.092 280.66C111.499 281.956 111.767 283.297 112.098 284.617C112.528 283.632 112.725 282.66 112.984 281.707C113.414 280.121 114.051 279.723 115.684 280.004Z" fill="#222222"/>
<path d="M244.752 316.412C244.692 315.453 244.588 314.598 244.592 313.744C244.615 308.62 244.69 303.494 244.69 298.369C244.69 296.545 244.547 294.719 244.439 292.896C244.04 286.174 243.568 279.456 243.243 272.73C243.037 268.472 243.164 264.196 242.909 259.941C242.735 257.019 242.119 254.126 241.777 251.211C241.193 246.239 240.622 241.264 240.154 236.28C240.032 234.98 240.264 233.638 240.438 232.33C240.479 232.024 241.038 231.501 241.21 231.555C241.613 231.681 241.959 232.068 242.261 232.408C242.372 232.532 242.316 232.823 242.301 233.037C241.884 239.335 242.805 245.526 243.774 251.714C244.26 254.819 244.877 257.916 245.134 261.041C245.396 264.207 245.209 267.407 245.352 270.587C245.69 278.065 246.098 285.538 246.497 293.013C246.81 298.878 247.235 304.739 247.437 310.609C247.5 312.437 247.035 314.295 246.708 316.12C246.649 316.446 246.112 316.818 245.734 316.909C245.469 316.974 245.096 316.599 244.752 316.412Z" fill="#222222"/>
<path d="M211.056 320.483C210.88 319.621 210.678 318.929 210.607 318.226C210.267 314.882 210.145 311.505 209.602 308.195C208.765 303.088 208.819 297.96 209.117 292.856C209.45 287.156 208.737 281.554 208.245 275.921C208.127 274.566 208.055 273.208 207.908 271.858C207.077 264.205 206.199 256.555 205.408 248.897C205.218 247.057 205.287 245.188 205.258 243.332C205.253 243.052 205.271 242.696 205.432 242.505C205.741 242.139 206.262 241.547 206.513 241.627C206.934 241.761 207.528 242.361 207.508 242.736C207.03 251.507 209.442 260.054 209.457 268.796C209.464 272.604 210.077 276.424 210.591 280.214C211.187 284.597 211.533 288.985 211.161 293.39C210.664 299.288 211.245 305.126 211.91 310.965C212.157 313.133 212.513 315.288 212.797 317.453C212.899 318.232 213.008 319.025 212.964 319.803C212.939 320.237 212.642 320.977 212.403 321.006C211.966 321.052 211.483 320.669 211.056 320.483Z" fill="#222222"/>
<path d="M188.858 205.247C189.012 206.116 189.274 206.883 189.261 207.646C189.213 210.545 189.023 213.443 188.99 216.343C188.966 218.556 188.901 220.798 189.194 222.981C190.92 235.892 192.003 248.84 191.776 261.879C191.725 264.816 191.767 267.755 191.721 270.694C191.71 271.366 191.608 272.067 191.377 272.692C191.245 273.051 190.799 273.46 190.443 273.514C190.192 273.552 189.718 273.082 189.592 272.746C189.383 272.193 189.277 271.562 189.295 270.969C189.745 255.429 189.428 239.927 187.411 224.48C186.861 220.268 186.575 216.013 186.368 211.767C186.269 209.716 186.588 207.639 186.824 205.585C186.867 205.208 187.368 204.711 187.752 204.603C188.028 204.524 188.46 204.999 188.858 205.247Z" fill="#222222"/>
<path d="M222.465 238.228C222.308 237.252 222.106 236.446 222.061 235.631C221.66 228.549 221.186 221.47 220.935 214.381C220.702 207.761 220.749 201.132 220.605 194.509C220.533 191.178 220.328 187.851 220.148 184.522C219.947 180.804 219.747 177.087 219.471 173.375C219.303 171.094 218.937 168.826 218.767 166.545C218.6 164.303 218.572 162.051 218.479 159.804C218.431 158.662 218.38 157.52 218.318 156.38C218.287 155.799 218.189 155.124 218.95 155.002C219.704 154.881 219.886 155.488 219.963 156.103C220.059 156.882 220.277 157.666 220.246 158.439C220.048 163.304 220.961 168.076 221.404 172.885C221.54 174.345 221.572 175.814 221.645 177.28C221.762 179.637 221.901 181.996 221.98 184.355C222.108 188.183 222.442 192.026 222.249 195.841C221.794 204.854 222.583 213.812 223.057 222.786C223.224 225.931 223.262 229.082 223.418 232.227C223.505 234.004 223.739 235.775 223.839 237.552C223.859 237.907 223.568 238.279 223.421 238.642C223.091 238.498 222.761 238.354 222.465 238.228Z" fill="#222222"/>
<path d="M261.61 242.815C261.965 244.938 262.451 246.924 262.608 248.937C263.162 256.072 263.568 263.218 264.113 270.352C264.251 272.164 264.615 273.971 265.013 275.75C266.241 281.222 265.846 286.812 266.295 292.341C266.825 298.875 267.302 305.412 267.816 311.948C267.937 313.48 268.126 315.006 268.253 316.537C268.282 316.886 268.254 317.279 268.117 317.592C267.99 317.883 267.69 318.28 267.448 318.294C267.128 318.311 266.723 318.064 266.478 317.811C266.279 317.606 266.198 317.23 266.174 316.921C265.856 312.962 265.493 309.005 265.274 305.039C264.956 299.245 264.854 293.438 264.46 287.648C264.146 283.008 263.557 278.384 263.049 273.758C262.649 270.132 262.082 266.52 261.776 262.886C261.262 256.784 260.764 250.689 259.192 244.739C259.085 244.329 258.956 243.848 259.074 243.476C259.23 242.982 259.553 242.271 259.927 242.184C260.37 242.081 260.945 242.54 261.61 242.815Z" fill="#222222"/>
<path d="M258.238 160.216C258.356 160.796 258.481 161.176 258.503 161.562C258.763 166.064 259.028 170.568 259.255 175.072C259.603 181.973 259.878 188.878 260.272 195.777C260.427 198.488 260.823 201.185 261.107 203.89C261.176 204.55 261.462 205.375 260.426 205.487C259.425 205.595 259.321 204.769 259.241 204.043C258.067 193.359 257.544 182.634 257.108 171.901C256.964 168.363 256.632 164.832 256.456 161.294C256.434 160.854 256.732 160.271 257.075 159.988C257.274 159.825 257.858 160.13 258.238 160.216Z" fill="#222222"/>
<path d="M227.691 320.349C227.492 319.944 227.396 319.822 227.369 319.686C226.866 317.092 226.303 314.507 225.915 311.896C225.795 311.092 226.168 310.217 226.304 309.372C226.556 307.793 226.952 306.216 227.003 304.631C227.052 303.105 226.716 301.571 226.592 300.037C226.193 295.079 225.807 290.121 225.431 285.162C225.312 283.591 225.198 282.018 225.163 280.445C225.146 279.662 224.988 278.569 226.1 278.463C227.199 278.359 227.326 279.454 227.406 280.232C227.563 281.761 227.585 283.304 227.628 284.843C227.734 288.708 227.732 292.578 227.946 296.438C228.065 298.609 228.481 300.769 228.839 302.922C229.189 305.025 229.092 307.086 228.298 309.054C227.613 310.752 227.757 312.423 228.149 314.116C228.481 315.544 228.893 316.954 229.239 318.379C229.348 318.825 229.485 319.326 229.38 319.743C229.28 320.133 228.934 320.631 228.591 320.736C228.296 320.824 227.852 320.427 227.691 320.349Z" fill="#222222"/>
<path d="M143.957 324.643C143.599 322.766 143.032 320.887 142.913 318.981C142.429 311.166 142.146 303.34 141.661 295.526C141.349 290.501 140.801 285.491 140.39 280.472C140.294 279.298 140.279 278.113 140.322 276.936C140.333 276.637 140.714 276.352 140.925 276.061C141.224 276.304 141.676 276.494 141.786 276.805C141.959 277.293 141.907 277.863 141.943 278.399C142.811 290.934 143.655 303.471 144.568 316.003C144.73 318.212 145.197 320.397 145.489 322.598C145.568 323.196 145.592 323.82 145.504 324.412C145.463 324.685 145.13 325.032 144.858 325.114C144.661 325.175 144.347 324.861 143.957 324.643Z" fill="#222222"/>
<path d="M240.05 200.306C239.884 199.416 239.632 198.617 239.6 197.808C239.422 193.451 239.33 189.088 239.148 184.729C238.862 177.865 238.513 171.004 238.231 164.138C238.182 162.966 238.257 161.771 238.439 160.613C238.5 160.224 239.07 159.916 239.408 159.571C239.668 159.979 240.147 160.384 240.157 160.799C240.406 171.534 240.589 182.27 240.828 193.005C240.877 195.217 241.117 197.426 241.221 199.637C241.237 199.974 240.992 200.322 240.869 200.665C240.606 200.551 240.343 200.434 240.05 200.306Z" fill="#222222"/>
<path d="M164.016 319.421C163.722 318.911 163.348 318.535 163.283 318.111C161.738 308.026 159.902 297.967 160.302 287.691C160.325 287.084 160.306 286.446 160.493 285.884C160.611 285.527 161.075 285.284 161.383 284.99C161.693 285.321 162.24 285.631 162.274 285.988C162.415 287.483 162.523 289 162.429 290.494C161.875 299.292 163.338 307.916 164.565 316.563C164.69 317.429 165.171 318.394 164.016 319.421Z" fill="#222222"/>
<path d="M284.065 313.487C283.878 312.78 283.696 312.307 283.632 311.818C282.732 304.89 282.136 297.945 282.618 290.951C282.668 290.214 282.433 289.116 283.56 289.109C284.697 289.102 284.499 290.201 284.504 290.937C284.527 294.476 284.346 298.024 284.537 301.553C284.715 304.828 285.27 308.084 285.662 311.348C285.718 311.81 285.889 312.279 285.836 312.724C285.782 313.174 285.516 313.599 285.342 314.034C284.884 313.838 284.428 313.642 284.065 313.487Z" fill="#222222"/>
<path d="M205.472 234.266C205.335 233.6 205.173 233.083 205.126 232.556C204.65 227.172 204.178 221.788 203.748 216.401C203.656 215.266 203.681 214.109 203.775 212.972C203.813 212.532 204.191 212.119 204.414 211.694C204.711 212.118 205.214 212.517 205.269 212.969C205.462 214.563 205.612 216.178 205.575 217.78C205.481 221.782 206.109 225.667 207.047 229.541C207.377 230.903 207.318 232.372 207.305 233.791C207.303 234.101 206.789 234.536 206.422 234.67C206.18 234.757 205.779 234.408 205.472 234.266Z" fill="#222222"/>
<path d="M223.369 260.121C223.264 259.399 223.131 258.838 223.107 258.271C222.918 253.76 222.762 249.248 222.563 244.737C222.514 243.631 222.32 242.532 222.227 241.427C222.182 240.896 222.118 240.331 222.252 239.832C222.342 239.493 222.762 239.243 223.034 238.952C223.3 239.231 223.703 239.467 223.807 239.797C224.042 240.543 224.211 241.328 224.263 242.108C224.615 247.4 224.934 252.694 225.251 257.987C225.286 258.557 225.337 259.151 225.215 259.698C225.145 260.012 224.775 260.424 224.482 260.478C224.143 260.54 223.743 260.255 223.369 260.121Z" fill="#222222"/>
<path d="M154.389 320.995C154.345 320.448 154.293 319.994 154.274 319.536C154.173 317.079 154.158 314.615 153.96 312.166C153.758 309.669 153.365 307.185 154.075 304.71C154.174 304.369 154.236 303.924 154.476 303.743C154.817 303.487 155.308 303.432 155.734 303.291C155.837 303.696 156.14 304.185 156.008 304.489C155.271 306.203 155.231 307.951 155.496 309.751C155.834 312.047 156.231 314.339 156.424 316.647C156.534 317.946 156.336 319.28 156.162 320.584C156.122 320.893 155.663 321.259 155.321 321.377C155.093 321.456 154.727 321.146 154.389 320.995Z" fill="#222222"/>
<path d="M240.362 212.417C240.215 211.62 240.019 210.892 239.957 210.152C239.8 208.267 239.7 206.377 239.581 204.489C239.57 204.311 239.523 204.095 239.602 203.96C239.87 203.513 240.122 202.808 240.497 202.724C241.268 202.552 241.515 203.291 241.517 203.915C241.529 206.661 241.498 209.41 241.45 212.156C241.446 212.386 241.194 212.613 241.056 212.841C240.83 212.703 240.604 212.565 240.362 212.417Z" fill="#222222"/>
<path d="M224.065 262.818C224.897 262.572 225.508 262.784 225.584 263.504C225.719 264.806 225.714 266.13 225.678 267.44C225.671 267.678 225.245 268.07 224.991 268.088C224.729 268.107 224.24 267.795 224.196 267.563C223.951 266.271 223.777 264.964 223.661 263.653C223.636 263.367 223.947 263.049 224.065 262.818Z" fill="#222222"/>
<path d="M326.444 238.44C327.461 240.202 326.924 242.009 325.362 243.255C323.88 244.438 322.39 245.613 320.939 246.836C320.121 247.525 319.339 248.267 318.607 249.048C317.244 250.501 316.296 250.477 315.069 248.857C314.116 247.599 313.206 246.311 312.245 245.06C309.366 241.307 306.568 237.486 303.547 233.853C301.862 231.827 299.809 230.106 297.897 228.273C296.414 226.851 296.344 226.515 297.851 225.086C300.217 222.843 302.645 220.665 305.086 218.504C305.321 218.295 305.951 218.227 306.193 218.391C306.952 218.908 307.697 219.496 308.297 220.186C311.034 223.337 313.576 226.67 316.468 229.667C318.891 232.176 321.703 234.31 324.343 236.612C325.148 237.311 325.953 238.011 326.444 238.44ZM318.929 244.352C319.541 243.812 320.715 242.818 321.841 241.774C323.225 240.491 323.201 240.141 321.929 238.692C318.76 235.082 315.58 231.482 312.459 227.831C310.55 225.597 308.739 223.281 306.89 220.997C306.355 220.336 305.761 220.102 305.065 220.741C303.375 222.291 301.672 223.826 300.025 225.421C299.092 226.325 299.1 226.857 299.898 227.842C300.349 228.398 300.855 228.908 301.335 229.439C303.811 232.172 306.351 234.85 308.741 237.656C310.32 239.508 311.679 241.545 313.15 243.49C314.744 245.597 316.249 245.951 318.929 244.352Z" fill="#222222"/>
<path d="M342.525 168.89C342.346 168.454 342.021 167.911 341.918 167.328C341.843 166.903 341.917 166.199 342.185 166.026C342.546 165.793 343.325 165.737 343.636 165.976C344.759 166.847 345.87 167.78 346.79 168.857C349.832 172.422 352.623 176.214 355.811 179.638C361.977 186.259 368.349 192.69 374.637 199.198C376.7 201.334 378.786 203.447 380.819 205.61C381.265 206.085 382.117 206.709 381.401 207.406C380.602 208.184 380.039 207.199 379.569 206.73C369.535 196.667 359.519 186.584 349.513 176.494C347.523 174.489 345.574 172.441 343.629 170.393C343.235 169.981 342.947 169.473 342.525 168.89Z" fill="#222222"/>
<path d="M313.314 254.782C311.139 255.804 309.505 256.53 307.909 257.33C304.437 259.069 301.882 261.879 299.387 264.748C298.406 265.876 297.979 266.032 296.736 265.227C295.451 264.394 294.226 263.447 293.073 262.439C291.864 261.381 290.762 260.199 289.63 259.054C287.99 257.397 287.98 255.571 289.687 253.981C293.53 250.404 297.405 246.86 301.283 243.323C301.646 242.992 302.102 242.724 302.562 242.547C303.355 242.241 304.167 242.39 304.455 243.23C305.029 244.901 306.245 246.064 307.441 247.211C309.215 248.914 311.086 250.52 312.966 252.108C314.33 253.258 314.302 254.244 313.314 254.782ZM310.774 253.178C310.525 252.892 310.353 252.675 310.161 252.477C308.561 250.834 306.97 249.182 305.349 247.56C304.525 246.735 303.649 245.344 302.791 245.338C301.804 245.332 300.738 246.495 299.831 247.295C296.768 249.994 293.748 252.743 290.756 255.521C290.541 255.721 290.536 256.362 290.678 256.696C291.715 259.149 293.674 260.852 295.608 262.562C297.254 264.018 297.538 263.935 299.175 262.452C301.32 260.507 303.526 258.627 305.781 256.81C307.36 255.534 309.066 254.411 310.774 253.178Z" fill="#222222"/>
<path d="M348.422 150.19C351.436 148.318 352.453 148.379 354.32 150.528C358.96 155.874 363.534 161.277 368.119 166.671C368.626 167.267 369.087 167.919 369.466 168.603C369.623 168.889 369.506 169.326 369.514 169.695C369.152 169.645 368.664 169.73 368.448 169.526C366.814 167.985 365.163 166.453 363.65 164.797C360.304 161.135 357.066 157.372 353.719 153.71C352.228 152.078 350.946 152.051 349.229 153.462C347.985 154.482 346.826 155.604 345.6 156.649C345.168 157.016 344.678 157.341 344.166 157.584C343.487 157.905 342.718 158.027 342.215 157.32C341.694 156.586 341.837 155.78 342.462 155.164C343.401 154.235 344.37 153.329 345.392 152.492C346.548 151.539 347.78 150.672 348.422 150.19Z" fill="#222222"/>
<path d="M277.562 210.898C279.413 209.685 280.411 209.874 281.876 211.546C283.931 213.892 286.067 216.167 288.126 218.51C288.806 219.285 289.42 220.139 289.942 221.03C290.595 222.147 290.409 222.723 289.384 223.516C288.336 224.326 287.131 225.008 286.287 225.995C284.598 227.973 283.01 230.057 281.567 232.222C280.342 234.059 280.163 234.144 278.838 232.422C276.697 229.638 274.553 226.855 272.343 224.126C271.678 223.304 270.836 222.596 269.983 221.961C269.33 221.477 269.106 220.962 269.56 220.337C271.724 217.361 273.564 214.123 276.417 211.694C276.768 211.394 277.179 211.161 277.562 210.898ZM279.63 231.126C282.438 228.206 285.171 225.384 287.877 222.537C288.456 221.928 288.244 221.257 287.741 220.701C285.487 218.204 283.257 215.683 280.936 213.249C279.792 212.048 278.877 212.082 277.53 213.098C275.066 214.958 273.146 217.247 271.893 220.1C271.552 220.875 271.636 221.433 272.152 222.052C273.367 223.51 274.541 225.003 275.747 226.469C277.039 228.037 278.349 229.591 279.63 231.126Z" fill="#222222"/>
<path d="M303.674 240.264C302.64 240.86 301.801 241.407 300.91 241.848C297.477 243.55 294.829 246.101 292.725 249.266C291.742 250.744 291.429 250.697 290.046 249.63C286.018 246.524 283.189 242.344 279.935 238.543C279.449 237.975 279.342 237.51 279.988 236.904C283.197 233.893 286.4 230.872 289.521 227.77C290.299 226.996 290.865 226.968 291.574 227.651C292.296 228.345 292.976 229.083 293.682 229.794C296.583 232.72 299.494 235.634 302.379 238.575C302.84 239.04 303.186 239.619 303.674 240.264ZM283.193 239.769C283.575 240.332 283.931 240.917 284.344 241.455C286.04 243.667 287.555 246.048 289.968 247.603C291.269 248.441 291.511 248.408 292.652 247.333C295.155 244.98 297.648 242.621 300.174 240.295C300.922 239.607 300.809 238.999 300.181 238.377C297.285 235.5 294.376 232.638 291.481 229.76C290.717 229.002 290.08 229.159 289.38 229.876C287.458 231.85 285.499 233.79 283.556 235.746C281.726 237.592 281.728 237.593 283.193 239.769Z" fill="#222222"/>
<path d="M353.547 166.666C353.335 166.181 353.144 165.948 353.153 165.723C353.171 165.279 353.16 164.62 353.418 164.456C353.72 164.264 354.449 164.34 354.725 164.592C355.458 165.262 356.044 166.092 356.695 166.854C359.413 170.041 362.168 173.198 364.845 176.42C367.82 180.001 370.728 183.638 373.659 187.256C376.536 190.806 380.062 193.57 383.978 195.874C384.686 196.29 385.383 196.735 386.029 197.237C386.224 197.388 386.235 197.776 386.331 198.054C386.069 198.098 385.757 198.256 385.555 198.167C384.057 197.504 382.44 196.99 381.123 196.059C376.153 192.542 371.865 188.325 368.283 183.36C364.906 178.677 360.939 174.488 356.847 170.417C355.608 169.185 354.528 167.79 353.547 166.666Z" fill="#222222"/>
<path d="M290.626 217.797C288.901 215.637 286.775 212.9 284.566 210.233C283.163 208.538 283.103 208.185 284.513 206.489C284.855 206.078 285.214 205.673 285.504 205.228C286.347 203.938 286.905 203.707 288.37 204.25C288.998 204.483 289.626 204.789 290.165 205.184C292.926 207.213 295.675 209.259 298.389 211.351C299.051 211.862 299.649 212.507 300.125 213.195C300.554 213.814 300.257 214.43 299.667 214.869C298.014 216.098 296.357 217.323 294.701 218.549C294.414 218.761 294.131 218.982 293.831 219.174C292.216 220.202 291.887 220.113 290.626 217.797ZM290.061 214.105C290.036 214.127 290.011 214.149 289.985 214.172C290.415 214.915 290.868 215.645 291.265 216.404C291.697 217.231 292.358 217.45 293.124 217.028C294.264 216.399 295.375 215.706 296.444 214.962C297.504 214.223 297.537 213.788 296.552 212.962C294.006 210.825 291.415 208.74 288.845 206.631C288.226 206.124 287.61 206.164 286.973 206.592C285.804 207.378 285.653 208.11 286.501 209.285C287.671 210.905 288.874 212.499 290.061 214.105Z" fill="#222222"/>
<path d="M390.533 353.768C390.5 354.141 390.456 354.625 390.413 355.108C389.949 354.983 389.324 355.007 389.047 354.708C386.86 352.35 384.7 349.963 382.608 347.521C374.917 338.546 367.257 329.545 359.582 320.557C356.905 317.423 354.231 314.29 351.533 311.174C350.878 310.418 350.059 309.792 349.471 308.993C349.14 308.544 348.833 307.494 349.016 307.349C349.737 306.781 350.31 307.394 350.779 307.97C353.109 310.832 355.39 313.735 357.771 316.554C363.801 323.694 369.86 330.81 375.94 337.907C378.941 341.41 381.982 344.879 385.072 348.306C386.36 349.736 387.819 351.011 389.193 352.365C389.598 352.764 389.979 353.189 390.533 353.768Z" fill="#222222"/>
<path d="M336.683 174.068C336.502 173.399 336.139 172.587 336.113 171.763C336.098 171.264 336.493 170.491 336.908 170.31C337.378 170.106 338.15 170.288 338.652 170.56C339.07 170.787 339.406 171.346 339.571 171.828C340.98 175.928 343.31 179.439 346.304 182.537C349.883 186.241 353.474 189.934 357.025 193.665C357.3 193.955 357.298 194.507 357.426 194.937C356.972 194.915 356.359 195.077 356.093 194.843C354.034 193.029 351.921 191.253 350.058 189.249C346.41 185.325 342.906 181.264 339.356 177.249C338.486 176.262 337.66 175.233 336.683 174.068Z" fill="#222222"/>
<path d="M355.628 331.73C353.834 329.418 352.046 327.102 350.245 324.795C347.211 320.909 344.164 317.033 341.134 313.144C339.004 310.41 336.837 307.702 334.805 304.897C334.065 303.876 333.572 302.641 333.168 301.436C333.029 301.021 333.504 300.399 333.698 299.873C334.216 300.09 334.926 300.168 335.211 300.556C335.706 301.228 336.019 302.07 336.27 302.884C337.389 306.505 339.708 309.38 342.025 312.256C346.674 318.027 351.367 323.764 355.981 329.566C356.908 330.73 357.623 332.081 358.3 333.415C358.496 333.8 358.22 334.425 358.161 334.94C357.698 334.697 357.097 334.562 356.799 334.188C356.248 333.495 355.874 332.661 355.426 331.886C355.494 331.833 355.562 331.781 355.628 331.73Z" fill="#222222"/>
<path d="M275.086 232.004C273.973 232.648 273.472 232.546 272.695 231.563C270.786 229.146 268.9 226.713 266.99 224.297C266.058 223.117 265.106 221.954 264.142 220.801C263.306 219.799 263.278 219.055 264.297 218.216C266.973 216.015 269.698 213.871 272.409 211.711C272.996 211.244 273.607 210.809 274.207 210.359C274.668 210.013 275.237 209.52 275.646 210.19C275.81 210.46 275.463 211.277 275.116 211.582C273.428 213.067 271.659 214.459 269.924 215.891C268.93 216.711 267.924 217.517 266.965 218.376C265.928 219.306 265.827 220.006 266.657 221.082C269.108 224.254 271.606 227.392 274.074 230.55C274.436 231.012 274.746 231.512 275.086 232.004Z" fill="#222222"/>
<path d="M382.886 368.188C381.169 369.629 379.391 371.005 377.757 372.533C376.551 373.662 376.267 373.677 375.252 372.426C372.569 369.121 369.818 365.869 367.093 362.598C366.932 362.405 366.653 362.25 366.605 362.038C366.491 361.538 366.483 361.015 366.433 360.501C366.914 360.575 367.578 360.474 367.843 360.753C369.547 362.538 371.146 364.423 372.816 366.243C373.733 367.243 374.654 368.256 375.693 369.123C376.869 370.103 377.306 370.05 378.565 369.204C380.467 367.926 382.359 366.632 384.256 365.347C384.523 365.167 384.785 364.893 385.074 364.856C385.48 364.804 385.909 364.931 386.328 364.983C386.26 365.402 386.344 365.991 386.097 366.211C385.168 367.041 384.134 367.75 383.139 368.504C383.055 368.397 382.971 368.292 382.886 368.188Z" fill="#222222"/>
<path d="M356.659 297.59C356.462 297.209 356.178 296.845 356.095 296.44C356.02 296.083 356.171 295.68 356.222 295.296C356.597 295.402 357.107 295.391 357.324 295.638C358.502 296.976 359.612 298.374 360.735 299.761C363.752 303.484 366.767 307.207 369.774 310.937C370.216 311.486 371.159 312.119 370.321 312.793C369.497 313.457 368.986 312.515 368.489 311.898C366.085 308.915 363.677 305.935 361.227 302.989C359.721 301.179 358.141 299.433 356.593 297.658C356.614 297.635 356.637 297.612 356.659 297.59Z" fill="#222222"/>
<path d="M372.305 215.447C372.271 215.744 372.216 216.229 372.161 216.712C371.69 216.588 371.045 216.619 370.776 216.317C369.359 214.719 368.058 213.019 366.677 211.388C365.02 209.432 363.3 207.526 361.658 205.555C361.224 205.034 360.336 204.381 361.125 203.656C361.867 202.974 362.541 203.75 363.012 204.29C364.529 206.037 365.984 207.84 367.465 209.619C368.81 211.238 370.158 212.855 371.505 214.473C371.711 214.719 371.912 214.969 372.305 215.447Z" fill="#222222"/>
<path d="M380.659 359.441C380.642 359.862 380.621 360.395 380.6 360.929C380.08 360.869 379.49 360.946 379.054 360.722C377.334 359.842 376.389 358.194 375.262 356.722C373.529 354.452 371.742 352.224 369.986 349.972C369.678 349.578 369.366 349.177 369.137 348.738C369.034 348.54 369.034 348.118 369.162 348.013C369.33 347.876 369.731 347.848 369.927 347.958C370.29 348.163 370.662 348.447 370.884 348.792C373.099 352.225 376.067 354.968 379.006 357.741C379.526 358.23 380.003 358.763 380.659 359.441Z" fill="#222222"/>
<path d="M360.388 201.821C360.965 202.707 360.514 203.203 359.97 203.58C359.306 204.039 358.282 203.771 357.898 203.066C357.531 202.389 357.568 201.744 358.293 201.294C359.081 200.807 359.971 201.089 360.388 201.821Z" fill="#222222"/>
<path d="M363.625 343.746C363.306 344.566 363.219 345.297 362.947 345.375C362.473 345.509 361.885 345.241 361.345 345.141C361.446 344.637 361.389 343.898 361.693 343.691C362.04 343.454 362.711 343.692 363.625 343.746Z" fill="#222222"/>
<path d="M363.801 199.806C364.026 199.35 364.146 198.767 364.503 198.469C365.02 198.039 365.61 198.252 365.941 198.851C366.27 199.443 366.145 200.068 365.529 200.297C365.1 200.458 364.534 200.259 364.028 200.221C363.953 200.082 363.877 199.943 363.801 199.806Z" fill="#222222"/>
<path d="M366.875 339.741C367.468 339.96 368.018 340.015 368.084 340.222C368.182 340.536 368.042 341.048 367.812 341.296C367.681 341.435 366.967 341.318 366.867 341.129C366.709 340.835 366.851 340.383 366.875 339.741Z" fill="#222222"/>
<path d="M265.558 365.548C267.509 368.928 269.486 372.294 271.395 375.697C271.935 376.658 272.303 377.717 272.694 378.755C272.785 378.995 272.65 379.32 272.618 379.607C272.331 379.532 271.921 379.553 271.778 379.367C270.904 378.237 270.001 377.112 269.273 375.888C267.111 372.255 265.052 368.561 262.899 364.923C261.148 361.965 259.292 359.07 257.545 356.109C257.17 355.473 256.236 354.564 257.142 353.965C258.119 353.319 258.597 354.531 259.036 355.19C261.301 358.586 263.517 362.016 265.75 365.432C265.687 365.47 265.622 365.509 265.558 365.548Z" fill="#222222"/>
<path d="M193.016 380.373C193.171 380.496 193.373 380.588 193.472 380.747C194.744 382.763 196.041 384.765 197.253 386.816C199.971 391.411 202.612 396.051 205.349 400.635C207.185 403.71 209.129 406.72 211.021 409.763C211.229 410.097 211.418 410.444 211.592 410.798C211.896 411.413 212.297 412.124 211.537 412.61C210.784 413.091 210.066 412.693 209.566 412.058C209.24 411.644 209.037 411.131 208.798 410.653C207.908 408.87 207.092 407.045 206.126 405.303C203.522 400.608 200.831 395.962 198.219 391.271C197.14 389.332 196.171 387.331 195.16 385.355C194.51 384.084 193.866 382.809 193.238 381.528C193.073 381.191 192.976 380.822 192.85 380.469C192.904 380.437 192.96 380.405 193.016 380.373Z" fill="#222222"/>
<path d="M304.062 348.341C305.55 350.918 307.038 353.494 308.525 356.072C308.632 356.259 308.811 356.447 308.817 356.639C308.828 357.022 308.743 357.41 308.698 357.794C308.373 357.64 307.929 357.571 307.744 357.316C306.678 355.835 305.607 354.35 304.662 352.792C301.987 348.379 299.352 343.941 296.744 339.487C295.894 338.035 295.148 336.518 294.418 335.001C294.248 334.647 294.336 334.17 294.306 333.75C294.698 333.978 295.23 334.11 295.46 334.449C296.869 336.524 298.26 338.615 299.561 340.759C301.086 343.271 302.513 345.842 303.983 348.388C304.009 348.372 304.036 348.356 304.062 348.341Z" fill="#222222"/>
<path d="M323.041 350.037C322.558 349.557 321.967 349.147 321.608 348.59C318.759 344.159 315.949 339.701 313.135 335.247C312.561 334.338 311.979 333.429 311.48 332.479C311.318 332.172 311.411 331.731 311.388 331.35C311.732 331.508 312.207 331.572 312.402 331.84C313.704 333.637 314.995 335.447 316.202 337.31C318.504 340.859 320.762 344.436 322.999 348.026C323.306 348.518 323.389 349.148 323.576 349.713C323.397 349.821 323.219 349.928 323.041 350.037Z" fill="#222222"/>
<path d="M176.407 353.643C178.215 354.354 188.772 371.635 188.773 373.479C188.317 372.999 187.89 372.676 187.625 372.252C184.021 366.486 180.435 360.709 176.864 354.923C176.633 354.546 176.556 354.072 176.407 353.643Z" fill="#222222"/>
<path d="M237.053 390.454C237.981 392.27 238.926 394.079 239.82 395.912C239.941 396.159 239.808 396.531 239.792 396.844C239.488 396.74 239.052 396.729 238.903 396.517C237.635 394.703 236.373 392.879 235.204 391C234.507 389.879 233.978 388.653 233.379 387.471C233.266 387.248 233.092 387.008 233.1 386.782C233.113 386.397 233.25 386.017 233.335 385.634C233.696 385.803 234.212 385.873 234.391 386.156C235.289 387.578 236.1 389.054 236.941 390.512C236.979 390.494 237.015 390.474 237.053 390.454Z" fill="#222222"/>
<path d="M328.076 336.636C327.269 335.239 326.446 333.85 325.669 332.436C325.522 332.168 325.557 331.799 325.51 331.477C325.842 331.608 326.299 331.643 326.486 331.886C327.381 333.049 328.272 334.225 329.034 335.476C330.262 337.495 331.403 339.567 332.537 341.639C332.667 341.878 332.53 342.264 332.516 342.581C332.196 342.451 331.74 342.413 331.578 342.176C330.343 340.373 329.166 338.531 327.971 336.7C328.005 336.678 328.041 336.656 328.076 336.636Z" fill="#222222"/>
<path d="M401.057 258.932C400.514 260.525 399.776 262.082 399.472 263.719C398.799 267.346 398.367 271.018 397.793 274.664C397.364 277.384 396.998 280.126 396.367 282.802C395.207 287.723 393.686 292.564 392.649 297.508C391.085 304.969 389.158 312.293 386.055 319.28C385.196 321.213 385.784 322.331 387.844 322.715C392.723 323.625 397.219 325.631 401.742 327.535C409.477 330.791 417.085 334.364 424.895 337.424C437.085 342.201 449.311 346.855 460.982 352.852C467.348 356.122 473.482 359.691 478.927 364.373C479.463 364.835 480.096 365.213 480.736 365.523C483.244 366.739 484.789 365.87 485.224 363.102C485.53 361.157 485.639 359.117 486.327 357.307C488.639 351.21 490.891 345.063 493.711 339.196C495.826 334.796 497.546 330.335 498.822 325.649C500.242 320.424 501.81 315.241 504.764 310.608C505.435 309.555 506.025 308.445 506.569 307.321C508.54 303.242 510.082 298.939 512.869 295.285C513.059 295.036 513.221 294.713 513.255 294.409C513.316 293.861 513.268 293.302 513.265 292.621C512.563 292.264 511.971 291.86 511.317 291.648C506.609 290.127 501.887 288.657 497.176 287.147C493.763 286.053 490.367 284.908 486.955 283.814C480.946 281.888 474.914 280.037 468.925 278.054C465.591 276.95 462.34 275.6 459.025 274.434C455.343 273.14 451.619 271.966 447.935 270.676C440.758 268.168 433.647 265.463 426.416 263.129C419.796 260.993 413.06 259.218 406.358 257.345C405.486 257.102 404.514 257.206 403.587 257.176C402.319 257.139 401.466 257.726 401.057 258.932ZM484.574 351.828C484.646 352.044 484.64 352.294 484.513 352.558C483.624 354.41 483.169 356.648 483.105 358.698C483.065 360.014 483.28 361.989 481.683 362.496C480.149 362.983 478.618 361.702 477.544 360.782C476.936 360.26 476.351 359.705 475.721 359.208C475.064 358.69 474.304 358.295 473.575 357.889C471.899 356.957 470.125 356.05 468.775 354.659C468.174 354.038 468.503 352.985 469.397 352.908C474.065 352.505 478.707 351.856 483.284 350.844C484.057 350.67 484.588 351.226 484.574 351.828ZM425.663 264.926C429.463 266.107 433.269 267.268 437.071 268.448C446.28 271.309 455.15 275.069 464.121 278.57C468.455 280.263 472.935 281.599 477.387 282.974C482.968 284.697 488.615 286.214 494.185 287.977C497.456 289.012 500.62 290.384 503.857 291.533C504.964 291.926 506.147 292.099 507.294 292.379C508.058 292.566 508.843 292.703 509.579 292.97C511.016 293.491 511.244 294.205 510.442 295.531C510.146 296.02 509.724 296.431 509.432 296.919C508.484 298.506 507.464 300.063 506.662 301.725C505.31 304.534 504.235 307.48 502.808 310.248C500.041 315.611 498.089 321.252 496.668 327.089C495.705 331.051 494.333 334.834 492.361 338.415C491.36 340.231 490.461 342.126 489.736 344.068C488.91 346.286 487.408 347.643 485.207 348.267C478.365 350.208 471.454 351.752 464.272 351.169C462.729 351.044 461.12 350.746 459.707 350.139C451.801 346.744 444.114 342.765 436.034 339.873C425.447 336.083 415.133 331.699 404.814 327.285C400.301 325.354 395.713 323.603 391.16 321.764C390.332 321.429 389.517 321.063 388.596 320.668C388.78 319.566 388.849 318.481 389.147 317.464C391.635 308.994 393.843 300.454 395.647 291.812C395.859 290.795 396.082 289.767 396.436 288.795C398.315 283.638 399.416 278.317 399.895 272.862C399.969 272.023 400.322 271.636 401.117 271.376C407.522 269.278 413.925 267.174 420.298 264.981C422.129 264.349 423.866 264.369 425.663 264.926ZM404.591 259.096C409.098 260.379 413.569 261.788 418.053 263.153C418.147 263.181 418.222 263.268 418.381 263.379C412.43 265.439 406.549 267.475 400.414 269.599C400.51 268.237 400.51 267.238 400.667 266.263C400.946 264.531 401.283 262.807 401.666 261.095C401.998 259.613 403.198 258.698 404.591 259.096Z" fill="#222222"/>
<path d="M412.126 295.871C411.594 294.879 411.85 294.407 412.687 294.486C413.354 294.549 414.036 294.712 414.655 294.966C429.858 301.184 445.308 306.741 460.766 312.282C465.045 313.816 469.179 315.752 473.376 317.51C475.459 318.383 477.536 319.269 479.615 320.153C479.911 320.278 480.26 320.365 480.471 320.582C480.663 320.78 480.832 321.168 480.764 321.398C480.706 321.591 480.286 321.789 480.033 321.783C479.616 321.772 479.165 321.671 478.792 321.483C468.771 316.408 458.035 313.166 447.557 309.262C441.206 306.897 434.919 304.357 428.568 301.989C423.564 300.123 418.505 298.404 413.479 296.596C412.926 296.397 412.433 296.038 412.126 295.871Z" fill="#222222"/>
</svg>
