<svg width="40" height="40" viewBox="0 0 40 40" fill="none" xmlns="http://www.w3.org/2000/svg">
<path d="M20.4322 25.3537L19.8639 25.9091C19.2181 26.5032 18.6369 27.1038 18.0105 27.6915C17.7546 27.9528 17.43 28.1364 17.0741 28.221H16.9966H16.8998C16.8966 28.191 16.8966 28.1607 16.8998 28.1306C16.9579 27.3363 17.0225 26.5355 17.087 25.7347C17.1387 25.0308 17.1968 24.3269 17.2485 23.6166C17.2485 23.4164 17.2808 23.2097 17.3002 23.0095C17.3109 22.9642 17.3358 22.9235 17.3712 22.8933L20.2514 20.2585L26.0635 14.963L26.8384 14.2527C26.8909 14.2036 26.9385 14.1495 26.9805 14.0912C27.058 13.9814 27.0192 13.891 26.8901 13.8587C26.8231 13.8379 26.7526 13.8306 26.6828 13.8373C26.6129 13.8439 26.5451 13.8644 26.4832 13.8975C26.3777 13.9501 26.2762 14.0105 26.1797 14.0783L15.1109 21.0399C14.9043 21.169 14.7041 21.3046 14.4652 21.4273C14.4086 21.4465 14.3473 21.4465 14.2908 21.4273L9.33115 19.9227C9.16336 19.8771 8.99928 19.8188 8.84036 19.7483C8.76377 19.7216 8.69487 19.6767 8.63965 19.6173C8.58444 19.5579 8.54459 19.4859 8.52358 19.4075C8.50256 19.3292 8.50102 19.2469 8.51909 19.1679C8.53716 19.0888 8.57429 19.0154 8.62725 18.954C8.75645 18.7615 8.94114 18.6129 9.15679 18.5278C9.66481 18.3125 10.175 18.0972 10.6873 17.882L19.0438 14.653L29.3764 10.6685C29.5137 10.6141 29.6566 10.5751 29.8026 10.5523C30.0511 10.5246 30.3006 10.5947 30.4983 10.7478C30.696 10.9009 30.8263 11.1249 30.8617 11.3725C30.9197 11.6493 30.9197 11.9351 30.8617 12.212C30.4355 14.2204 30.0028 16.2288 29.5701 18.2436L28.1235 24.934C27.8911 26.0318 27.665 27.1232 27.4196 28.2146C27.3733 28.438 27.2996 28.6549 27.2001 28.8603C27.1613 28.9656 27.102 29.0621 27.0257 29.1442C26.9493 29.2263 26.8574 29.2924 26.7552 29.3387C26.653 29.385 26.5427 29.4105 26.4306 29.4137C26.3185 29.417 26.2069 29.3979 26.1022 29.3576C25.8324 29.2873 25.5783 29.1668 25.3531 29.0024C23.7386 27.7948 22.1242 26.5936 20.4903 25.386L20.4322 25.3537Z" fill="#010101"/>
<rect x="0.5" y="0.5" width="39" height="39" rx="3.5" stroke="black"/>
</svg>
