<svg width="23" height="20" viewBox="0 0 23 20" fill="none" xmlns="http://www.w3.org/2000/svg">
<path d="M12.4322 15.3537L11.8639 15.9091C11.2181 16.5032 10.6369 17.1038 10.0105 17.6915C9.75464 17.9528 9.42999 18.1364 9.07413 18.221H8.99664H8.89977C8.89656 18.191 8.89656 18.1607 8.89977 18.1306C8.95789 17.3363 9.02247 16.5355 9.08705 15.7347C9.13871 15.0308 9.19683 14.3269 9.24849 13.6166C9.24849 13.4164 9.28078 13.2097 9.30016 13.0095C9.31091 12.9642 9.33579 12.9235 9.37119 12.8933L12.2514 10.2585L18.0635 4.96303L18.8384 4.25266C18.8909 4.2036 18.9385 4.14952 18.9805 4.09122C19.058 3.98143 19.0192 3.89102 18.8901 3.85873C18.8231 3.83792 18.7526 3.83062 18.6828 3.83728C18.6129 3.84393 18.5451 3.86439 18.4832 3.89748C18.3777 3.95005 18.2762 4.0105 18.1797 4.0783L7.11094 11.0399C6.90429 11.169 6.7041 11.3046 6.46515 11.4273C6.40862 11.4465 6.34733 11.4465 6.29079 11.4273L1.33115 9.92267C1.16336 9.87712 0.99928 9.81883 0.840356 9.7483C0.763771 9.72164 0.694869 9.67665 0.639655 9.61726C0.584441 9.55787 0.54459 9.48587 0.523577 9.40755C0.502563 9.32922 0.501024 9.24695 0.519093 9.16789C0.537163 9.08884 0.574293 9.0154 0.627247 8.95399C0.756454 8.7615 0.941138 8.61285 1.15679 8.52777C1.66481 8.31251 2.17498 8.09724 2.6873 7.88198L11.0438 4.65305L21.3764 0.668549C21.5137 0.614095 21.6566 0.575107 21.8026 0.552307C22.0511 0.524621 22.3006 0.594746 22.4983 0.747832C22.696 0.900918 22.8263 1.12494 22.8617 1.37246C22.9197 1.64929 22.9197 1.93514 22.8617 2.21198C22.4355 4.22037 22.0028 6.22877 21.5701 8.24362L20.1235 14.934C19.8911 16.0318 19.665 17.1232 19.4196 18.2146C19.3733 18.438 19.2996 18.6549 19.2001 18.8603C19.1613 18.9656 19.102 19.0621 19.0257 19.1442C18.9493 19.2263 18.8574 19.2924 18.7552 19.3387C18.653 19.385 18.5427 19.4105 18.4306 19.4137C18.3185 19.417 18.2069 19.3979 18.1022 19.3576C17.8324 19.2873 17.5783 19.1668 17.3531 19.0024C15.7386 17.7948 14.1242 16.5936 12.4903 15.386L12.4322 15.3537Z"/>
</svg>
