<svg width="25" height="18" viewBox="0 0 25 18" fill="none" xmlns="http://www.w3.org/2000/svg">
<path d="M13.2563 17.7391C11.5177 17.7391 10.0249 17.7391 8.52571 17.6594C7.39189 17.6262 6.26437 17.5664 5.13685 17.4734C4.44495 17.4422 3.7574 17.3421 3.08337 17.1744C2.52401 17.0332 2.01801 16.7174 1.63145 16.2682C1.24489 15.819 0.995737 15.2573 0.916518 14.6564C0.758097 13.7383 0.652919 12.8109 0.601568 11.8793C0.52598 10.6435 0.494485 9.4078 0.500784 8.17205C0.496549 6.64908 0.599718 5.12788 0.809435 3.62105C0.861831 2.94126 1.07871 2.28703 1.43934 1.72092C1.68063 1.36364 1.99032 1.06373 2.34837 0.84057C2.70643 0.61741 3.10489 0.475966 3.51801 0.425376C4.45026 0.312432 5.40771 0.219418 6.32106 0.159624C9.16191 -0.0131147 11.9902 -0.0197591 14.8499 0.0201037C16.1727 0.0201037 17.4955 0.0710392 18.8183 0.172911C19.7555 0.222954 20.6893 0.32943 21.615 0.491814C22.2408 0.579851 22.8211 0.884767 23.2647 1.35861C23.7082 1.83246 23.9899 2.44836 24.0653 3.10947C24.2227 4.00337 24.33 4.90628 24.3866 5.8135C24.5 7.06254 24.5 8.31157 24.5 9.55396C24.5018 11.1112 24.3881 12.6661 24.1598 14.2046C24.0991 14.866 23.8826 15.5009 23.5299 16.0516C23.2836 16.3858 22.977 16.6653 22.6278 16.8739C22.2786 17.0826 21.8938 17.2163 21.4954 17.2674C20.324 17.4401 19.1441 17.54 17.9616 17.5664L13.2563 17.7391ZM16.4058 8.86965L10.1068 5.04282V12.6766L16.4058 8.86965Z"/>
</svg>
