<svg width="40" height="40" viewBox="0 0 40 40" fill="none" xmlns="http://www.w3.org/2000/svg">
<path d="M20.7563 28.7391C19.0177 28.7391 17.5249 28.7391 16.0257 28.6594C14.8919 28.6262 13.7644 28.5664 12.6368 28.4734C11.945 28.4422 11.2574 28.3421 10.5834 28.1744C10.024 28.0332 9.51801 27.7174 9.13145 27.2682C8.74489 26.819 8.49574 26.2573 8.41652 25.6564C8.2581 24.7383 8.15292 23.8109 8.10157 22.8793C8.02598 21.6435 7.99448 20.4078 8.00078 19.1721C7.99655 17.6491 8.09972 16.1279 8.30944 14.621C8.36183 13.9413 8.57871 13.287 8.93934 12.7209C9.18063 12.3636 9.49032 12.0637 9.84837 11.8406C10.2064 11.6174 10.6049 11.476 11.018 11.4254C11.9503 11.3124 12.9077 11.2194 13.8211 11.1596C16.6619 10.9869 19.4902 10.9802 22.3499 11.0201C23.6727 11.0201 24.9955 11.071 26.3183 11.1729C27.2555 11.223 28.1893 11.3294 29.115 11.4918C29.7408 11.5799 30.3211 11.8848 30.7647 12.3586C31.2082 12.8325 31.4899 13.4484 31.5653 14.1095C31.7227 15.0034 31.83 15.9063 31.8866 16.8135C32 18.0625 32 19.3116 32 20.554C32.0018 22.1112 31.8881 23.6661 31.6598 25.2046C31.5991 25.866 31.3826 26.5009 31.0299 27.0516C30.7836 27.3858 30.477 27.6653 30.1278 27.8739C29.7786 28.0826 29.3938 28.2163 28.9954 28.2674C27.824 28.4401 26.6441 28.54 25.4616 28.5664L20.7563 28.7391ZM23.9058 19.8697L17.6068 16.0428V23.6766L23.9058 19.8697Z" fill="#010101"/>
<rect x="0.5" y="0.5" width="39" height="39" rx="3.5" stroke="black"/>
</svg>
